<?xml version="1.0" encoding="UTF-8" standalone="no"?>
<!-- Created with Inkscape (http://www.inkscape.org/) -->

<svg
   version="1.1"
   id="svg2"
   width="659.14667"
   height="259.98666"
   viewBox="0 0 659.14667 259.98666"
   sodipodi:docname="fifthLogo.eps"
   xmlns:inkscape="http://www.inkscape.org/namespaces/inkscape"
   xmlns:sodipodi="http://sodipodi.sourceforge.net/DTD/sodipodi-0.dtd"
   xmlns="http://www.w3.org/2000/svg"
   xmlns:svg="http://www.w3.org/2000/svg">
  <defs
     id="defs6" />
  <sodipodi:namedview
     id="namedview4"
     pagecolor="#ffffff"
     bordercolor="#000000"
     borderopacity="0.25"
     inkscape:showpageshadow="2"
     inkscape:pageopacity="0.0"
     inkscape:pagecheckerboard="0"
     inkscape:deskcolor="#d1d1d1" />
  <g
     id="g8"
     inkscape:groupmode="layer"
     inkscape:label="ink_ext_XXXXXX"
     transform="matrix(1.3333333,0,0,-1.3333333,0,259.98667)">
    <g
       id="g10"
       transform="scale(0.1)">
      <path
         d="m 1253.74,45.4688 c 0,0 23.31,23.3125 0.51,46.121 L 148.84,1197 c 0,0 -22.801,22.8 -46.125,-0.51 l -34.9767,-34.98 c 0,0 -23.3164,-23.31 -0.5156,-46.12 L 1172.63,9.98047 c 0,0 22.81,-22.80077 46.12,0.51173 l 34.99,34.9766"
         style="fill:#66ccce;fill-opacity:1;fill-rule:nonzero;stroke:none"
         id="path12" />
      <path
         d="m 1048.44,1001.9 c 0,0 23.31,-23.31 47.41,0.79 l 252.05,252.04 c 0,0 24.1,24.1 0.78,47.41 l -34.97,34.98 c 0,0 -23.31,23.32 -47.42,-0.78 l -252.04,-252.05 c 0,0 -24.098,-24.1 -0.78,-47.41 l 34.97,-34.98"
         style="fill:#423c98;fill-opacity:1;fill-rule:nonzero;stroke:none"
         id="path14" />
      <path
         d="m 1199.52,736 c 0,0 -23.33,23.32 -47.23,-0.59 L 640.824,223.949 c 0,0 -23.91,-23.918 -0.586,-47.23 l 34.965,-34.977 c 0,0 23.328,-23.312 47.227,0.59 l 511.48,511.457 c 0,0 23.9,23.922 0.57,47.242 L 1199.52,736"
         style="fill:#71218b;fill-opacity:1;fill-rule:nonzero;stroke:none"
         id="path16" />
      <path
         d="m 613.816,1144.03 c 0,0 23.317,-23.32 47.414,0.79 l 544.55,544.53 c 0,0 24.1,24.1 0.77,47.42 l -34.97,34.97 c 0,0 -23.31,23.33 -47.42,-0.77 L 579.629,1226.42 c 0,0 -24.098,-24.1 -0.785,-47.41 l 34.972,-34.98"
         style="fill:#ca098d;fill-opacity:1;fill-rule:nonzero;stroke:none"
         id="path18" />
      <path
         d="m 1550.45,835.109 c 0,0 23.32,23.321 -1.31,47.942 L 493.668,1938.53 c 0,0 -24.625,24.63 -47.941,1.31 l -34.973,-34.97 c 0,0 -23.328,-23.32 1.301,-47.95 L 1467.54,801.449 c 0,0 24.62,-24.629 47.94,-1.32 l 34.97,34.98"
         style="fill:#fff200;fill-opacity:1;fill-rule:nonzero;stroke:none"
         id="path20" />
      <path
         d="m 289,530.84 c 0,0 23.313,-23.32 47.41,0.781 L 1553.16,1748.36 c 0,0 24.11,24.1 0.79,47.43 l -34.98,34.98 c 0,0 -23.32,23.31 -47.42,-0.79 L 254.809,613.219 c 0,0 -24.102,-24.09 -0.786,-47.41 L 289,530.84"
         style="fill:#f89c0e;fill-opacity:1;fill-rule:nonzero;stroke:none"
         id="path22" />
      <path
         d="m 913.648,671.191 c 0,0 23.317,23.309 -1.164,47.809 L 92.8086,1538.68 c 0,0 -24.4922,24.47 -47.8086,1.16 l -34.9766,-34.98 c 0,0 -23.3086,-23.31 1.168,-47.8 L 830.867,637.379 c 0,0 24.488,-24.481 47.805,-1.16 l 34.976,34.972"
         style="fill:#b2db18;fill-opacity:1;fill-rule:nonzero;stroke:none"
         id="path24" />
      <path
         d="m 4792.85,991.898 141.36,183.582 c 6.12,7.35 3.07,15.31 -7.96,15.31 h -29.99 c -18.96,0 -23.25,-1.84 -32.42,-13.46 l -130.35,-173.81 h -11.02 -42.85 v 171.35 c 0,11.64 -4.27,15.92 -16.51,15.92 h -26.93 c -11.63,0 -15.91,-4.28 -15.91,-15.92 V 772.199 c 0,-11.64 4.28,-15.918 15.91,-15.918 h 26.93 c 12.24,0 16.51,4.278 16.51,15.918 v 177.473 h 47.75 c 45.89,0 63.03,-12.242 81.38,-48.34 l 64.88,-130.973 c 5.51,-11.621 12.23,-14.078 31.82,-14.078 h 26.92 c 12.24,0 13.46,7.348 8.57,16.52 l -77.71,149.937 c -17.75,35.492 -38.56,58.145 -70.38,69.16 m -233.58,-219.097 -67.93,131.578 c -8.57,15.301 -17.15,26.93 -30.59,34.281 56.29,12.852 89.95,55.688 89.95,121.78 0,82.62 -50.19,130.35 -132.19,130.35 h -171.97 c -11.62,0 -15.9,-4.28 -15.9,-15.92 V 772.199 c 0,-11.64 4.28,-15.918 15.9,-15.918 h 26.93 c 12.25,0 16.52,4.278 16.52,15.918 v 158.5 h 65.49 c 45.28,0 63.03,-12.238 80.77,-48.34 l 55.69,-112 c 5.52,-11.621 11.64,-14.078 31.82,-14.078 h 26.94 c 12.23,0 13.46,7.348 8.57,16.52 M 4413,985.777 H 4289.99 V 1135.71 H 4413 c 48.34,0 75.89,-26.93 75.89,-75.27 0,-47.73 -27.55,-74.663 -75.89,-74.663 m -277.22,708.433 c 0,45.29 35.48,69.15 102.19,69.15 55.69,0 84.46,-21.42 105.26,-61.81 5.51,-11.01 9.8,-12.85 20.81,-7.95 l 25.71,11.62 c 11.01,4.89 14.06,10.41 8.56,21.43 -29.99,62.42 -75.28,93.63 -160.34,93.63 -105.88,0 -162.78,-53.25 -162.78,-129.74 0,-102.82 88.73,-115.06 164,-123 56.92,-6.74 108.32,-15.92 108.32,-68.55 0,-52.02 -37.94,-75.89 -110.15,-75.89 -55.08,0 -91.18,23.87 -110.77,69.16 -4.9,11.62 -9.79,13.47 -20.8,9.79 l -25.09,-9.17 c -11.64,-4.3 -14.69,-9.19 -10.41,-20.82 26.93,-69.15 75.27,-104.65 167.07,-104.65 110.15,0 169.52,52.02 169.52,132.8 0,99.14 -80.78,115.06 -153.6,123.62 -61.21,6.73 -117.5,15.91 -117.5,70.38 m -105.38,-301.7 v 23.25 c 0,11.63 -3.68,15.9 -15.91,15.9 h -209.92 v 137.7 H 3979 c 12.24,0 15.9,3.68 15.9,15.92 v 22.64 c 0,12.24 -3.66,16.52 -15.9,16.52 h -174.43 v 131.58 h 202.57 c 12.24,0 15.92,4.28 15.92,15.92 v 23.25 c 0,11.62 -3.68,15.91 -15.92,15.91 h -246.01 c -11.62,0 -15.91,-4.29 -15.91,-15.91 v -402.68 c 0,-11.63 4.29,-15.92 15.91,-15.92 h 253.36 c 12.23,0 15.91,4.29 15.91,15.92 M 3768.74,1176.71 3705.7,910.5 c -4.91,-21.41 -9.81,-61.199 -11.03,-72.211 h -3.05 c -1.22,12.852 -6.73,49.57 -12.86,72.832 l -71.59,260.699 c -3.06,11.63 -9.19,14.07 -21.42,14.07 h -25.72 c -11.62,0 -17.74,-2.44 -21.4,-14.07 L 3466.4,911.121 c -6.11,-21.422 -11,-59.359 -12.85,-72.832 h -3.05 c -1.23,12.242 -6.12,53.242 -10.4,73.441 l -63.65,264.98 c -2.45,11.63 -7.96,14.08 -21.43,14.08 h -32.42 c -11.63,0 -13.46,-4.9 -10.42,-15.92 l 105.27,-405.729 c 2.45,-11.02 9.19,-12.86 20.19,-12.86 h 25.71 c 11.01,0 17.13,1.84 20.2,13.469 l 74.05,271.72 c 5.5,19.58 9.79,42.22 11.62,63.64 h 3.68 c 1.83,-21.42 6.11,-45.28 11,-63.64 l 73.45,-272.329 c 2.44,-10.403 9.18,-12.86 20.18,-12.86 h 25.72 c 11.62,0 17.74,1.84 20.19,13.469 l 105.87,405.12 c 2.44,11.02 0.62,15.92 -11.02,15.92 h -28.15 c -13.47,0 -18.96,-2.45 -21.4,-14.08 m -84.53,216.41 -67.93,131.56 c -8.56,15.31 -17.13,26.94 -30.6,34.28 56.31,12.85 89.97,55.69 89.97,121.79 0,82.61 -50.19,130.35 -132.19,130.35 H 3371.5 c -11.63,0 -15.91,-4.29 -15.91,-15.91 v -402.68 c 0,-11.63 4.28,-15.92 15.91,-15.92 h 26.92 c 12.25,0 16.53,4.29 16.53,15.92 V 1551 h 65.47 c 45.29,0 63.04,-12.24 80.79,-48.34 l 55.68,-111.99 c 5.51,-11.63 11.63,-14.08 31.83,-14.08 h 26.93 c 12.24,0 13.47,7.34 8.56,16.53 m -146.26,212.96 h -123 v 149.94 h 123 c 48.34,0 75.89,-26.93 75.89,-75.27 0,-47.74 -27.55,-74.67 -75.89,-74.67 m -241.66,-213.57 v 23.25 c 0,11.63 -3.67,15.9 -15.9,15.9 h -209.93 v 137.7 h 174.43 c 12.23,0 15.92,3.68 15.92,15.92 v 22.64 c 0,12.24 -3.69,16.52 -15.92,16.52 h -174.43 v 131.58 h 202.58 c 12.24,0 15.91,4.28 15.91,15.92 v 23.25 c 0,11.62 -3.67,15.91 -15.91,15.91 h -246.02 c -11.62,0 -15.91,-4.29 -15.91,-15.91 v -402.68 c 0,-11.63 4.29,-15.92 15.91,-15.92 h 253.37 c 12.23,0 15.9,4.29 15.9,15.92 m -47.07,-201.72 h -272.94 c -11.63,0 -15.9,-4.28 -15.9,-15.92 v -23.25 c 0,-11.63 4.27,-15.91 15.9,-15.91 H 3191.1 L 2963.44,812.59 c -4.29,-5.508 -6.13,-10.41 -6.13,-17.75 v -22.641 c 0,-11.64 4.3,-15.918 16.53,-15.918 h 280.29 c 12.24,0 15.9,4.278 15.9,15.918 v 23.262 c 0,12.23 -3.66,15.898 -15.9,15.898 h -222.76 l 228.26,323.741 c 4.29,4.89 5.51,9.79 5.51,17.13 v 22.64 c 0,11.64 -4.29,15.92 -15.92,15.92 m -297.41,201.72 v 23.25 c 0,11.63 -3.66,15.9 -15.9,15.9 H 2726 v 137.7 h 174.41 c 12.25,0 15.91,3.68 15.91,15.92 v 22.64 c 0,12.24 -3.66,16.52 -15.91,16.52 H 2726 v 131.58 h 202.56 c 12.25,0 15.92,4.28 15.92,15.92 v 23.25 c 0,11.62 -3.67,15.91 -15.92,15.91 h -246.01 c -11.63,0 -15.9,-4.29 -15.9,-15.91 v -402.68 c 0,-11.63 4.27,-15.92 15.9,-15.92 h 253.36 c 12.24,0 15.9,4.29 15.9,15.92 m -50.72,-201.72 H 2611 c -12.24,0 -15.9,-4.28 -15.9,-15.92 v -23.25 c 0,-11.63 3.66,-15.91 15.9,-15.91 h 115.67 V 772.199 c 0,-11.64 3.68,-15.918 15.91,-15.918 h 26.94 c 12.23,0 15.9,4.278 15.9,15.918 v 363.511 h 115.67 c 11.63,0 15.91,4.28 15.91,15.91 v 23.25 c 0,11.64 -4.28,15.92 -15.91,15.92 M 2591.25,440.129 c 0,82.609 -50.17,130.363 -132.18,130.363 H 2287.1 c -11.62,0 -15.91,-4.301 -15.91,-15.922 V 151.891 c 0,-11.629 4.29,-15.911 15.91,-15.911 h 26.92 c 12.24,0 16.54,4.282 16.54,15.911 v 158.507 h 65.47 c 45.29,0 63.04,-12.238 80.78,-48.359 l 55.69,-111.98 c 5.51,-11.637 11.63,-14.079 31.83,-14.079 h 26.92 c 12.25,0 13.46,7.352 8.57,16.52 l -67.93,131.582 c -8.57,15.289 -17.13,26.93 -30.6,34.258 56.3,12.851 89.96,55.691 89.96,121.789 m -61.81,0 c 0,-47.738 -27.53,-74.66 -75.88,-74.66 h -123 V 515.41 h 123 c 48.35,0 75.88,-26.93 75.88,-75.281 m 61.75,1085.171 v 269.89 c 0,11.62 -4.28,15.91 -15.91,15.91 h -26.94 c -12.23,0 -16.51,-4.29 -16.51,-15.91 v -270.51 c 0,-63.02 -35.51,-102.19 -108.33,-102.19 -72.82,0 -108.31,39.17 -108.31,102.19 v 270.51 c 0,11.62 -3.68,15.91 -15.92,15.91 h -26.92 c -12.24,0 -15.92,-4.29 -15.92,-15.91 V 1525.3 c 0,-96.07 56.3,-157.89 167.07,-157.89 111.38,0 167.69,61.82 167.69,157.89 m -395.27,-150.54 -39.78,46.5 c 22.04,25.71 33.66,61.2 33.66,102.83 v 139.52 c 0,96.69 -60.58,156.67 -171.35,156.67 -110.76,0 -171.36,-59.98 -171.36,-156.67 v -139.52 c 0,-96.7 60.6,-156.68 171.36,-156.68 37.34,0 69.16,7.35 93.02,20.82 l 42.23,-49.57 c 7.34,-9.19 13.46,-9.19 22.64,-1.85 l 17.74,14.69 c 9.19,7.96 9.19,14.07 1.84,23.26 m -65.48,149.33 c 0,-64.88 -39.78,-101.6 -111.99,-101.6 -72.22,0 -111.99,36.72 -111.99,101.6 v 139.52 c 0,64.87 39.77,101.59 111.99,101.59 72.21,0 111.99,-36.72 111.99,-101.59 z m -270.5,-349.22 V 772.199 c 0,-11.64 4.3,-15.918 15.92,-15.918 h 25.09 c 12.24,0 16.52,4.278 16.52,15.918 v 226.43 c 0,50.801 -10.39,102.191 -10.39,113.831 h 3.05 c 6.11,-8.57 24.47,-56.3 49.57,-94.25 l 174.41,-253.972 c 4.28,-6.117 8.58,-7.957 16.52,-7.957 h 26.93 c 11.63,0 15.91,4.278 15.91,15.918 v 402.671 c 0,11.64 -4.28,15.92 -15.91,15.92 h -25.09 c -12.24,0 -15.9,-4.28 -15.9,-15.92 V 953.336 c 0,-54.465 9.78,-104.645 9.78,-118.106 h -3.05 c -7.35,10.411 -24.49,56.301 -52.64,97.918 L 1918.7,1182.83 c -3.07,4.9 -7.35,7.96 -15.92,7.96 h -26.92 c -11.62,0 -15.92,-4.28 -15.92,-15.92 m 0,-620.3 V 151.891 c 0,-11.629 4.3,-15.911 15.92,-15.911 h 25.09 c 12.24,0 16.52,4.282 16.52,15.911 v 226.441 c 0,50.777 -10.39,102.188 -10.39,113.816 h 3.05 c 6.11,-8.558 24.47,-56.308 49.57,-94.25 l 174.41,-253.957 c 4.28,-6.121 8.58,-7.961 16.52,-7.961 h 26.93 c 11.63,0 15.91,4.282 15.91,15.911 V 554.57 c 0,11.621 -4.28,15.922 -15.91,15.922 h -25.09 c -12.24,0 -15.9,-4.301 -15.9,-15.922 V 333.031 c 0,-54.461 9.78,-104.64 9.78,-118.109 h -3.05 c -7.35,10.398 -24.49,56.297 -52.64,97.91 L 1918.7,562.531 c -3.07,4.891 -7.35,7.961 -15.92,7.961 h -26.92 c -11.62,0 -15.92,-4.301 -15.92,-15.922 m 411.25,620.3 V 772.199 c 0,-11.64 4.29,-15.918 15.91,-15.918 h 253.36 c 12.24,0 15.91,4.278 15.91,15.918 v 23.262 c 0,11.621 -3.67,15.898 -15.91,15.898 h -209.9 v 137.7 h 174.4 c 12.24,0 15.91,3.668 15.91,15.906 v 22.648 c 0,12.242 -3.67,16.517 -15.91,16.517 h -174.4 v 131.58 h 202.56 c 12.24,0 15.9,4.28 15.9,15.91 v 23.25 c 0,11.64 -3.66,15.92 -15.9,15.92 H 2287.1 c -11.62,0 -15.91,-4.28 -15.91,-15.92 m 358.11,-620.3 105.27,-405.738 c 2.45,-11.012 9.17,-12.852 20.19,-12.852 h 25.7 c 11.02,0 17.14,1.84 20.2,13.469 l 74.05,271.711 c 5.51,19.59 9.79,42.231 11.63,63.641 h 3.66 c 1.84,-21.41 6.13,-45.281 11.03,-63.641 l 73.44,-272.328 c 2.44,-10.41 9.17,-12.852 20.18,-12.852 h 25.71 c 11.63,0 17.74,1.84 20.19,13.469 l 105.88,405.121 c 2.45,11.012 0.62,15.922 -11.02,15.922 h -28.15 c -13.47,0 -18.97,-2.461 -21.42,-14.082 l -63.03,-266.211 c -4.9,-21.429 -9.8,-61.199 -11.01,-72.207 h -3.06 c -1.24,12.84 -6.74,49.567 -12.86,72.817 l -71.6,260.711 c -3.06,11.621 -9.19,14.062 -21.42,14.062 h -25.71 c -11.63,0 -17.74,-2.441 -21.41,-14.062 l -72.21,-260.711 c -6.12,-21.418 -11.03,-59.368 -12.85,-72.817 h -3.07 c -1.23,12.238 -6.12,53.227 -10.4,73.43 l -63.65,264.988 c -2.45,11.621 -7.96,14.082 -21.41,14.082 h -32.44 c -11.62,0 -13.47,-4.91 -10.41,-15.922 m 1256.86,620.3 V 772.199 c 0,-11.64 4.29,-15.918 15.91,-15.918 h 253.36 c 12.24,0 15.91,4.278 15.91,15.918 v 23.262 c 0,11.621 -3.67,15.898 -15.91,15.898 h -209.9 v 137.7 h 174.4 c 12.25,0 15.91,3.668 15.91,15.906 v 22.648 c 0,12.242 -3.66,16.517 -15.91,16.517 h -174.4 v 131.58 h 202.56 c 12.24,0 15.91,4.28 15.91,15.91 v 23.25 c 0,11.64 -3.67,15.92 -15.91,15.92 h -246.02 c -11.62,0 -15.91,-4.28 -15.91,-15.92"
         style="fill:#231f20;fill-opacity:1;fill-rule:nonzero;stroke:none"
         id="path26" />
    </g>
  </g>
</svg>
