<?xml version="1.0" encoding="UTF-8" standalone="no"?>
<!-- Created with Inkscape (http://www.inkscape.org/) -->

<svg
   version="1.1"
   id="svg2"
   width="442.37332"
   height="252.09332"
   viewBox="0 0 442.37332 252.09332"
   sodipodi:docname="fourthImg.eps"
   xmlns:inkscape="http://www.inkscape.org/namespaces/inkscape"
   xmlns:sodipodi="http://sodipodi.sourceforge.net/DTD/sodipodi-0.dtd"
   xmlns="http://www.w3.org/2000/svg"
   xmlns:svg="http://www.w3.org/2000/svg">
  <defs
     id="defs6" />
  <sodipodi:namedview
     id="namedview4"
     pagecolor="#ffffff"
     bordercolor="#000000"
     borderopacity="0.25"
     inkscape:showpageshadow="2"
     inkscape:pageopacity="0.0"
     inkscape:pagecheckerboard="0"
     inkscape:deskcolor="#d1d1d1" />
  <g
     id="g8"
     inkscape:groupmode="layer"
     inkscape:label="ink_ext_XXXXXX"
     transform="matrix(1.3333333,0,0,-1.3333333,0,252.09333)">
    <g
       id="g10"
       transform="scale(0.1)">
      <path
         d="m 2255.12,937.684 -0.17,-2.649 -0.66,-8.906 -0.16,-1.649 -0.66,-1.152 -0.83,-0.656 -21.6,-0.664 h -2.64 l -8.75,0.664 -2.64,-0.164 -8.57,-0.664 -2.64,-0.168 h -11.39 l -8.57,0.664 h -2.65 l -14.18,-0.828 -5.61,0.332 -1.97,0.332 -1.16,0.82 -0.49,1.16 -0.34,1.809 -0.33,3.797 -0.16,2.636 0.16,2.481 v 2.473 l 0.67,8.738 v 2.637 l 0.16,8.75 -0.16,2.636 -0.5,8.742 -0.17,2.637 0.33,8.906 v 14.024 l 0.67,8.738 -0.17,2.65 -0.5,8.74 -0.16,2.63 v 3.96 l 0.33,4.95 v 2.47 l 0.5,8.58 0.16,2.31 0.49,1.32 0.83,0.66 1.32,0.17 2.14,0.33 10.72,-0.66 10.07,0.16 h 2.64 l 9.89,-0.66 h 2.65 l 9.89,0.66 h 2.63 l 22.45,-0.33 2.8,0.17 5.6,0.5 h 4.13 l 2.31,-0.5 0.99,-0.82 0.33,-1.16 0.33,-2.15 v -4.45 l -0.33,-4.13 v -2.8 l 0.16,-4.12 0.17,-2.47 -0.17,-2.48 -0.33,-1.98 -0.66,-1.16 -0.82,-0.65 -1.98,-0.33 h -1.32 l -2.64,-0.17 -15.51,0.33 h -2.63 l -8.42,-0.33 h -2.64 l -8.57,0.33 -7.42,0.5 h -2.49 l -1.31,-0.17 -1.65,-0.33 -0.82,-0.82 -0.17,-1 -0.33,-1.81 -0.32,-3.96 v -2.63 l 0.15,-2.807 0.17,-1.816 0.33,-1.153 0.66,-0.828 1.81,-0.5 5.28,-0.32 5.28,0.32 h 15.67 l 18.48,0.996 5.1,-0.332 1.82,-0.332 1,-0.82 0.49,-0.996 0.16,-1.805 0.33,-2.812 0.17,-2.805 v -5.437 l 0.33,-3.801 -0.33,-4.942 -0.33,-1.98 -0.67,-1.152 -1.15,-0.833 -1.65,-0.32 h -3.29 l -7.43,0.82 -2.64,0.165 -13.19,-0.829 -10.56,0.332 h -2.64 l -6.6,0.497 -2.8,-0.165 -1.98,-0.167 -0.82,-0.497 -0.5,-1.152 -0.17,-2.473 -0.48,-4.121 -0.17,-2.644 v -3.625 l 0.17,-1.649 0.48,-1.152 0.67,-0.664 1.81,-0.168 9.08,-0.332 h 2.63 l 8.91,0.664 11.71,-0.664 h 2.64 l 11.71,0.664 h 2.47 l 2.48,-0.164 5.93,-0.656 1,-0.496 0.65,-0.989 0.17,-1.816 z m -119.47,-2.969 0.33,-4.133 0.16,-2.469 -0.16,-2.304 -0.82,-2.149 -1.16,-1.152 -1.81,-0.168 -2.64,-0.332 -8.91,0.5 H 2118 l -8.74,-0.664 h -2.64 l -2.31,0.496 -0.99,1.32 -0.33,2.305 -0.66,10.723 -0.16,2.644 0.33,10.723 v 2.636 l -0.33,10.559 v 2.305 l -0.67,1.316 -1.8,0.664 h -3.97 l -6.59,-0.496 -2.65,-0.168 -13.19,0.332 -8.91,0.5 -2.14,-0.168 -1.49,-0.496 -0.82,-1.484 -0.16,-2.305 0.16,-10.559 v -2.636 l -0.33,-10.723 0.17,-2.644 0.66,-7.09 v -3.789 l -0.66,-2.317 -1.49,-1.316 -2.15,-0.5 -2.47,-0.164 -2.47,0.164 -6.93,0.664 -2.64,0.168 -7.75,-0.5 -2.64,0.168 h -1.32 l -1.81,0.332 -1.32,0.652 -0.67,0.832 -0.32,1.817 -0.17,1.484 v 2.637 l 0.33,4.949 v 13.848 l 0.33,8.75 v 2.636 l 0.17,8.742 v 2.637 l -0.5,8.738 v 2.649 l -0.16,8.738 V 1003 l 0.16,2.64 0.5,8.74 0.16,2.64 -0.16,8.74 -0.17,2.65 -0.82,5.6 v 3.47 l 0.65,1.97 1.49,1.15 2.15,0.5 2.47,0.17 h 2.48 l 6.92,-0.34 h 2.64 l 6.6,0.5 h 2.64 l 2.48,-0.16 2.14,-0.34 1.31,-1.31 0.67,-2.14 0.16,-1.16 v -2.48 l -0.49,-7.42 -0.17,-2.63 -0.17,-10.73 v -13.521 l 0.17,-1.984 0.5,-1.317 0.82,-0.664 1.65,-0.168 2.31,-0.156 h 2.31 l 6.27,0.988 2.47,0.164 10.55,-0.332 9.74,-0.664 h 2.47 l 1.15,0.168 1.82,0.996 0.66,1.317 0.17,1.816 0.65,10.717 v 2.64 l -0.33,10.73 v 2.63 l -0.15,10.72 0.48,2.64 1.32,1.49 1.99,0.33 h 2.63 l 8.91,-0.5 h 2.64 l 7.43,0.5 2.63,-0.17 h 1.49 l 2.15,-0.33 1.31,-1.32 0.66,-2.3 V 1035 l -0.49,-6.59 -0.17,-2.65 0.49,-8.74 v -2.64 l -0.32,-8.74 V 1003 l 0.65,-8.746 v -2.637 l -0.65,-8.738 v -2.649 l -0.33,-8.738 v -2.637 l 0.16,-8.742 v -2.636 l -0.16,-8.75 v -11.375 z m -124.58,2.469 -1.31,-1.317 -2.97,-2.637 -1.98,-1.484 -3.13,-2.316 -1.98,-1.317 -3.3,-1.816 -2.14,-1.152 -3.8,-1.817 -2.47,-0.82 -2.8,-0.832 -2.82,-0.488 -4.12,-0.829 -5.77,-0.656 -2.97,-0.164 -4.12,-0.332 h -8.58 l -2.81,0.164 -2.8,0.332 -2.8,0.488 -2.8,0.664 -2.48,0.821 -7.43,1.984 -3.62,1.317 -2.15,0.988 -3.13,1.816 -1.98,1.485 -2.14,1.484 -2.31,1.484 -4.3,3.633 -1.97,1.981 -1.81,2.14 -1.82,2.481 -1.49,2.304 -1.31,2.305 -1.16,2.313 -1.65,3.468 -2.48,6.922 -1.15,3.301 -1.65,4.953 -0.32,2.469 -0.17,3.789 0.17,2.48 0.15,2.637 v 2.805 l 0.34,5.605 0.16,2.645 0.5,2.473 0.65,3.632 0.67,2.469 0.82,2.471 0.83,2.31 1.15,3.31 1.15,2.3 1.17,2.48 1.31,2.47 1.49,2.47 1.48,2.32 1.65,2.13 1.81,2.32 1.98,2.14 1.98,1.81 2.14,1.82 1.99,1.65 5.28,3.62 2.14,1.33 2.31,1.32 4.94,2.31 2.81,0.98 2.64,0.83 5.61,1.32 2.8,0.5 2.8,0.32 5.12,0.33 3.62,0.33 2.48,-0.16 3.63,-0.17 6.1,-0.82 2.32,-0.49 3.78,-0.66 5.78,-1.65 2.31,-0.99 3.63,-2.15 2.31,-1.31 4.29,-2.97 5.11,-3.63 1.82,-1.32 0.99,-0.83 1.15,-1.15 0.33,-1.32 -0.17,-1.32 -0.98,-1.32 -1.49,-1.82 -1.81,-1.81 -1.82,-1.65 -1.82,-1.49 -1.81,-1.81 -2.81,-3.3 -1.8,-1.98 -0.83,-0.82 -1.49,-1.33 -1.15,-0.48 -1.15,-0.17 -1.16,0.33 -1.81,0.99 -3.13,2.3 -2.15,1.16 -3.64,1.66 -2.3,0.82 -3.63,0.98 -2.47,0.5 -4.13,0.33 h -2.63 l -3.63,-0.33 -2.64,-0.66 -3.63,-1.16 -2.48,-0.98 -2.14,-0.83 -3.3,-1.64 -2.31,-1.65 -1.15,-1 -1.98,-2.14 -1.49,-2.31 -1.15,-2.141 -1.16,-2.316 -0.99,-2.469 -0.82,-2.637 -0.5,-2.812 -0.33,-2.473 -0.33,-4.949 v -2.637 l 0.16,-4.121 0.17,-2.473 0.83,-3.797 0.82,-2.472 1.15,-2.801 1.33,-2.48 2.47,-3.625 1.82,-1.981 3.13,-2.637 2.14,-1.484 3.3,-1.652 2.47,-0.996 3.64,-0.985 2.63,-0.5 3.97,-0.164 h 3.79 l 2.31,0.496 1.32,0.332 2.47,0.821 4.12,1.484 2.65,1.164 2.47,1.152 2.14,1.153 3.13,1.98 2.15,1.653 1.65,1.152 0.99,0.332 1.48,-0.332 1.82,-1.152 1.81,-1.653 0.66,-0.996 1.65,-1.805 2.65,-3.3 1.64,-1.985 4.45,-5.105 1.48,-1.985 0.83,-0.828 0.82,-1.484 z m -129.49,10.89 v -2.636 l -0.66,-8.918 v -2.637 l -0.17,-9.07 v -1.817 l -0.5,-0.988 -1.31,-0.332 -2.31,-0.164 -8.42,0.164 h -10.22 l -8.24,0.664 -1,0.332 -0.49,0.488 v 1.653 l -0.33,4.128 v 2.637 l -0.17,2.473 v 2.469 l -0.49,8.918 0.16,2.636 0.5,8.906 0.17,2.637 -0.5,9.071 v 2.636 l -0.17,8.906 v 14.192 l -0.16,9.068 v 2.64 l 0.16,8.91 v 14.19 l -0.33,9.07 0.5,1.81 0.98,0.66 1.65,0.16 h 1.32 l 2.48,0.17 3.96,-0.17 h 2.64 l 7.58,0.34 h 10.24 l 1.8,-0.34 0.34,-0.98 0.16,-1.82 0.33,-4.29 0.17,-2.63 v -16.17 l 0.17,-8.91 v -2.64 l -0.17,-9.068 v -2.637 l 0.17,-8.906 v -2.649 l -0.34,-8.906 V 956.98 Z m -51.82,-18.144 -0.17,-2.637 v -1.484 l -0.5,-1.985 -0.98,-1.152 -1.16,-0.496 -1.65,-0.332 h -1.32 l -2.31,-0.168 -18.31,0.996 h -12.37 l -14.85,-0.996 -9.56,0.664 h -12.2 l -7.59,-0.496 h -2.48 l -2.31,0.164 -1.81,0.332 -1.16,0.656 -0.83,0.996 -0.32,1.973 v 2.644 l 0.82,6.27 0.17,2.473 -0.67,8.738 v 2.637 l 0.34,8.75 v 2.636 l 0.33,20.117 v 2.649 L 1738.2,1003 v 2.64 l -0.15,8.74 v 14.03 l -0.34,4.94 v 2.48 l 0.17,1.48 0.49,2.14 0.66,1 1.16,0.48 1.81,0.34 h 1.32 l 2.47,0.16 8.09,-0.5 h 2.63 l 11.72,0.17 h 1.64 l 1.17,-0.65 0.82,-1.16 v -14.35 l 0.33,-9.57 v -2.64 l -0.5,-9.57 v -2.64 l 0.33,-9.567 v -2.637 l 0.5,-9.57 v -2.637 l -1,-21.765 0.17,-1.653 0.17,-0.828 0.33,-0.82 0.82,-0.664 1.98,-0.324 5.61,-0.332 4.95,0.332 h 2.63 l 23.76,0.324 2.64,0.164 5.61,0.664 2.63,0.168 h 2.48 l 1.98,-0.5 1.16,-0.984 0.49,-1.164 0.16,-1.805 0.17,-9.238 0.16,-2.649 z m -108.58,98.31 -0.15,-2.48 0.15,-4.94 -0.15,-2.65 -0.17,-1.32 -0.33,-1.97 -0.5,-1.16 -0.99,-0.82 -1.98,-0.33 h -2.64 l -4.95,0.49 -2.63,0.17 -7.59,-0.5 h -2.64 l -4.13,0.33 h -2.47 l -1.15,-0.16 -1.65,-0.5 -0.67,-0.99 -0.15,-2.14 -0.67,-9.731 v -2.648 l 0.67,-9.891 -0.17,-2.637 -0.66,-9.902 -0.17,-2.637 0.33,-9.726 v -15.176 l -0.33,-9.738 0.17,-2.469 0.83,-7.422 0.15,-2.648 -0.49,-1.973 -0.83,-0.828 -2.13,-0.332 -3.14,0.164 -4.12,0.5 -2.81,0.164 -7.42,-0.496 h -2.64 l -7.42,0.496 -1.99,0.168 -0.98,0.488 -0.33,1.817 v 2.8 l 0.49,6.934 0.17,2.637 v 12.375 l 0.17,9.89 v 2.649 l 0.16,9.726 v 2.637 l -0.66,9.902 -0.17,2.637 v 12.539 l -0.33,9.731 v 2.31 l -0.49,1.32 -1.65,0.33 h -2.48 l -5.27,-0.33 h -2.97 l -4.45,0.33 -2.81,0.16 -2.81,-0.16 -3.79,-0.17 h -2.47 l -1.32,0.17 -1.81,0.32 -1,0.66 -0.65,0.99 -0.34,1.65 v 1.15 l -0.16,2.65 0.33,4.94 v 2.48 l -0.5,6.27 0.17,2.64 0.5,2.14 0.65,1.16 1,0.49 1.65,0.33 h 3.79 l 6.1,-0.5 h 2.64 l 9.57,0.67 h 2.63 l 9.74,-0.82 h 2.64 l 12.2,0.82 9.57,-0.17 h 2.64 l 12.37,0.17 h 12.21 l 5.44,0.33 2.8,-0.17 1.32,-0.16 1.98,-0.34 1.16,-0.65 0.83,-1.16 0.32,-1.98 v -1.15 l 0.16,-2.48 z m -120.45,-93.525 0.33,-4.133 0.17,-2.469 -0.17,-2.304 -0.82,-2.149 -1.16,-1.152 -1.8,-0.168 -2.65,-0.332 -8.91,0.5 h -2.63 l -8.74,-0.664 h -2.65 l -2.31,0.496 -0.99,1.32 -0.33,2.305 -0.66,10.723 -0.16,2.644 0.33,10.723 v 2.636 l -0.33,10.559 v 2.305 l -0.66,1.316 -1.81,0.664 h -3.96 l -6.6,-0.496 -2.64,-0.168 -13.2,0.332 -8.91,0.5 -2.14,-0.168 -1.49,-0.496 -0.82,-1.484 -0.16,-2.305 0.16,-10.559 v -2.636 l -0.33,-10.723 0.17,-2.644 0.66,-7.09 v -3.789 l -0.66,-2.317 -1.49,-1.316 -2.14,-0.5 -2.48,-0.164 -2.47,0.164 -6.93,0.664 -2.64,0.168 -7.75,-0.5 -2.64,0.168 H 1495 l -1.81,0.332 -1.32,0.652 -0.66,0.832 -0.33,1.817 -0.17,1.484 v 2.637 l 0.33,4.949 v 13.848 l 0.33,8.75 v 2.636 l 0.17,8.742 v 2.637 l -0.5,8.738 v 2.649 l -0.16,8.738 V 1003 l 0.16,2.64 0.5,8.74 0.16,2.64 -0.16,8.74 -0.17,2.65 -0.82,5.6 v 3.47 l 0.66,1.97 1.48,1.15 2.14,0.5 2.48,0.17 h 2.48 l 6.92,-0.34 h 2.64 l 6.6,0.5 h 2.64 l 2.47,-0.16 2.15,-0.34 1.32,-1.31 0.66,-2.14 0.16,-1.16 v -2.48 l -0.49,-7.42 -0.17,-2.63 -0.16,-10.73 v -13.521 l 0.16,-1.984 0.5,-1.317 0.82,-0.664 1.65,-0.168 2.31,-0.156 h 2.31 l 6.26,0.988 2.48,0.164 10.56,-0.332 9.73,-0.664 h 2.47 l 1.16,0.168 1.81,0.996 0.66,1.317 0.17,1.816 0.66,10.717 v 2.64 l -0.33,10.73 v 2.63 l -0.17,10.72 0.5,2.64 1.32,1.49 1.98,0.33 h 2.64 l 8.91,-0.5 h 2.63 l 7.42,0.5 2.64,-0.17 h 1.5 l 2.13,-0.33 1.32,-1.32 0.67,-2.3 V 1035 l -0.5,-6.59 -0.17,-2.65 0.5,-8.74 v -2.64 l -0.33,-8.74 V 1003 l 0.66,-8.746 v -2.637 l -0.66,-8.738 v -2.649 l -0.33,-8.738 v -2.637 l 0.16,-8.742 v -2.636 l -0.16,-8.75 v -11.375 z m -124.57,2.469 -1.32,-1.317 -2.97,-2.637 -1.98,-1.484 -3.13,-2.316 -1.98,-1.317 -3.3,-1.816 -2.14,-1.152 -3.8,-1.817 -2.47,-0.82 -2.81,-0.832 -2.8,-0.488 -4.13,-0.829 -5.77,-0.656 -2.97,-0.164 -4.12,-0.332 h -8.58 l -2.8,0.164 -2.81,0.332 -2.8,0.488 -2.81,0.664 -2.47,0.821 -7.42,1.984 -3.63,1.317 -2.15,0.988 -3.13,1.816 -1.98,1.485 -2.14,1.484 -2.31,1.484 -4.29,3.633 -1.98,1.981 -1.82,2.14 -1.81,2.481 -1.48,2.304 -1.33,2.305 -1.15,2.313 -1.65,3.468 -2.47,6.922 -1.16,3.301 -1.65,4.953 -0.32,2.469 -0.17,3.789 0.17,2.48 0.16,2.637 v 2.805 l 0.33,5.605 0.17,2.645 0.49,2.473 0.66,3.632 0.66,2.469 0.82,2.471 0.83,2.31 1.15,3.31 1.16,2.3 1.15,2.48 1.32,2.47 1.49,2.47 1.48,2.32 1.65,2.13 1.81,2.32 1.99,2.14 1.97,1.81 2.15,1.82 1.98,1.65 5.28,3.62 2.14,1.33 2.31,1.32 4.95,2.31 2.8,0.98 2.64,0.83 5.61,1.32 2.8,0.5 2.81,0.32 5.11,0.33 3.63,0.33 2.47,-0.16 3.63,-0.17 6.1,-0.82 2.31,-0.49 3.8,-0.66 5.77,-1.65 2.31,-0.99 3.63,-2.15 2.31,-1.31 4.29,-2.97 5.11,-3.63 1.82,-1.32 0.98,-0.83 1.16,-1.15 0.33,-1.32 -0.16,-1.32 -0.99,-1.32 -1.49,-1.82 -1.82,-1.81 -1.81,-1.65 -1.81,-1.49 -1.82,-1.81 -2.8,-3.3 -1.81,-1.98 -0.83,-0.82 -1.48,-1.33 -1.16,-0.48 -1.15,-0.17 -1.16,0.33 -1.81,0.99 -3.14,2.3 -2.14,1.16 -3.63,1.66 -2.31,0.82 -3.63,0.98 -2.47,0.5 -4.13,0.33 h -2.63 l -3.64,-0.33 -2.63,-0.66 -3.63,-1.16 -2.48,-0.98 -2.14,-0.83 -3.3,-1.64 -2.31,-1.65 -1.15,-1 -1.99,-2.14 -1.48,-2.31 -1.15,-2.141 -1.16,-2.316 -0.99,-2.469 -0.82,-2.637 -0.49,-2.812 -0.34,-2.473 -0.33,-4.949 v -2.637 l 0.17,-4.121 0.16,-2.473 0.83,-3.797 0.82,-2.472 1.16,-2.801 1.31,-2.48 2.48,-3.625 1.82,-1.981 3.13,-2.637 2.15,-1.484 3.29,-1.652 2.48,-0.996 3.62,-0.985 2.65,-0.5 3.96,-0.164 h 3.79 l 2.3,0.496 1.33,0.332 2.47,0.821 4.12,1.484 2.64,1.164 2.48,1.152 2.14,1.153 3.14,1.98 2.14,1.653 1.65,1.152 0.99,0.332 1.48,-0.332 1.82,-1.152 1.81,-1.653 0.66,-0.996 1.65,-1.805 2.64,-3.3 1.65,-1.985 4.45,-5.105 1.49,-1.985 0.82,-0.828 0.83,-1.484 z m -124.57,0.5 -0.16,-2.649 -0.66,-8.906 -0.17,-1.649 -0.66,-1.152 -0.82,-0.656 -21.61,-0.664 h -2.64 l -8.74,0.664 -2.64,-0.164 -8.58,-0.664 -2.64,-0.168 h -11.38 l -8.58,0.664 h -2.64 l -14.18,-0.828 -5.61,0.332 -1.98,0.332 -1.16,0.82 -0.49,1.16 -0.33,1.809 -0.33,3.797 -0.17,2.636 0.17,2.481 v 2.473 l 0.66,8.738 v 2.637 l 0.17,8.75 -0.17,2.636 -0.49,8.742 -0.17,2.637 0.33,8.906 v 14.024 l 0.66,8.738 -0.16,2.65 -0.5,8.74 -0.16,2.63 v 3.96 l 0.32,4.95 v 2.47 l 0.5,8.58 0.16,2.31 0.5,1.32 0.83,0.66 1.31,0.17 2.15,0.33 10.72,-0.66 10.06,0.16 h 2.64 l 9.9,-0.66 h 2.64 l 9.89,0.66 h 2.64 l 22.44,-0.33 2.8,0.17 5.61,0.5 h 4.12 l 2.31,-0.5 0.99,-0.82 0.33,-1.16 0.33,-2.15 v -4.45 l -0.33,-4.13 v -2.8 l 0.16,-4.12 0.17,-2.47 -0.17,-2.48 -0.32,-1.98 -0.66,-1.16 -0.83,-0.65 -1.98,-0.33 h -1.32 l -2.63,-0.17 -15.51,0.33 h -2.64 l -8.41,-0.33 h -2.64 l -8.58,0.33 -7.42,0.5 h -2.48 l -1.31,-0.17 -1.65,-0.33 -0.83,-0.82 -0.17,-1 -0.32,-1.81 -0.33,-3.96 v -2.63 l 0.16,-2.807 0.17,-1.816 0.32,-1.153 0.66,-0.828 1.82,-0.5 5.28,-0.32 5.28,0.32 h 15.67 l 18.47,0.996 5.11,-0.332 1.82,-0.332 0.99,-0.82 0.49,-0.996 0.17,-1.805 0.33,-2.812 0.16,-2.805 v -5.437 l 0.33,-3.801 -0.33,-4.942 -0.33,-1.98 -0.66,-1.152 -1.15,-0.833 -1.65,-0.32 h -3.3 l -7.42,0.82 -2.64,0.165 -13.2,-0.829 -10.55,0.332 h -2.65 l -6.59,0.497 -2.8,-0.165 -1.99,-0.167 -0.82,-0.497 -0.5,-1.152 -0.16,-2.473 -0.49,-4.121 -0.17,-2.644 v -3.625 l 0.17,-1.649 0.49,-1.152 0.66,-0.664 1.81,-0.168 9.08,-0.332 h 2.64 l 8.9,0.664 11.71,-0.664 h 2.64 l 11.71,0.664 h 2.48 l 2.47,-0.164 5.94,-0.656 0.99,-0.496 0.66,-0.989 0.16,-1.816 z m -113.51,-7.754 -0.17,-2.637 v -1.484 l -0.49,-1.985 -0.99,-1.152 -1.16,-0.496 -1.65,-0.332 h -1.32 l -2.3,-0.168 -18.32,0.996 h -12.37 l -14.84,-0.996 -9.57,0.664 h -12.2 l -7.59,-0.496 h -2.48 l -2.31,0.164 -1.81,0.332 -1.16,0.656 -0.82,0.996 -0.33,1.973 v 2.644 l 0.83,6.27 0.16,2.473 -0.66,8.738 v 2.637 l 0.33,8.75 v 2.636 l 0.33,20.117 v 2.649 l -0.66,20.121 v 2.64 l -0.16,8.74 v 14.03 l -0.33,4.94 v 2.48 l 0.16,1.48 0.49,2.14 0.66,1 1.16,0.48 1.81,0.34 h 1.33 l 2.47,0.16 8.08,-0.5 h 2.64 l 11.71,0.17 h 1.65 l 1.16,-0.65 0.82,-1.16 v -14.35 l 0.33,-9.57 v -2.64 l -0.5,-9.57 v -2.64 l 0.34,-9.567 v -2.637 l 0.49,-9.57 v -2.637 l -0.99,-21.765 0.16,-1.653 0.17,-0.828 0.33,-0.82 0.82,-0.664 1.99,-0.324 5.6,-0.332 4.95,0.332 h 2.64 l 23.75,0.324 2.64,0.164 5.61,0.664 2.64,0.168 h 2.47 l 1.98,-0.5 1.16,-0.984 0.49,-1.164 0.17,-1.805 0.16,-9.238 0.16,-2.649 z m -115.51,4.785 0.33,-4.133 0.17,-2.469 -0.17,-2.304 -0.82,-2.149 -1.16,-1.152 -1.81,-0.168 -2.64,-0.332 -8.91,0.5 h -2.64 l -8.74,-0.664 h -2.64 l -2.31,0.496 -0.99,1.32 -0.33,2.305 -0.66,10.723 -0.16,2.644 0.33,10.723 v 2.636 l -0.33,10.559 v 2.305 l -0.66,1.316 -1.81,0.664 h -3.96 l -6.6,-0.496 -2.64,-0.168 -13.2,0.332 -8.91,0.5 -2.14,-0.168 -1.48,-0.496 -0.83,-1.484 -0.16,-2.305 0.16,-10.559 v -2.636 l -0.33,-10.723 0.17,-2.644 0.66,-7.09 v -3.789 l -0.66,-2.317 -1.49,-1.316 -2.14,-0.5 -2.47,-0.164 -2.48,0.164 -6.93,0.664 -2.64,0.168 -7.75,-0.5 -2.64,0.168 h -1.32 l -1.81,0.332 -1.32,0.652 -0.66,0.832 -0.33,1.817 -0.17,1.484 v 2.637 l 0.33,4.949 v 13.848 l 0.33,8.75 v 2.636 l 0.17,8.742 v 2.637 l -0.5,8.738 v 2.649 l -0.16,8.738 V 1003 l 0.16,2.64 0.5,8.74 0.16,2.64 -0.16,8.74 -0.17,2.65 -0.82,5.6 v 3.47 l 0.66,1.97 1.48,1.15 2.14,0.5 2.48,0.17 h 2.48 l 6.92,-0.34 h 2.64 l 6.6,0.5 h 2.64 l 2.48,-0.16 2.14,-0.34 1.32,-1.31 0.66,-2.14 0.16,-1.16 v -2.48 l -0.49,-7.42 -0.17,-2.63 -0.16,-10.73 v -13.521 l 0.16,-1.984 0.5,-1.317 0.82,-0.664 1.65,-0.168 2.31,-0.156 h 2.31 l 6.27,0.988 2.47,0.164 10.56,-0.332 9.73,-0.664 h 2.48 l 1.15,0.168 1.81,0.996 0.66,1.317 0.17,1.816 0.66,10.717 v 2.64 l -0.33,10.73 v 2.63 l -0.17,10.72 0.5,2.64 1.32,1.49 1.98,0.33 h 2.64 l 8.9,-0.5 h 2.64 l 7.43,0.5 2.63,-0.17 h 1.49 l 2.14,-0.33 1.32,-1.32 0.66,-2.3 V 1035 l -0.49,-6.59 -0.17,-2.65 0.5,-8.74 v -2.64 l -0.33,-8.74 V 1003 l 0.66,-8.746 v -2.637 l -0.66,-8.738 v -2.649 l -0.33,-8.738 v -2.637 l 0.16,-8.742 v -2.636 l -0.16,-8.75 v -11.375 z m -124.574,2.469 -1.316,-1.317 -2.969,-2.637 -1.977,-1.484 -3.136,-2.316 -1.981,-1.317 -3.297,-1.816 -2.144,-1.152 -3.793,-1.817 -2.477,-0.82 -2.801,-0.832 -2.808,-0.488 -4.121,-0.829 -5.778,-0.656 -2.968,-0.164 -4.121,-0.332 h -8.579 l -2.8,0.164 -2.805,0.332 -2.809,0.488 -2.8,0.664 -2.477,0.821 -7.422,1.984 -3.629,1.317 -2.14,0.988 -3.137,1.816 -1.977,1.485 -2.144,1.484 -2.309,1.484 -4.293,3.633 -1.976,1.981 -1.817,2.14 -1.812,2.481 -1.485,2.304 -1.324,2.305 -1.152,2.313 -1.649,3.468 -2.476,6.922 -1.152,3.301 -1.653,4.953 -0.324,2.469 -0.168,3.789 0.168,2.48 0.16,2.637 v 2.805 l 0.332,5.605 0.164,2.645 0.496,2.473 0.66,3.632 0.657,2.469 0.828,2.471 0.824,2.31 1.156,3.31 1.153,2.3 1.156,2.48 1.32,2.47 1.485,2.47 1.484,2.32 1.648,2.13 1.813,2.32 1.98,2.14 1.981,1.81 2.14,1.82 1.985,1.65 5.277,3.62 2.145,1.33 2.308,1.32 4.95,2.31 2.8,0.98 2.641,0.83 5.605,1.32 2.809,0.5 2.805,0.32 5.109,0.33 3.629,0.33 2.477,-0.16 3.625,-0.17 6.105,-0.82 2.309,-0.49 3.796,-0.66 5.77,-1.65 2.309,-0.99 3.632,-2.15 2.305,-1.31 4.293,-2.97 5.113,-3.63 1.817,-1.32 0.984,-0.83 1.156,-1.15 0.329,-1.32 -0.161,-1.32 -0.992,-1.32 -1.484,-1.82 -1.817,-1.81 -1.808,-1.65 -1.821,-1.49 -1.812,-1.81 -2.805,-3.3 -1.812,-1.98 -0.824,-0.82 -1.485,-1.33 -1.156,-0.48 -1.152,-0.17 -1.161,0.33 -1.808,0.99 -3.137,2.3 -2.14,1.16 -3.633,1.66 -2.309,0.82 -3.633,0.98 -2.468,0.5 -4.125,0.33 h -2.637 l -3.633,-0.33 -2.637,-0.66 -3.629,-1.16 -2.476,-0.98 -2.145,-0.83 -3.3,-1.64 -2.309,-1.65 -1.152,-1 -1.981,-2.14 -1.484,-2.31 -1.153,-2.141 -1.16,-2.316 -0.984,-2.469 -0.824,-2.637 -0.496,-2.812 -0.332,-2.473 -0.333,-4.949 v -2.637 l 0.168,-4.121 0.165,-2.473 0.828,-3.797 0.824,-2.472 1.152,-2.801 1.324,-2.48 2.469,-3.625 1.817,-1.981 3.136,-2.637 2.145,-1.484 3.293,-1.652 2.476,-0.996 3.629,-0.985 2.641,-0.5 3.961,-0.164 h 3.793 l 2.308,0.496 1.321,0.332 2.468,0.821 4.125,1.484 2.645,1.164 2.469,1.152 2.144,1.153 3.137,1.98 2.141,1.653 1.652,1.152 0.988,0.332 1.489,-0.332 1.808,-1.152 1.817,-1.653 0.66,-0.996 1.648,-1.805 2.645,-3.3 1.644,-1.985 4.453,-5.105 1.485,-1.985 0.824,-0.828 0.824,-1.484 z m -121.273,21.933 -0.164,-2.801 -0.329,-2.804 -0.5,-2.637 -0.824,-3.633 -0.824,-2.304 -1.484,-3.301 -1.153,-2.137 -1.976,-2.98 -1.653,-1.973 -1.98,-1.981 -1.981,-1.816 -3.296,-2.141 -2.145,-1.484 -2.476,-1.316 -2.305,-1.164 -3.793,-1.317 -4.953,-1.652 -2.637,-0.488 -4.125,-0.665 -2.477,-0.332 -3.628,-0.32 -2.309,-0.168 -3.793,-0.164 -7.914,-0.5 h -3.629 l -2.309,0.168 -3.796,0.332 -2.473,0.332 -2.805,0.488 -2.472,0.829 -3.629,1.152 -2.313,1.152 -2.473,1.153 -2.308,1.164 -2.145,1.316 -5.281,3.625 -1.976,1.648 -2.969,2.317 -1.981,1.648 -1.812,1.809 -1.324,1.484 -0.161,1.16 0.825,1.485 0.66,0.82 1.644,1.817 4.621,4.289 1.485,1.816 2.805,4.285 1.488,1.817 1.644,1.816 1.817,0.988 1.816,-0.332 1.813,-1.32 5.277,-3.633 2.477,-1.316 2.308,-1.153 3.793,-1.816 2.477,-0.82 2.636,-0.832 2.641,-0.489 3.793,-0.164 2.637,-0.168 10.39,0.664 2.645,0.325 1.316,0.332 2.477,0.984 2.14,1.328 1.653,1.641 0.824,1.164 0.988,2.469 -0.164,2.804 -0.332,1.317 -1.316,2.316 -0.824,0.984 -2.145,1.653 -1.324,0.496 -2.469,0.988 -2.809,0.664 -2.8,0.488 -15.672,1.485 -4.949,0.996 -2.637,0.652 -3.629,1.321 -2.477,0.828 -2.472,1.152 -5.61,2.805 -2.14,1.484 -2.477,1.484 -2.144,1.485 -2.805,2.312 -1.484,2.141 -1.489,2.48 -0.984,2.469 -1.156,3.469 -0.492,2.469 -0.497,3.635 -0.332,5.27 0.168,2.64 0.328,3.96 0.497,2.48 0.66,2.14 0.824,2.47 1.648,3.64 1.157,2.3 1.316,1.98 1.648,1.82 2.645,2.47 2.145,1.65 2.14,1.49 2.313,1.15 3.132,1.81 4.946,1.99 2.476,0.82 3.793,0.66 2.637,0.49 4.953,0.66 3.625,0.66 2.641,0.33 2.472,0.16 h 2.645 l 4.945,-0.49 2.477,-0.33 1.148,-0.33 2.645,-0.33 5.605,-0.98 2.809,-0.67 2.637,-0.82 2.8,-0.83 2.641,-0.99 2.477,-1.15 2.468,-0.99 3.137,-1.81 2.309,-1.16 2.144,-1.49 1.485,-1.48 v -1.65 l -0.989,-1.81 -1.812,-3.3 -1.321,-1.98 -6.269,-8.25 -1.816,-2.31 -1.977,-1.65 -1.32,-0.5 -1.157,0.17 -1.644,0.83 -2.477,1.48 -2.476,0.99 -1.153,0.5 -2.472,0.82 -1.321,0.33 -2.808,0.66 -3.793,0.83 -2.637,0.16 -4.285,0.33 h -4.293 l -2.805,-0.16 -2.8,-0.5 -2.641,-0.82 -0.988,-0.5 -1.985,-1.48 -0.824,-0.99 -1.152,-2.31 -0.332,-2.64 0.5,-2.15 1.316,-2.14 1.813,-1.65 1.984,-0.987 1.148,-0.496 2.477,-0.5 4.129,-0.488 5.601,-0.332 2.805,-0.496 5.609,-1.321 5.282,-1.648 3.793,-0.82 2.472,-0.664 4.618,-1.653 3.3,-1.484 2.309,-1.153 2.309,-1.316 2.144,-1.32 4.785,-3.965 1.813,-1.973 1.648,-1.98 1.985,-2.969 1.316,-2.148 1.152,-2.473 0.66,-2.469 0.664,-3.633 0.329,-2.472 z m -117.309,-21.433 -0.168,-2.649 -0.656,-8.906 -0.168,-1.649 -0.656,-1.152 -0.828,-0.656 -21.606,-0.664 h -2.641 l -8.742,0.664 -2.64,-0.164 -8.575,-0.664 -2.64,-0.168 h -11.383 l -8.574,0.664 h -2.641 l -14.183,-0.828 -5.614,0.332 -1.976,0.332 -1.157,0.82 -0.496,1.16 -0.324,1.809 -0.332,3.797 -0.168,2.636 0.168,2.481 v 2.473 l 0.656,8.738 v 2.637 l 0.168,8.75 -0.168,2.636 -0.492,8.742 -0.164,2.637 0.332,8.906 v 14.024 l 0.656,8.738 -0.164,2.65 -0.492,8.74 -0.168,2.63 v 3.96 l 0.328,4.95 v 2.47 l 0.496,8.58 0.164,2.31 0.497,1.32 0.828,0.66 1.316,0.17 2.145,0.33 10.722,-0.66 10.063,0.16 h 2.636 l 9.899,-0.66 h 2.637 l 9.894,0.66 h 2.645 l 22.429,-0.33 2.805,0.17 5.609,0.5 h 4.122 l 2.308,-0.5 0.992,-0.82 0.332,-1.16 0.328,-2.15 v -4.45 l -0.328,-4.13 v -2.8 l 0.16,-4.12 0.168,-2.47 -0.168,-2.48 -0.328,-1.98 -0.656,-1.16 -0.824,-0.65 -1.984,-0.33 h -1.321 l -2.637,-0.17 -15.503,0.33 h -2.637 l -8.414,-0.33 h -2.645 l -8.57,0.33 -7.426,0.5 h -2.472 l -1.321,-0.17 -1.648,-0.33 -0.824,-0.82 -0.168,-1 -0.329,-1.81 -0.332,-3.96 v -2.63 l 0.168,-2.807 0.164,-1.816 0.329,-1.153 0.66,-0.828 1.816,-0.5 5.277,-0.32 5.278,0.32 h 15.672 l 18.472,0.996 5.114,-0.332 1.812,-0.332 0.992,-0.82 0.493,-0.996 0.167,-1.805 0.333,-2.812 0.164,-2.805 v -5.437 l 0.328,-3.801 -0.328,-4.942 -0.332,-1.98 -0.661,-1.152 -1.156,-0.833 -1.644,-0.32 h -3.301 l -7.422,0.82 -2.645,0.165 -13.191,-0.829 -10.559,0.332 h -2.64 l -6.598,0.497 -2.801,-0.165 -1.98,-0.167 -0.82,-0.497 -0.5,-1.152 -0.164,-2.473 -0.497,-4.121 -0.164,-2.644 v -3.625 l 0.164,-1.649 0.497,-1.152 0.664,-0.664 1.808,-0.168 9.074,-0.332 h 2.641 l 8.906,0.664 11.707,-0.664 h 2.645 l 11.707,0.664 h 2.476 l 2.477,-0.164 5.937,-0.656 0.985,-0.496 0.664,-0.989 0.164,-1.816 z M 643.746,989.801 643.91,987 643.254,976.277 V 960.77 l -0.332,-6.926 v -9.735 l -0.168,-1.808 -0.984,-1.649 -1.325,-2.148 -1.484,-2.141 -2.805,-2.812 -1.976,-1.805 -0.992,-0.996 -2.141,-1.484 -1.16,-0.657 -2.145,-1.316 -3.293,-1.652 -2.476,-0.996 -2.309,-0.821 -3.797,-1.152 -2.472,-0.664 -2.637,-0.496 -2.477,-0.489 -3.793,-0.5 -2.308,-0.332 -2.477,-0.488 -6.598,-0.828 -2.476,-0.168 -5.109,0.332 -3.797,0.332 -2.637,0.332 -2.641,0.488 -2.468,0.664 -5.778,1.653 -2.472,0.652 -2.473,0.832 -3.305,1.153 -2.14,1.152 -3.301,1.816 -1.981,1.485 -2.14,1.484 -1.985,1.648 -1.976,1.485 -1.813,1.652 -2.64,2.637 -1.653,1.98 -1.808,2.473 -1.485,2.313 -4.129,7.421 -1.152,2.637 -1.156,2.473 -0.824,2.644 -0.825,2.805 -0.496,2.637 -0.492,2.801 -0.332,2.636 -0.656,3.633 -0.332,2.637 -0.164,2.48 v 2.473 l 0.496,7.422 0.324,1.316 0.5,2.805 0.656,2.801 0.828,2.648 0.825,2.801 0.824,2.64 0.824,2.47 1.152,2.64 1.161,2.81 1.152,2.3 2.144,2.97 1.485,1.98 1.812,2.15 1.813,1.97 1.984,1.82 4.285,3.63 2.145,1.66 1.98,1.48 1.981,1.32 5.441,3.13 2.473,1.49 2.809,1.15 2.8,0.82 2.645,0.66 6.097,0.99 4.786,0.66 2.472,0.49 2.477,0.33 3.789,0.33 2.641,0.17 3.628,-0.33 2.477,-0.17 3.793,-0.49 2.312,-0.49 3.625,-0.67 2.477,-0.65 3.629,-1.15 2.477,-0.83 5.933,-2.97 2.473,-1.49 2.148,-1.48 0.824,-0.5 1.813,-1.15 1.816,-1.32 0.825,-0.82 1.812,-1.33 0.992,-0.82 0.989,-1.15 v -1.15 l -0.497,-1.17 -0.988,-1.48 -1.48,-2.14 -1.653,-1.81 -4.621,-4.63 -2.969,-2.63 -1.98,-1.65 -1.812,-1.32 -1.317,-1 -0.992,-0.65 -1.316,-0.17 -1.821,1.16 -2.14,1.48 -2.145,1.32 -2.309,1.32 -2.64,1.16 -2.641,0.98 -2.804,0.67 -2.805,0.49 -7.754,0.5 h -1.152 l -2.637,-0.17 -4.289,-0.33 -2.641,-0.66 -4.949,-2.31 -2.145,-1.49 -2.14,-1.64 -1.821,-1.82 -1.644,-2.14 -1.484,-2.15 -1.325,-2.3 -0.984,-2.485 -0.824,-2.637 -0.66,-2.468 -0.993,-4.954 -0.492,-2.636 -0.168,-2.801 v -2.805 l 0.328,-3.965 0.5,-2.636 0.825,-3.789 0.82,-2.645 1.648,-3.957 1.161,-2.312 1.976,-2.969 1.649,-1.973 2.968,-2.805 2.145,-1.648 3.301,-1.816 2.472,-0.989 4.949,-1.16 2.805,-0.332 2.801,-0.156 h 2.641 l 2.644,0.32 2.469,0.5 8.906,2.149 2.645,0.984 2.472,1.152 1.649,1.153 0.496,0.996 v 1.816 l 0.168,1.485 v 2.472 l -0.332,4.949 v 2.805 l -0.66,0.985 -1.817,0.332 h -3.957 l -2.64,-0.165 -3.793,-0.5 -2.637,-0.164 h -3.793 l -2.645,0.164 -5.605,0.997 -0.988,0.332 -0.661,0.82 -0.332,1.984 -0.168,1.317 -0.16,2.636 0.16,4.122 -0.328,4.953 -0.332,2.468 v 3.469 l 0.5,1.817 0.824,0.82 1.981,0.332 4.117,0.496 2.809,0.168 h 7.59 l 10.714,0.488 13.2,-0.82 h 2.636 l 6.766,0.82 2.641,0.164 1.316,-0.164 2.477,-0.488 1.152,-0.664 0.332,-0.988 0.492,-2.313 z M 2254.14,668.48 l -7.63,-20.039 -0.95,-2.382 -2.71,-8.899 -0.96,-2.39 -3.8,-8.899 -0.8,-2.391 -2.54,-8.898 -0.96,-2.543 -3.98,-8.269 -0.95,-2.54 -2.54,-9.058 -0.8,-2.402 -4.13,-8.739 -0.79,-2.383 -2.87,-8.91 -0.8,-2.547 -2.7,-8.89 -0.64,-1.59 -0.79,-0.801 -1.11,-0.16 -10.65,0.32 -12.41,0.789 -1.59,0.321 -0.79,1.269 -3.97,7.801 -0.81,2.219 -2.86,8.269 -0.63,2.223 -2.86,8.121 -0.79,2.207 -3.19,8.121 -0.94,2.231 -2.88,7.937 -0.79,1.434 h -0.48 l -0.63,-1.434 -2.86,-8.109 -0.79,-2.219 -3.82,-7.629 -0.8,-2.23 -2.54,-8.43 -0.79,-2.223 -2.71,-8.109 -0.95,-2.231 -3.02,-7.949 -0.8,-1.738 -1.75,-0.801 -9.85,0.801 h -2.55 l -9.86,-0.801 -1.43,0.801 -0.64,1.898 -4.45,8.582 -0.79,2.399 -2.23,9.058 -0.79,2.383 -3.97,8.91 -0.96,2.379 -3.34,8.59 -0.79,2.539 -2.71,9.071 -0.8,2.378 -7.95,20.032 -0.94,2.379 -2.86,8.91 -1.12,2.551 -3.97,8.261 -1.12,2.391 -3.66,9.058 -0.15,1.911 0.95,1.109 1.75,0.48 h 2.38 l 6.21,-0.48 h 2.53 l 10.98,-0.16 h 8.58 l 2.08,-0.16 0.63,-0.641 0.31,-1.59 3.66,-10.488 0.8,-2.379 3.18,-10.172 0.79,-2.398 4.13,-9.532 0.8,-2.39 3.18,-9.699 0.47,-2.539 1.92,-10.024 0.63,-1.43 0.96,-0.16 0.95,1.274 2.7,8.117 0.79,2.223 2.07,8.429 0.64,2.379 2.38,7.801 0.65,2.379 2.69,8.262 0.64,2.23 2.54,8.27 0.8,2.23 2.39,6.828 0.63,1.75 0.79,0.789 1.75,0.321 7.95,0.64 2.38,0.149 3.51,-0.149 h 2.38 l 2.39,-0.16 1.59,-0.629 0.95,-1.601 0.47,-1.27 0.96,-2.219 1.75,-4.449 0.8,-2.23 2.38,-8.27 0.64,-2.23 2.54,-8.262 0.64,-2.231 1.9,-8.429 0.8,-2.219 3.81,-7.789 0.64,-2.231 0.48,-3.652 0.48,-2.551 0.63,-2.386 0.96,-1.274 0.94,0.16 0.81,1.75 1.9,9.231 0.63,2.383 1.28,3.339 0.8,2.379 1.26,3.5 0.81,2.551 1.58,7.469 0.8,2.539 2.7,7.16 0.95,2.383 3.03,7.16 0.79,2.379 1.59,6.039 0.64,1.91 0.95,1.11 1.91,0.32 8.42,-0.641 h 2.54 l 8.6,0.481 h 2.54 l 8.42,-0.641 h 1.75 l 0.64,-0.469 z m -220.21,-50.41 3.5,0.649 2.06,0.793 1.92,1.109 1.58,1.91 1.11,2.391 0.65,2.539 0.15,2.539 -0.15,2.699 -0.33,2.711 -0.63,2.379 -1.11,2.383 -1.44,1.918 -1.75,1.422 -2.22,0.957 -3.5,0.801 -2.54,0.308 -7.95,0.16 h -2.55 l -8.1,-0.468 -1.92,-0.168 -1.11,-0.473 -0.95,-0.949 -0.16,-1.75 0.16,-3.66 0.31,-2.54 0.33,-2.71 0.15,-2.7 -0.31,-8.738 0.16,-1.762 0.31,-0.949 1.11,-0.473 1.92,-0.328 8.26,-0.629 h 2.55 z m 48.18,-61.211 -2.07,-0.629 h -11.13 l -8.74,0.149 h -2.55 l -7.15,-0.309 h -2.07 l -1.43,0.641 -1.28,1.269 -5.08,7.149 -1.43,1.91 -5.09,6.832 -1.43,1.918 -4.46,7.313 -1.42,1.91 -5.09,6.828 -1.11,1.269 -0.96,0.481 -1.91,0.16 -5.08,0.32 -2.07,-0.16 -1.27,-0.949 -0.48,-2.07 -0.32,-8.743 0.16,-2.546 0.64,-8.903 0.15,-2.551 0.16,-3.82 v -2.539 l -0.16,-2.539 -0.31,-1.91 -0.8,-0.789 -1.75,-0.481 h -2.54 l -7.63,0.481 -7.32,-0.481 h -2.54 l -7.31,0.481 -1.92,0.308 -0.94,0.641 -0.33,1.59 -0.15,2.23 -0.16,2.379 0.31,4.141 0.16,2.539 0.64,8.582 v 2.551 l -0.47,8.578 -0.17,2.539 -0.16,8.43 v 2.55 l 0.48,8.582 v 2.547 l -0.48,8.594 v 2.539 l 0.48,8.578 V 637 l 0.32,8.43 v 2.539 l -0.16,8.582 v 2.551 l -0.31,5.238 0.15,2.39 0.16,0.95 0.48,2.07 0.96,1.27 1.9,0.48 1.27,0.16 2.39,0.149 7.15,-0.309 18.93,-0.629 10.81,0.629 h 2.54 l 10.49,-0.629 h 6.05 l 2.69,-0.172 2.4,-0.469 3.33,-0.96 2.39,-0.79 2.38,-0.949 2.54,-0.961 2.39,-1.109 2.06,-1.27 3.03,-2.07 1.75,-1.43 1.59,-1.589 1.58,-1.911 2.23,-3.179 1.44,-2.071 1.9,-3.019 1.11,-2.223 1.12,-2.39 0.8,-2.547 0.47,-2.532 0.16,-2.55 0.31,-3.5 v -2.539 l -0.15,-2.551 -0.32,-2.699 -0.47,-2.7 -0.65,-2.55 -0.95,-2.379 -1.11,-2.383 -1.43,-2.391 -1.43,-2.066 -1.44,-1.91 -1.42,-1.75 -2.55,-2.543 -1.75,-1.43 -3.18,-1.75 -1.91,-1.109 -2.07,-1.121 -2.06,-0.481 -1.28,-0.457 0.65,-1.281 5.72,-8.11 1.43,-1.898 5.72,-7.801 1.59,-1.91 5.72,-7.949 1.6,-1.902 4.93,-5.731 1.42,-1.738 0.8,-1.75 z m -128.79,89.2 -0.17,-2.547 v -23.524 l 0.48,-9.226 v -2.543 l 0.33,-20.989 v -2.699 l -0.16,-1.269 -0.17,-2.711 -0.48,-7.621 0.17,-9.231 -0.17,-2.23 -0.63,-1.899 -1.27,-1.75 -1.59,-1.109 -1.43,-0.481 -2.22,-0.16 -8.12,-0.32 -2.54,-0.16 -3.97,-0.149 h -2.55 l -2.06,0.469 -1.92,0.801 -1.9,1.418 -1.43,2.07 -2.39,4.61 -1.42,2.07 -6.21,7.793 -1.59,1.91 -6.2,7.637 -1.43,2.062 -5.56,8.27 -1.44,1.898 -6.2,7.641 -1.59,1.898 -5.88,7.801 -1.43,1.27 -1.12,-0.477 -0.47,-1.91 -0.32,-7.953 v -2.547 l 0.16,-7.942 v -2.539 l 0.16,-8.91 v -2.551 l -0.47,-8.902 0.15,-2.539 0.96,-6.359 0.15,-2.551 -0.47,-2.059 -1.12,-1.109 -1.11,-0.332 -1.9,-0.309 -1.27,-0.16 -2.71,-0.16 -7.31,0.16 h -2.55 l -6.52,-0.32 h -2.54 l -2.39,0.16 -1.75,0.32 -1.27,0.789 -0.63,1.121 -0.32,1.59 -0.16,1.11 v 2.379 l 0.31,5.25 0.17,2.55 -0.48,8.422 v 2.539 l 0.31,19.41 0.17,2.54 0.47,8.421 0.16,2.547 v 10.973 l -0.63,8.43 v 2.539 l 0.63,8.422 -0.16,2.546 -0.64,8.59 -0.15,2.543 v 3.66 l 0.15,2.379 0.33,2.379 0.31,1.75 0.48,1.121 0.95,0.469 1.75,0.332 4.78,0.309 4.76,-0.309 h 11.93 l 1.9,-0.172 0.8,-0.629 0.96,-1.429 6.67,-7.161 1.59,-1.898 5.89,-7.641 1.58,-1.902 5.89,-7.801 1.59,-1.898 5.72,-7.949 1.43,-1.911 6.05,-7.628 1.59,-1.922 5.72,-7.942 1.27,-1.117 1.27,-0.152 1.11,0.801 v 1.742 l -1.11,6.668 -0.16,2.55 0.48,6.84 v 2.551 l -0.63,9.699 v 2.532 l 0.63,9.699 -0.16,2.551 -0.47,5.878 v 3.969 l 0.47,2.071 0.64,1.269 1.11,0.641 1.91,0.32 h 1.43 l 2.7,0.16 7.16,-0.48 h 2.55 l 5.4,0.32 2.38,-0.16 3.66,-0.16 1.75,-0.309 1.11,-0.48 0.96,-1.121 0.31,-2.219 0.16,-1.43 0.16,-2.699 -0.32,-4.934 -0.31,-2.539 z m 300.64,125.992 -0.19,-3.153 -0.37,-3.136 -0.56,-2.961 -0.92,-4.063 -0.92,-2.597 -1.67,-3.692 -1.29,-2.41 -2.22,-3.32 -1.86,-2.231 -2.21,-2.218 -2.22,-2.032 -3.7,-2.398 -2.4,-1.668 -2.78,-1.481 -2.58,-1.293 -4.26,-1.476 -5.55,-1.852 -2.96,-0.558 -4.62,-0.731 -2.78,-0.371 -4.06,-0.379 -2.59,-0.179 -4.26,-0.192 -8.87,-0.551 h -4.07 l -2.59,0.18 -4.25,0.371 -2.78,0.371 -3.14,0.559 -2.77,0.922 -4.08,1.297 -2.58,1.293 -2.78,1.296 -2.59,1.293 -2.4,1.481 -5.92,4.066 -2.22,1.852 -3.32,2.582 -2.23,1.859 -2.03,2.028 -1.49,1.66 -0.17,1.301 0.92,1.66 0.74,0.929 1.84,2.032 5.19,4.808 1.66,2.039 3.15,4.801 1.66,2.043 1.85,2.027 2.03,1.121 2.03,-0.378 2.04,-1.481 5.92,-4.062 2.78,-1.489 2.58,-1.289 4.25,-2.043 2.78,-0.906 2.96,-0.934 2.96,-0.558 4.25,-0.18 2.96,-0.191 11.65,0.742 2.96,0.367 1.48,0.371 2.78,1.11 2.4,1.48 1.85,1.852 0.92,1.3 1.12,2.77 -0.19,3.141 -0.37,1.48 -1.48,2.59 -0.92,1.109 -2.42,1.848 -1.47,0.551 -2.77,1.121 -3.15,0.738 -3.14,0.543 -17.57,1.668 -5.55,1.109 -2.96,0.743 -4.07,1.48 -2.77,0.918 -2.78,1.301 -6.28,3.148 -2.41,1.66 -2.77,1.672 -2.4,1.66 -3.15,2.579 -1.67,2.421 -1.66,2.77 -1.11,2.769 -1.29,3.879 -0.56,2.77 -0.55,4.082 -0.37,5.91 0.18,2.957 0.37,4.453 0.56,2.77 0.74,2.398 0.92,2.781 1.85,4.059 1.29,2.602 1.49,2.211 1.84,2.027 2.96,2.781 2.41,1.852 2.4,1.66 2.6,1.297 3.5,2.031 5.56,2.219 2.77,0.929 4.25,0.743 2.96,0.55 5.55,0.739 4.07,0.742 2.96,0.367 2.77,0.191 h 2.96 l 5.55,-0.558 2.77,-0.371 1.3,-0.371 2.96,-0.371 6.29,-1.11 3.14,-0.738 2.96,-0.93 3.13,-0.91 2.96,-1.121 2.79,-1.301 2.77,-1.097 3.51,-2.043 2.59,-1.289 2.41,-1.668 1.66,-1.661 v -1.851 l -1.11,-2.039 -2.04,-3.692 -1.47,-2.218 -7.03,-9.25 -2.04,-2.59 -2.21,-1.852 -1.49,-0.551 -1.3,0.18 -1.84,0.934 -2.77,1.66 -2.78,1.109 -1.3,0.559 -2.77,0.922 -1.48,0.367 -3.14,0.742 -4.26,0.93 -2.96,0.187 -4.8,0.364 h -4.81 l -3.14,-0.18 -3.14,-0.563 -2.96,-0.918 -1.12,-0.562 -2.21,-1.66 -0.93,-1.11 -1.29,-2.589 -0.37,-2.961 0.55,-2.399 1.48,-2.41 2.03,-1.852 2.23,-1.097 1.29,-0.563 2.77,-0.558 4.63,-0.551 6.29,-0.379 3.13,-0.551 6.29,-1.48 5.92,-1.84 4.26,-0.93 2.77,-0.738 5.18,-1.852 3.7,-1.668 2.59,-1.293 2.58,-1.476 2.41,-1.481 5.37,-4.441 2.03,-2.219 1.84,-2.211 2.23,-3.332 1.48,-2.406 1.29,-2.773 0.74,-2.77 0.74,-4.07 0.37,-2.778 z m -137.09,63.058 -0.19,-2.949 v -27.379 l 0.56,-10.722 v -2.957 l 0.37,-24.411 v -3.152 l -0.19,-1.48 -0.18,-3.149 -0.56,-8.871 0.19,-10.73 -0.19,-2.579 -0.73,-2.218 -1.49,-2.043 -1.84,-1.289 -1.67,-0.559 -2.59,-0.18 -9.43,-0.371 -2.96,-0.191 -4.62,-0.188 h -2.96 l -2.4,0.559 -2.23,0.93 -2.22,1.66 -1.66,2.398 -2.77,5.371 -1.67,2.403 -7.21,9.07 -1.85,2.207 -7.21,8.883 -1.67,2.398 -6.47,9.621 -1.66,2.219 -7.22,8.879 -1.85,2.211 -6.84,9.07 -1.66,1.481 -1.3,-0.563 -0.55,-2.207 -0.37,-9.25 v -2.961 l 0.19,-9.25 v -2.961 l 0.18,-10.347 v -2.961 l -0.56,-10.36 0.19,-2.961 1.1,-7.39 0.19,-2.961 -0.56,-2.41 -1.29,-1.289 -1.3,-0.371 -2.21,-0.368 -1.48,-0.191 -3.14,-0.18 -8.51,0.18 h -2.96 l -7.58,-0.371 h -2.96 l -2.78,0.191 -2.03,0.371 -1.48,0.918 -0.74,1.289 -0.37,1.864 -0.18,1.289 v 2.769 l 0.37,6.102 0.18,2.957 -0.55,9.812 v 2.957 l 0.37,22.563 0.18,2.961 0.55,9.797 0.19,2.961 v 12.761 l -0.74,9.797 v 2.961 l 0.74,9.801 -0.19,2.961 -0.73,9.988 -0.19,2.961 v 4.25 l 0.19,2.77 0.36,2.769 0.37,2.051 0.56,1.281 1.11,0.559 2.03,0.371 5.55,0.367 5.55,-0.367 h 13.87 l 2.22,-0.18 0.93,-0.75 1.1,-1.66 7.78,-8.32 1.84,-2.219 6.85,-8.883 1.84,-2.219 6.85,-9.058 1.84,-2.223 6.66,-9.238 1.66,-2.223 7.04,-8.879 1.84,-2.211 6.66,-9.25 1.48,-1.296 1.48,-0.192 1.3,0.93 v 2.031 l -1.3,7.777 -0.18,2.954 0.55,7.949 v 2.961 l -0.74,11.277 V 834 l 0.74,11.281 -0.18,2.957 -0.56,6.844 v 4.617 l 0.56,2.422 0.74,1.469 1.29,0.738 2.21,0.371 h 1.67 l 3.15,0.192 8.32,-0.563 h 2.96 l 6.29,0.371 2.77,-0.179 4.26,-0.192 2.03,-0.367 1.29,-0.551 1.11,-1.289 0.37,-2.601 0.19,-1.661 0.18,-3.148 -0.37,-5.731 -0.37,-2.96 z m -206.64,-46.968 -0.74,2.398 -4.06,12.57 -0.93,2.789 -3.7,10.903 -0.93,2.41 -1.84,1.289 -2.4,0.551 -2.04,-0.551 -1.85,-1.852 -4.99,-12.566 -1.12,-2.781 -4.8,-12.379 -0.56,-2.781 0.56,-2.219 2.03,-0.922 2.59,-0.371 h 11.65 l 8.69,-0.559 2.41,0.739 1.48,1.48 z m 61.77,-52.161 0.56,-2.582 -1.3,-2.039 -2.03,-0.918 -2.4,-0.371 h -2.59 l -4.26,0.371 -2.77,0.18 h -8.32 l -11.47,-0.742 -2.4,0.93 -1.11,1.293 -0.93,2.039 -5.73,15.531 -1.29,1.848 -1.67,0.371 -2.22,0.191 -11.09,0.738 h -2.96 l -13.88,0.36 -11.09,0.191 h -2.78 l -2.77,-0.191 h -8.51 l -2.4,-0.36 -1.48,-0.929 -1.11,-2.219 -4.25,-12.57 -1.12,-2.961 -2.03,-2.403 -2.77,-0.929 h -2.96 l -10.72,0.55 h -2.96 l -11.47,-0.738 -2.41,-0.18 -2.22,1.11 -1.47,2.031 0.18,2.398 0.37,1.489 1.11,2.961 2.59,5.73 1.11,2.77 4.62,10.351 1.11,2.59 4.81,10.359 1.11,2.782 4.25,9.988 1.11,2.77 4.99,10.351 1.12,2.59 6.66,15.168 5.17,11.09 1.3,2.961 4.06,8.332 1.3,2.957 3.52,8.5 1.1,2.781 3.33,7.582 0.93,2.039 1.84,1.098 2.78,0.562 8.5,0.367 h 14.43 l 8.51,-0.187 3.14,-0.551 2.04,-1.48 0.92,-2.41 2.59,-7.211 1.11,-2.77 4.63,-8.687 1.1,-2.59 4.07,-9.063 1.12,-2.59 3.32,-9.437 1.11,-2.582 4.07,-8.879 1.11,-2.602 4.07,-9.05 1.11,-2.598 3.69,-9.242 1.12,-2.59 5.73,-11.469 4.43,-8.691 1.3,-2.59 4.99,-11.649 z m -209.39,67.321 2.41,0.929 2.22,1.29 1.84,2.218 1.3,2.774 0.74,2.957 0.19,2.961 -0.19,3.152 -0.37,3.137 -0.74,2.781 -1.3,2.77 -1.66,2.218 -2.03,1.672 -2.59,1.102 -4.07,0.929 -2.96,0.368 -9.25,0.179 h -2.96 l -9.43,-0.547 -2.22,-0.191 -1.3,-0.559 -1.1,-1.101 -0.18,-2.039 0.18,-4.25 0.37,-2.961 0.37,-3.141 0.18,-3.148 -0.36,-10.172 0.18,-2.027 0.36,-1.122 1.3,-0.539 2.22,-0.371 9.62,-0.75 h 2.96 l 12.2,0.75 z m 51.97,-71.942 -2.4,-0.738 h -12.95 l -10.17,0.188 h -2.96 l -8.33,-0.368 h -2.4 l -1.66,0.739 -1.48,1.468 -5.92,8.332 -1.66,2.219 -5.92,7.949 -1.67,2.223 -5.18,8.5 -1.66,2.231 -5.91,7.949 -1.3,1.469 -1.12,0.562 -2.21,0.18 -5.92,0.379 -2.4,-0.192 -1.48,-1.097 -0.55,-2.422 -0.37,-10.16 0.18,-2.961 0.74,-10.36 0.18,-2.961 0.18,-4.429 v -2.957 l -0.18,-2.961 -0.36,-2.219 -0.93,-0.934 -2.03,-0.547 h -2.96 l -8.88,0.547 -8.51,-0.547 h -2.96 l -8.51,0.547 -2.21,0.371 -1.12,0.743 -0.36,1.847 -0.19,2.59 -0.18,2.77 0.37,4.812 0.19,2.961 0.73,9.988 v 2.961 l -0.56,9.989 -0.17,2.96 -0.19,9.79 v 2.96 l 0.55,9.989 v 2.961 l -0.55,9.992 v 2.957 l 0.55,9.98 v 2.961 l 0.37,9.801 v 2.961 l -0.19,9.988 v 2.961 l -0.37,6.09 0.19,2.789 0.18,1.102 0.56,2.398 1.11,1.488 2.22,0.551 1.48,0.192 2.78,0.191 8.32,-0.383 22,-0.738 12.58,0.738 h 2.96 l 12.2,-0.738 h 7.04 l 3.14,-0.18 2.77,-0.562 3.88,-1.098 2.77,-0.93 2.78,-1.109 2.96,-1.113 2.77,-1.297 2.41,-1.473 3.51,-2.41 2.04,-1.66 1.84,-1.848 1.86,-2.23 2.59,-3.692 1.66,-2.41 2.21,-3.508 1.3,-2.589 1.29,-2.782 0.93,-2.961 0.56,-2.949 0.18,-2.961 0.37,-4.07 v -2.957 l -0.18,-2.953 -0.37,-3.149 -0.56,-3.14 -0.74,-2.961 -1.11,-2.778 -1.29,-2.769 -1.66,-2.774 -1.67,-2.398 -1.66,-2.23 -1.67,-2.032 -2.96,-2.957 -2.03,-1.672 -3.71,-2.027 -2.21,-1.293 -2.41,-1.301 -2.4,-0.558 -1.48,-0.551 0.74,-1.481 6.66,-9.429 1.66,-2.219 6.66,-9.059 1.85,-2.222 6.66,-9.25 1.84,-2.207 5.74,-6.66 1.66,-2.032 0.93,-2.05 z m -141.15,118.18 -0.19,-2.777 0.19,-5.543 -0.19,-2.957 -0.17,-1.492 -0.37,-2.211 -0.56,-1.297 -1.11,-0.922 -2.22,-0.371 h -2.96 l -5.55,0.562 -2.96,0.168 -8.5,-0.539 h -2.96 l -4.63,0.371 h -2.77 l -1.29,-0.191 -1.86,-0.559 -0.73,-1.109 -0.19,-2.402 -0.74,-10.911 v -2.961 l 0.74,-11.097 -0.18,-2.961 -0.74,-11.09 -0.19,-2.961 0.37,-10.91 v -17.008 l -0.37,-10.922 0.19,-2.777 0.92,-8.32 0.19,-2.954 -0.56,-2.218 -0.92,-0.93 -2.41,-0.371 -3.51,0.191 -4.62,0.551 -3.15,0.188 -8.33,-0.559 h -2.96 l -8.32,0.559 -2.21,0.179 -1.12,0.563 -0.36,2.031 v 3.148 l 0.55,7.758 0.19,2.961 v 13.883 l 0.18,11.09 v 2.957 l 0.19,10.91 v 2.961 l -0.75,11.09 -0.18,2.961 v 14.058 l -0.36,10.911 v 2.589 l -0.56,1.481 -1.85,0.359 h -2.78 l -5.92,-0.359 h -3.33 l -4.99,0.359 -3.14,0.192 -3.15,-0.192 -4.25,-0.168 h -2.77 l -1.48,0.168 -2.04,0.371 -1.11,0.75 -0.74,1.11 -0.36,1.84 v 1.3 l -0.19,2.961 0.37,5.551 v 2.77 l -0.56,7.019 0.19,2.969 0.55,2.41 0.74,1.281 1.11,0.559 1.85,0.371 h 4.26 l 6.84,-0.551 h 2.96 l 10.73,0.738 h 2.96 l 10.91,-0.929 h 2.95 l 13.7,0.929 10.72,-0.187 h 2.96 l 13.86,0.187 h 13.7 l 6.1,0.372 3.13,-0.192 1.49,-0.18 2.22,-0.367 1.29,-0.75 0.92,-1.281 0.37,-2.23 v -1.29 l 0.19,-2.769 z m -199.43,0 -0.18,-2.777 0.18,-5.543 -0.18,-2.957 -0.19,-1.492 -0.37,-2.211 -0.55,-1.297 -1.11,-0.922 -2.22,-0.371 h -2.96 l -5.55,0.562 -2.96,0.168 -8.51,-0.539 h -2.95 l -4.63,0.371 h -2.77 l -1.3,-0.191 -1.85,-0.559 -0.73,-1.109 -0.19,-2.402 -0.74,-10.911 v -2.961 l 0.74,-11.097 -0.19,-2.961 -0.74,-11.09 -0.18,-2.961 0.37,-10.91 v -17.008 l -0.37,-10.922 0.18,-2.777 0.93,-8.32 0.19,-2.954 -0.56,-2.218 -0.92,-0.93 -2.41,-0.371 -3.51,0.191 -4.63,0.551 -3.14,0.188 -8.32,-0.559 h -2.96 l -8.32,0.559 -2.22,0.179 -1.11,0.563 -0.37,2.031 v 3.148 l 0.55,7.758 0.19,2.961 v 13.883 l 0.18,11.09 v 2.957 l 0.19,10.91 v 2.961 l -0.74,11.09 -0.19,2.961 v 14.058 l -0.37,10.911 v 2.589 l -0.55,1.481 -1.85,0.359 h -2.78 l -5.91,-0.359 h -3.33 l -5,0.359 -3.14,0.192 -3.14,-0.192 -4.26,-0.168 h -2.77 l -1.48,0.168 -2.04,0.371 -1.1,0.75 -0.74,1.11 -0.37,1.84 v 1.3 l -0.19,2.961 0.37,5.551 v 2.77 l -0.55,7.019 0.18,2.969 0.56,2.41 0.74,1.281 1.1,0.559 1.85,0.371 h 4.26 l 6.84,-0.551 h 2.96 l 10.72,0.738 h 2.96 l 10.92,-0.929 h 2.96 l 13.68,0.929 10.72,-0.187 h 2.96 l 13.88,0.187 h 13.68 l 6.11,0.372 3.14,-0.192 1.48,-0.18 2.22,-0.367 1.29,-0.75 0.93,-1.281 0.36,-2.23 v -1.29 l 0.19,-2.769 z m -99.71,-110.23 -0.19,-2.957 v -1.661 l -0.55,-2.222 -1.11,-1.289 -1.3,-0.559 -1.84,-0.371 h -1.49 l -2.59,-0.18 -20.52,1.11 h -13.87 l -16.65,-1.11 -10.72,0.739 h -13.69 l -8.51,-0.559 h -2.77 l -2.59,0.191 -2.03,0.368 -1.3,0.742 -0.92,1.097 -0.37,2.231 v 2.961 l 0.92,7.019 0.19,2.77 -0.74,9.812 v 2.957 l 0.37,9.801 v 2.961 l 0.37,22.559 v 2.961 l -0.74,22.558 v 2.961 l -0.19,9.801 v 15.719 l -0.37,5.551 v 2.769 l 0.19,1.66 0.55,2.422 0.74,1.098 1.3,0.562 2.03,0.367 h 1.48 l 2.78,0.18 9.06,-0.547 h 2.96 l 13.13,0.18 h 1.85 l 1.29,-0.742 0.93,-1.289 v -16.09 l 0.37,-10.731 v -2.949 l -0.56,-10.738 v -2.961 l 0.37,-10.723 v -2.957 l 0.56,-10.722 v -2.957 l -1.12,-24.411 0.19,-1.859 0.19,-0.922 0.37,-0.922 0.92,-0.75 2.22,-0.367 6.28,-0.359 5.56,0.359 h 2.96 l 26.63,0.367 2.96,0.192 6.28,0.742 2.96,0.187 h 2.78 l 2.21,-0.558 1.3,-1.11 0.55,-1.293 0.19,-2.027 0.18,-10.371 0.19,-2.949 z m -184.25,48.832 -0.74,2.398 -4.07,12.57 -0.93,2.789 -3.69,10.903 -0.93,2.41 -1.85,1.289 -2.41,0.551 -2.03,-0.551 -1.85,-1.852 -4.99,-12.566 -1.11,-2.781 -4.81,-12.379 -0.55,-2.781 0.55,-2.219 2.04,-0.922 2.58,-0.371 h 11.65 l 8.7,-0.559 2.4,0.739 1.48,1.48 z m 61.77,-52.161 0.55,-2.582 -1.3,-2.039 -2.03,-0.918 -2.4,-0.371 h -2.59 l -4.25,0.371 -2.78,0.18 h -8.32 l -11.47,-0.742 -2.4,0.93 -1.11,1.293 -0.93,2.039 -5.73,15.531 -1.29,1.848 -1.67,0.371 -2.21,0.191 -11.1,0.738 h -2.96 l -13.87,0.36 -11.1,0.191 h -2.77 l -2.78,-0.191 h -8.51 l -2.4,-0.36 -1.48,-0.929 -1.11,-2.219 -4.25,-12.57 -1.11,-2.961 -2.03,-2.403 -2.78,-0.929 h -2.96 l -10.72,0.55 h -2.96 l -11.47,-0.738 -2.4,-0.18 -2.22,1.11 -1.48,2.031 0.18,2.398 0.37,1.489 1.11,2.961 2.59,5.73 1.11,2.77 4.62,10.351 1.11,2.59 4.81,10.359 1.11,2.782 4.25,9.988 1.12,2.77 4.99,10.351 1.11,2.59 6.66,15.168 5.18,11.09 1.29,2.961 4.07,8.332 1.29,2.957 3.52,8.5 1.11,2.781 3.33,7.582 0.92,2.039 1.85,1.098 2.77,0.562 8.51,0.367 h 14.42 l 8.51,-0.187 3.14,-0.551 2.04,-1.48 0.92,-2.41 2.59,-7.211 1.11,-2.77 4.63,-8.687 1.11,-2.59 4.06,-9.063 1.12,-2.59 3.32,-9.437 1.11,-2.582 4.07,-8.879 1.11,-2.602 4.07,-9.05 1.11,-2.598 3.7,-9.242 1.11,-2.59 5.73,-11.469 4.44,-8.691 1.3,-2.59 4.99,-11.649 z m -151.32,106.34 0.18,-2.961 -0.18,-2.769 -0.18,-2.031 -0.56,-1.297 -1.11,-0.922 -2.03,-0.559 h -3.89 l -5.54,0.75 -2.96,0.168 h -12.02 l -21.09,-0.73 -8.32,0.562 h -4.07 l -1.84,-0.562 -0.75,-1.297 -0.18,-2.594 -0.37,-16.449 0.18,-2.039 0.19,-1.11 0.93,-0.742 2.21,-0.558 h 4.81 l 6.29,0.558 2.95,0.192 11.1,-0.371 h 14.06 l 2.77,0.179 7.03,0.563 h 4.44 l 2.03,-0.371 1.11,-0.93 0.74,-1.48 0.37,-2.219 0.19,-1.481 0.18,-2.769 -0.37,-5.551 v -2.77 l 0.19,-4.261 -0.19,-2.77 -0.18,-2.961 -0.37,-2.218 -0.56,-1.481 -0.92,-0.73 -2.22,-0.559 h -4.44 l -6.84,0.922 -2.96,0.18 -11.1,-0.364 h -2.96 l -19.97,0.364 -2.78,-0.18 -2.58,-0.363 -1.85,-0.559 -0.74,-1.109 v -2.411 l -0.19,-10.539 v -2.953 l -0.74,-10.359 v -2.957 l 0.19,-4.082 -0.19,-2.949 -0.18,-3.153 -0.19,-2.218 -0.55,-1.098 -1.11,-0.563 -2.04,-0.371 -3.14,-0.367 -2.96,-0.18 -6.84,0.18 h -2.96 l -7.58,-0.551 -5.55,0.371 -2.04,0.368 -1.105,0.742 -0.372,1.289 -0.183,2.039 -0.555,9.793 -0.183,2.957 -0.184,9.812 0.184,2.957 0.738,9.801 0.183,2.961 -0.55,9.801 v 2.961 l -0.555,9.988 v 2.949 l 0.367,9.813 v 15.707 l 0.371,9.812 v 15.719 l 0.367,9.789 0.188,2.231 0.371,1.289 1.108,0.562 1.85,0.367 h 4.07 l 7.02,-0.558 h 2.96 l 10.92,0.558 h 2.95 l 10.73,-0.558 h 2.96 l 10.91,0.558 2.96,0.18 10.91,-0.547 h 2.96 l 10.91,0.547 h 2.96 l 4.63,-0.18 2.96,-0.187 3.14,-0.371 2.03,-0.18 1.11,-0.558 0.74,-1.102 0.19,-2.051 0.18,-1.66 v -2.769 l -0.37,-5.551 v -2.957 z m -121.353,-103.011 -0.188,-2.957 v -1.661 l -0.551,-2.222 -1.113,-1.289 -1.293,-0.559 -1.851,-0.371 h -1.473 l -2.594,-0.18 -20.527,1.11 h -13.871 l -16.645,-1.11 -10.726,0.739 h -13.688 l -8.504,-0.559 h -2.773 l -2.586,0.191 -2.039,0.368 -1.293,0.742 -0.93,1.097 -0.363,2.231 v 2.961 l 0.922,7.019 0.183,2.77 -0.742,9.812 v 2.957 l 0.371,9.801 v 2.961 l 0.371,22.559 v 2.961 l -0.742,22.558 v 2.961 L 876.313,834 v 15.719 l -0.372,5.551 v 2.769 l 0.188,1.66 0.551,2.422 0.742,1.098 1.293,0.562 2.039,0.367 h 1.476 l 2.774,0.18 9.062,-0.547 h 2.961 l 13.129,0.18 h 1.848 l 1.297,-0.742 0.922,-1.289 v -16.09 l 0.371,-10.731 v -2.949 l -0.555,-10.738 v -2.961 l 0.371,-10.723 v -2.957 l 0.551,-10.722 v -2.957 l -1.109,-24.411 0.187,-1.859 0.184,-0.922 0.371,-0.922 0.926,-0.75 2.218,-0.367 6.285,-0.359 5.551,0.359 h 2.961 l 26.629,0.367 2.961,0.192 6.281,0.742 2.961,0.187 h 2.774 l 2.222,-0.558 1.293,-1.11 0.559,-1.293 0.183,-2.027 0.188,-10.371 0.18,-2.949 z M 855.188,748 855,745.051 l -0.738,-9.981 -0.184,-1.859 -0.742,-1.289 -0.926,-0.742 -24.226,-0.739 h -2.957 l -9.801,0.739 -2.961,-0.192 -9.613,-0.738 -2.957,-0.18 h -12.766 l -9.613,0.739 h -2.961 l -15.907,-0.93 -6.285,0.371 -2.222,0.371 -1.293,0.93 -0.555,1.289 -0.367,2.039 -0.371,4.25 -0.188,2.961 0.188,2.769 v 2.77 l 0.738,9.812 v 2.957 l 0.184,9.801 -0.184,2.961 -0.555,9.801 -0.183,2.961 0.371,9.988 v 15.719 l 0.734,9.793 -0.183,2.957 -0.551,9.812 -0.188,2.957 v 4.442 l 0.367,5.551 v 2.769 l 0.555,9.61 0.188,2.601 0.554,1.469 0.926,0.738 1.481,0.192 2.402,0.371 12.019,-0.743 11.286,0.18 h 2.957 l 11.093,-0.738 h 2.961 l 11.098,0.738 h 2.961 l 25.148,-0.367 3.141,0.187 6.289,0.551 h 4.625 l 2.586,-0.551 1.113,-0.929 0.367,-1.289 0.372,-2.41 v -4.989 l -0.372,-4.621 v -3.148 l 0.188,-4.621 0.184,-2.782 -0.184,-2.769 -0.371,-2.219 -0.738,-1.301 -0.922,-0.73 -2.223,-0.371 h -1.48 l -2.957,-0.188 -17.383,0.379 h -2.961 l -9.434,-0.379 h -2.961 l -9.613,0.379 -8.324,0.539 h -2.774 l -1.48,-0.168 -1.852,-0.371 -0.922,-0.93 -0.183,-1.121 -0.367,-2.031 -0.371,-4.43 v -2.957 l 0.183,-3.14 0.188,-2.051 0.367,-1.281 0.742,-0.93 2.031,-0.559 5.918,-0.371 5.918,0.371 h 17.571 l 20.714,1.11 5.735,-0.371 2.027,-0.367 1.113,-0.93 0.555,-1.102 0.184,-2.039 0.371,-3.133 0.187,-3.148 v -6.102 l 0.364,-4.257 -0.364,-5.551 -0.371,-2.211 -0.742,-1.297 -1.297,-0.922 -1.844,-0.371 h -3.703 l -8.316,0.922 -2.961,0.18 -14.793,-0.922 -11.836,0.363 h -2.961 l -7.398,0.559 -3.145,-0.18 -2.223,-0.191 -0.921,-0.551 -0.555,-1.297 -0.188,-2.774 -0.55,-4.628 -0.184,-2.95 v -4.07 l 0.184,-1.84 0.55,-1.301 0.743,-0.75 2.039,-0.179 10.168,-0.371 h 2.961 l 9.984,0.742 13.129,-0.742 h 2.961 l 13.129,0.742 h 2.773 l 2.774,-0.192 6.66,-0.738 1.109,-0.539 0.742,-1.121 0.18,-2.031 z m -132.063,11.66 v -2.961 l -0.742,-9.98 v -2.957 l -0.188,-10.18 v -2.031 l -0.55,-1.11 -1.477,-0.371 -2.59,-0.191 -9.433,0.191 H 696.68 l -9.246,0.739 -1.11,0.371 -0.558,0.558 v 1.844 l -0.371,4.617 v 2.961 l -0.18,2.77 v 2.789 l -0.559,9.98 0.188,2.961 0.551,9.988 0.187,2.954 -0.555,10.168 v 2.96 l -0.183,9.989 v 15.91 l -0.188,10.16 v 2.961 l 0.188,9.988 v 15.903 l -0.371,10.179 0.554,2.032 1.11,0.738 1.851,0.191 h 1.481 l 2.773,0.18 4.438,-0.18 h 2.961 l 8.504,0.367 h 11.464 l 2.036,-0.367 0.371,-1.121 0.179,-2.031 0.371,-4.797 0.188,-2.961 v -18.133 l 0.184,-9.988 v -2.961 l -0.184,-10.16 v -2.957 l 0.184,-9.992 v -2.961 l -0.372,-9.989 V 769.648 Z M 669.813,861 l -0.555,-2.398 -0.559,-1.672 -1.105,-2.961 -2.59,-4.989 -1.293,-2.769 -3.328,-10.359 -1.297,-2.782 -4.809,-9.789 -1.293,-2.781 -3.332,-10.168 -1.105,-2.961 -3.891,-9.992 -1.105,-2.957 -4.071,-9.981 -1.292,-2.769 -4.997,-9.813 -1.293,-2.769 -4.066,-9.988 -1.109,-2.961 -4.438,-9.61 -1.113,-2.961 -4.254,-9.988 -0.734,-2.031 -1.118,-0.742 -2.214,-0.188 -13.5,0.188 -2.961,-0.188 -10.356,-0.93 -3.144,-0.179 -2.403,0.367 -1.293,1.301 -1.109,2.218 -4.07,9.801 -1.11,2.77 -4.808,10.172 -1.11,2.769 -4.066,9.809 -1.113,2.961 -3.329,10.172 -1.109,2.957 -4.441,9.8 -1.11,2.77 -4.808,10.18 -1.11,2.773 -3.695,9.988 -1.293,2.961 -4.437,9.61 -1.118,2.961 -3.324,10.359 -1.113,2.769 -3.324,5.36 -1.114,2.781 -0.55,1.668 -0.371,2.402 0.554,1.661 1.293,1.109 2.031,0.559 1.118,0.179 h 2.769 l 8.32,-0.551 8.879,0.18 11.836,-0.738 2.403,-0.18 1.484,-0.379 1.109,-1.472 0.739,-1.86 0.742,-2.578 1.844,-6.109 0.925,-2.961 4.442,-9.61 1.105,-2.953 3.703,-9.808 1.11,-2.961 3.695,-11.649 1.113,-2.961 4.067,-11.461 4.625,-14.796 0.922,-2.043 1.297,-0.727 1.664,0.727 1.109,2.043 4.437,11.468 0.926,2.961 2.961,12.02 0.922,2.961 5.18,11.09 0.926,2.957 3.14,10.179 0.926,2.774 4.625,9.789 0.926,2.781 1.843,6.84 1.118,3.148 1.472,2.399 1.297,0.742 2.219,0.367 h 1.293 l 2.961,0.192 4.625,-0.372 h 11.836 l 8.504,0.551 3.332,-0.371 2.218,-0.547 1.11,-1.121 z m 2085.227,247.92 1.82,-3.27 -1.1,-1.83 -1.08,-2.18 -2.55,-1.45 h -4.74 l -19.65,1.45 h -5.82 l -22.93,0.37 h -5.82 l -23.29,-1.1 -4.37,0.37 -3.28,2.54 -12.74,14.2 -3.27,4.37 -11.29,16.01 -3.27,4 -14.19,14.19 -3.64,4.37 -12.01,14.19 -2.91,4.01 -1.82,3.27 -2.55,1.09 -2.19,-1.45 -0.72,-4.73 v -25.11 l -0.73,-19.66 v -5.82 l 0.37,-8.73 v -5.46 l -0.37,-5.46 -0.36,-3.64 -1.82,-1.45 -4.36,-0.73 -11.29,-0.73 h -11.28 l -16.74,1.46 -5.82,-0.37 -18.19,-1.45 -2.92,1.09 -1.46,2.18 -0.36,3.28 -0.36,5.09 v 5.82 l 0.36,9.1 0.36,6.19 -1.45,19.65 v 25.47 l 0.37,5.83 1.08,20.01 0.37,5.82 v 25.48 l -0.73,19.65 v 5.83 l 0.73,20.01 v 5.82 l -0.73,45.13 v 5.82 l 1.09,19.65 0.36,4.37 1.1,1.82 3.64,0.72 5.46,-0.36 11.28,-1.09 h 5.82 l 16.74,1.45 h 5.82 l 16.75,-1.09 4,-0.36 1.82,-1.09 1.09,-2.91 0.36,-3.64 -0.36,-4.73 -1.09,-12.01 -0.37,-5.83 1.09,-19.28 v -5.83 l 0.37,-19.29 0.72,-3.99 2.91,-0.74 4.01,2.55 11.28,15.65 19.65,23.66 11.28,15.64 3.65,4.38 12.73,14.55 2.91,2.91 3.64,0.73 16.75,1.09 h 5.82 l 22.2,-1.46 13.83,-0.36 h 5.83 l 13.82,0.36 4.01,-0.36 1.82,-1.46 0.72,-0.72 -0.36,-1.1 -2.91,-3.27 -13.83,-15.29 -3.64,-4.36 -12.74,-16.74 -3.64,-4.37 -14.19,-15.65 -3.64,-4.36 -13.46,-16.02 -3.64,-4.37 -13.12,-16 -4,-4.37 -9.09,-8.38 -4.01,-4.36 -1.81,-2.18 -1.83,-2.91 0.73,-2.19 2.55,-3.27 13.46,-17.83 4,-4.37 16.03,-16.02 3.64,-4.36 14.19,-17.47 3.64,-4.36 14.92,-16.74 3.64,-4.37 15.65,-16.38 3.63,-4.37 z m -382.86,134.29 8.01,1.45 4.72,1.82 4.38,2.55 3.63,4.36 2.55,5.47 1.45,5.82 0.37,5.82 -0.37,6.19 -0.72,6.19 -1.45,5.45 -2.55,5.46 -3.28,4.37 -4.01,3.27 -5.09,2.18 -8,1.83 -5.82,0.72 -18.21,0.36 h -5.82 l -18.55,-1.08 -4.38,-0.37 -2.54,-1.09 -2.18,-2.19 -0.36,-3.99 0.36,-8.38 0.73,-5.82 0.72,-6.19 0.36,-6.18 -0.72,-20.02 0.36,-4 0.73,-2.18 2.54,-1.1 4.38,-0.72 18.91,-1.46 h 5.83 z m 110.26,-140.11 -4.73,-1.46 h -25.47 l -20.01,0.37 h -5.82 l -16.38,-0.73 h -4.74 l -3.27,1.45 -2.91,2.92 -11.65,16.37 -3.27,4.37 -11.65,15.65 -3.27,4.36 -10.19,16.75 -3.28,4.36 -11.64,15.65 -2.55,2.91 -2.19,1.09 -4.36,0.37 -11.64,0.72 -4.74,-0.36 -2.91,-2.18 -1.09,-4.73 -0.72,-20.02 0.36,-5.82 1.45,-20.38 0.36,-5.82 0.37,-8.74 v -5.82 l -0.37,-5.82 -0.72,-4.37 -1.82,-1.82 -4,-1.09 h -5.83 l -17.46,1.09 -16.75,-1.09 h -5.82 l -16.74,1.09 -4.36,0.73 -2.19,1.45 -0.72,3.65 -0.37,5.09 -0.37,5.46 0.74,9.46 0.36,5.82 1.45,19.65 v 5.82 l -1.09,19.66 -0.36,5.82 -0.36,19.29 v 5.82 l 1.09,19.65 v 5.82 l -1.09,19.66 v 5.82 l 1.09,19.65 v 5.82 l 0.72,19.29 v 5.83 l -0.36,19.64 v 5.83 l -0.73,12.01 0.37,5.45 0.36,2.19 1.1,4.73 2.17,2.91 4.37,1.09 2.91,0.37 5.46,0.36 16.37,-0.73 43.32,-1.46 24.74,1.46 h 5.82 l 24.03,-1.46 h 13.82 l 6.18,-0.36 5.46,-1.09 7.65,-2.18 5.46,-1.82 5.46,-2.19 5.82,-2.18 5.46,-2.55 4.72,-2.91 6.92,-4.73 4,-3.28 3.64,-3.63 3.65,-4.37 5.09,-7.28 3.28,-4.73 4.36,-6.92 2.55,-5.09 2.55,-5.46 1.82,-5.82 1.09,-5.82 0.36,-5.83 0.72,-8 v -5.82 l -0.36,-5.82 -0.72,-6.19 -1.09,-6.19 -1.46,-5.82 -2.19,-5.46 -2.55,-5.46 -3.27,-5.46 -3.27,-4.73 -3.28,-4.37 -3.27,-4 -5.82,-5.82 -4.01,-3.28 -7.28,-4 -4.37,-2.55 -4.72,-2.54 -4.74,-1.1 -2.91,-1.09 1.46,-2.91 13.1,-18.56 3.27,-4.37 13.11,-17.83 3.63,-4.36 13.11,-18.2 3.64,-4.37 11.28,-13.1 3.27,-4 1.82,-4 z m -285.68,32.75 -0.36,-5.82 -1.46,-19.65 -0.36,-3.64 -1.45,-2.55 -1.83,-1.46 -47.67,-1.45 h -5.82 l -19.29,1.45 -5.82,-0.36 -18.93,-1.46 -5.82,-0.36 h -25.11 l -18.92,1.46 h -5.82 l -31.3,-1.82 -12.38,0.72 -4.36,0.73 -2.55,1.82 -1.09,2.55 -0.73,4 -0.73,8.37 -0.36,5.83 0.36,5.45 v 5.47 l 1.46,19.28 v 5.82 l 0.37,19.29 -0.37,5.82 -1.09,19.29 -0.37,5.83 0.73,19.65 v 30.93 l 1.46,19.28 -0.36,5.83 -1.1,19.29 -0.36,5.82 v 8.73 l 0.72,10.92 v 5.46 l 1.1,18.92 0.36,5.1 1.09,2.91 1.82,1.45 2.91,0.37 4.74,0.73 23.65,-1.46 22.2,0.36 h 5.82 l 21.83,-1.45 h 5.83 l 21.83,1.45 h 5.83 l 49.49,-0.73 6.18,0.37 12.38,1.09 h 9.1 l 5.09,-1.09 2.18,-1.82 0.73,-2.55 0.73,-4.73 v -9.83 l -0.73,-9.09 v -6.19 l 0.37,-9.09 0.36,-5.46 -0.36,-5.46 -0.74,-4.37 -1.45,-2.55 -1.82,-1.46 -4.36,-0.72 h -2.91 l -5.83,-0.36 -34.2,0.72 h -5.83 l -18.56,-0.72 h -5.82 l -18.92,0.72 -16.38,1.1 h -5.46 l -2.91,-0.37 -3.64,-0.73 -1.82,-1.82 -0.36,-2.18 -0.73,-4 -0.72,-8.73 v -5.83 l 0.36,-6.19 0.36,-4 0.73,-2.54 1.46,-1.83 4,-1.09 11.64,-0.73 11.64,0.73 h 34.58 l 40.75,2.19 11.29,-0.73 4,-0.73 2.18,-1.82 1.1,-2.18 0.36,-4 0.73,-6.19 0.36,-6.19 v -12.01 l 0.72,-8.37 -0.72,-10.92 -0.73,-4.36 -1.46,-2.55 -2.54,-1.82 -3.64,-0.73 h -7.27 l -16.38,1.82 -5.83,0.37 -29.11,-1.82 -23.29,0.72 h -5.82 l -14.56,1.1 -6.18,-0.37 -4.37,-0.36 -1.83,-1.09 -1.08,-2.55 -0.37,-5.46 -1.08,-9.1 -0.38,-5.82 v -8.01 l 0.38,-3.63 1.08,-2.55 1.45,-1.46 4.01,-0.37 20.02,-0.72 h 5.82 l 19.65,1.45 25.84,-1.45 h 5.82 l 25.84,1.45 h 5.46 l 5.45,-0.36 13.11,-1.45 2.18,-1.1 1.45,-2.18 0.37,-4 z m -240.56,222.72 -17.46,-45.86 -2.19,-5.46 -6.18,-20.37 -2.19,-5.46 -8.73,-20.38 -1.82,-5.46 -5.82,-20.38 -2.19,-5.82 -9.09,-18.92 -2.19,-5.83 -5.82,-20.74 -1.82,-5.46 -9.46,-20.02 -1.83,-5.45 -6.54,-20.39 -1.83,-5.82 -6.18,-20.37 -1.45,-3.65 -1.83,-1.82 -2.54,-0.36 -24.38,0.73 -28.39,1.82 -3.63,0.72 -1.83,2.92 -9.09,17.83 -1.83,5.09 -6.55,18.93 -1.46,5.09 -6.54,18.56 -1.82,5.1 -7.28,18.55 -2.19,5.1 -6.54,18.2 -1.83,3.27 h -1.08 l -1.47,-3.27 -6.54,-18.56 -1.82,-5.09 -8.73,-17.48 -1.82,-5.09 -5.83,-19.29 -1.82,-5.09 -6.18,-18.56 -2.19,-5.1 -6.91,-18.19 -1.82,-4.01 -4,-1.82 -22.57,1.82 h -5.82 l -22.56,-1.82 -3.28,1.82 -1.45,4.37 -10.19,19.65 -1.82,5.46 -5.09,20.75 -1.83,5.45 -9.09,20.38 -2.19,5.46 -7.64,19.65 -1.82,5.82 -6.18,20.75 -1.82,5.46 -18.2,45.85 -2.18,5.46 -6.55,20.38 -2.55,5.82 -9.1,18.92 -2.55,5.46 -8.37,20.75 -0.36,4.36 2.18,2.55 4.01,1.09 h 5.46 l 14.19,-1.09 h 5.82 l 25.11,-0.36 h 19.65 l 4.73,-0.37 1.45,-1.45 0.74,-3.64 8.36,-24.02 1.82,-5.46 7.29,-23.29 1.81,-5.46 9.47,-21.83 1.81,-5.46 7.28,-22.2 1.09,-5.83 4.37,-22.92 1.46,-3.28 2.18,-0.36 2.19,2.91 6.18,18.56 1.82,5.09 4.73,19.3 1.46,5.45 5.46,17.83 1.45,5.46 6.19,18.93 1.46,5.09 5.82,18.93 1.81,5.09 5.46,15.65 1.46,4 1.82,1.82 4,0.73 18.2,1.46 5.46,0.36 8.01,-0.36 h 5.45 l 5.46,-0.37 3.64,-1.46 2.19,-3.63 1.08,-2.91 2.19,-5.1 4,-10.19 1.82,-5.09 5.46,-18.93 1.45,-5.09 5.83,-18.93 1.46,-5.09 4.36,-19.29 1.82,-5.09 8.74,-17.84 1.45,-5.09 1.09,-8.37 1.09,-5.83 1.46,-5.45 2.18,-2.91 2.18,0.36 1.83,4.01 4.36,21.1 1.46,5.46 2.91,7.64 1.81,5.46 2.92,8.01 1.82,5.82 3.63,17.1 1.83,5.83 6.18,16.38 2.19,5.45 6.91,16.38 1.82,5.45 3.64,13.84 1.46,4.36 2.19,2.55 4.36,0.73 19.29,-1.46 h 5.82 l 19.65,1.09 h 5.83 l 19.28,-1.45 h 4.01 l 1.45,-1.1 z m -422.15,-227.82 -0.72,-24.01 -0.73,-4.37 -3.28,-1.46 -2.91,-0.36 h -5.1 l -13.82,1.09 h -5.46 l -21.11,-1.09 -26.93,1.82 h -5.82 l -21.11,-1.09 -5.82,-0.37 -21.11,-0.36 -5.82,0.36 -21.11,1.1 -5.82,0.36 h -21.11 l -6.18,-0.36 -9.1,-0.73 -6.19,-0.37 h -5.46 l -3.27,1.46 -0.73,4.37 -0.73,14.56 v 3.63 l 1.46,3.28 11.64,16.38 3.28,5.09 10.91,17.11 2.92,5.09 11.64,16.37 2.92,5.1 10.55,17.47 2.91,5.09 11.28,17.11 2.91,5.09 14.56,21.11 12.37,16.74 14.92,21.47 v 4 l -4.36,1.46 -20.38,1.45 h -5.83 l -20.38,-0.36 h -5.82 l -20.38,-1.09 h -13.46 l -12.02,0.72 -3.99,1.46 -1.46,4.37 v 2.91 l -0.37,6.19 -0.36,12.37 v 5.82 l -0.73,22.2 1.82,3.64 4.73,0.36 45.49,1.46 h 5.83 l 20.01,-0.37 h 5.82 l 19.66,0.37 h 5.82 l 20.01,-1.09 25.84,1.45 h 5.83 l 25.83,-1.45 19.65,0.36 4.74,-0.73 1.81,-4 v -2.55 l 0.37,-6.18 -0.37,-3.28 -0.36,-4 -2.18,-3.28 -11.29,-16.74 -14.55,-21.11 -2.91,-5.09 -11.65,-16.38 -2.91,-5.09 -9.83,-17.47 -3.27,-4.73 -11.64,-16.37 -3.28,-4.73 -13.47,-21.84 -10.92,-17.11 -2.91,-4.73 -11.27,-16.73 -1.46,-3.64 1.09,-2.55 4,-1.1 6.19,-0.35 h 6.19 l 37.12,2.54 h 5.82 l 22.2,-0.73 h 5.82 l 14.19,1.1 h 5.46 l 2.91,-0.37 3.64,-1.46 1.09,-4.36 z m -244.92,204.89 -0.37,-5.46 0.37,-10.91 -0.37,-5.83 -0.36,-2.91 -0.73,-4.37 -1.09,-2.55 -2.19,-1.82 -4.36,-0.72 h -5.82 l -10.92,1.09 -5.82,0.37 -16.74,-1.1 h -5.83 l -9.09,0.73 h -5.46 l -2.55,-0.37 -3.64,-1.08 -1.45,-2.19 -0.37,-4.73 -1.46,-21.47 v -5.82 l 1.46,-21.84 -0.36,-5.82 -1.46,-21.84 -0.36,-5.82 0.72,-21.47 v -33.48 l -0.72,-21.47 0.36,-5.46 1.82,-16.37 0.37,-5.83 -1.09,-4.37 -1.83,-1.82 -4.73,-0.72 -6.91,0.36 -9.1,1.09 -6.18,0.37 -16.38,-1.1 h -5.83 l -16.37,1.1 -4.37,0.36 -2.18,1.09 -0.73,4.01 v 6.18 l 1.1,15.29 0.36,5.82 v 27.29 l 0.36,21.84 v 5.82 l 0.36,21.47 v 5.82 l -1.45,21.84 -0.37,5.82 v 27.66 l -0.72,21.47 v 5.09 l -1.09,2.91 -3.64,0.74 h -5.46 l -11.65,-0.74 h -6.55 l -9.82,0.74 -6.19,0.36 -6.19,-0.36 -8.36,-0.37 h -5.46 l -2.92,0.37 -4,0.72 -2.19,1.46 -1.45,2.18 -0.73,3.64 v 2.55 l -0.36,5.82 0.73,10.92 v 5.45 l -1.1,13.84 0.37,5.82 1.09,4.73 1.45,2.54 2.19,1.1 3.64,0.72 h 8.37 l 13.47,-1.09 h 5.82 l 21.1,1.46 h 5.82 l 21.48,-1.82 h 5.82 l 26.93,1.82 21.11,-0.37 h 5.82 l 27.29,0.37 h 26.93 l 12.01,0.73 6.19,-0.37 2.91,-0.36 4.36,-0.73 2.55,-1.46 1.82,-2.54 0.73,-4.37 v -2.54 l 0.36,-5.46 z m -252.93,-199.79 -0.37,-5.82 -1.45,-19.65 -0.37,-3.64 -1.45,-2.55 -1.82,-1.46 -47.674,-1.45 h -5.824 l -19.289,1.45 -5.82,-0.36 -18.926,-1.46 -5.82,-0.36 h -25.114 l -18.918,1.46 h -5.828 l -31.293,-1.82 -12.371,0.72 -4.371,0.73 -2.551,1.82 -1.086,2.55 -0.726,4 -0.731,8.37 -0.367,5.83 0.367,5.45 v 5.47 l 1.457,19.28 v 5.82 l 0.36,19.29 -0.36,5.82 -1.093,19.29 -0.364,5.83 0.731,19.65 v 30.93 l 1.453,19.28 -0.367,5.83 -1.086,19.29 -0.367,5.82 v 8.73 l 0.726,10.92 v 5.46 l 1.094,18.92 0.359,5.1 1.094,2.91 1.824,1.45 2.911,0.37 4.73,0.73 23.652,-1.46 22.203,0.36 h 5.821 l 21.836,-1.45 h 5.82 l 21.836,1.45 h 5.824 l 49.492,-0.73 6.186,0.37 12.37,1.09 h 9.1 l 5.09,-1.09 2.19,-1.82 0.73,-2.55 0.73,-4.73 v -9.83 l -0.73,-9.09 v -6.19 l 0.36,-9.09 0.37,-5.46 -0.37,-5.46 -0.73,-4.37 -1.45,-2.55 -1.82,-1.46 -4.37,-0.72 h -2.91 l -5.82,-0.36 -34.215,0.72 h -5.82 l -18.559,-0.72 h -5.824 l -18.922,0.72 -16.379,1.1 h -5.457 l -2.91,-0.37 -3.636,-0.73 -1.825,-1.82 -0.363,-2.18 -0.73,-4 -0.727,-8.73 v -5.83 l 0.367,-6.19 0.36,-4 0.73,-2.54 1.453,-1.83 4.004,-1.09 11.648,-0.73 11.645,0.73 h 34.574 l 40.756,2.19 11.28,-0.73 4,-0.73 2.19,-1.82 1.09,-2.18 0.36,-4 0.73,-6.19 0.37,-6.19 v -12.01 l 0.72,-8.37 -0.72,-10.92 -0.73,-4.36 -1.46,-2.55 -2.55,-1.82 -3.63,-0.73 h -7.28 l -16.38,1.82 -5.82,0.37 -29.113,-1.82 -23.289,0.72 h -5.828 l -14.555,1.1 -6.188,-0.37 -4.363,-0.36 -1.82,-1.09 -1.094,-2.55 -0.363,-5.46 -1.094,-9.1 -0.359,-5.82 v -8.01 l 0.359,-3.63 1.094,-2.55 1.457,-1.46 4.004,-0.37 20.011,-0.72 h 5.825 l 19.652,1.45 25.84,-1.45 h 5.82 l 25.834,1.45 h 5.46 l 5.46,-0.36 13.1,-1.45 2.19,-1.1 1.45,-2.18 0.37,-4 z m -263.489,171.4 -0.363,-5.82 v -53.86 l 1.093,-21.1 v -5.83 l 0.731,-48.03 v -6.19 l -0.367,-2.91 -0.364,-6.19 -1.093,-17.46 0.363,-21.11 -0.363,-5.1 -1.453,-4.36 -2.911,-4.01 -3.644,-2.55 -3.27,-1.09 -5.097,-0.36 -18.563,-0.73 -5.816,-0.36 -9.106,-0.37 h -5.816 l -4.734,1.09 -4.364,1.82 -4.371,3.28 -3.269,4.73 -5.461,10.56 -3.278,4.73 -14.191,17.83 -3.641,4.37 -14.191,17.46 -3.277,4.73 -12.735,18.93 -3.277,4.36 -14.195,17.47 -3.637,4.37 -13.461,17.83 -3.277,2.91 -2.547,-1.09 -1.094,-4.37 -0.731,-18.19 v -5.83 l 0.368,-18.19 v -5.82 l 0.363,-20.38 v -5.83 l -1.09,-20.38 0.359,-5.82 2.188,-14.55 0.363,-5.83 -1.09,-4.73 -2.547,-2.55 -2.55,-0.72 -4.367,-0.73 -2.911,-0.37 -6.183,-0.36 -16.742,0.36 h -5.825 l -14.922,-0.72 h -5.824 l -5.453,0.36 -4.004,0.73 -2.914,1.82 -1.457,2.55 -0.726,3.64 -0.364,2.54 v 5.46 l 0.731,12.01 0.359,5.83 -1.09,19.28 v 5.82 l 0.731,44.4 0.359,5.83 1.094,19.28 0.363,5.82 v 25.12 l -1.457,19.28 v 5.82 l 1.457,19.29 -0.363,5.82 -1.453,19.65 -0.367,5.83 v 8.37 l 0.367,5.46 0.726,5.46 0.727,4 1.094,2.54 2.183,1.1 4.004,0.72 10.914,0.73 10.918,-0.73 h 27.293 l 4.367,-0.36 1.821,-1.46 2.183,-3.27 15.281,-16.38 3.645,-4.36 13.461,-17.47 3.644,-4.36 13.461,-17.84 3.641,-4.37 13.102,-18.19 3.269,-4.37 13.836,-17.46 3.637,-4.37 13.101,-18.2 2.911,-2.54 2.91,-0.37 2.547,1.82 v 4 l -2.547,15.29 -0.364,5.82 1.09,15.65 v 5.82 l -1.457,22.2 v 5.82 l 1.457,22.2 -0.359,5.82 -1.098,13.47 v 9.1 l 1.098,4.73 1.453,2.91 2.551,1.45 4.363,0.73 h 3.277 l 6.188,0.37 16.375,-1.1 h 5.82 l 12.371,0.73 5.461,-0.36 8.367,-0.37 4.004,-0.73 2.551,-1.09 2.184,-2.54 0.726,-5.1 0.367,-3.27 0.36,-6.19 -0.727,-11.28 -0.726,-5.82 -1.094,-21.48"
         style="fill:#09314f;fill-opacity:1;fill-rule:nonzero;stroke:none"
         id="path12" />
      <path
         d="m 2574.37,789.25 9.99,54.582 38.8,5.207 -10.58,-57.867 25.74,-53.082 -38.81,-5.219 -24.26,50.027 -0.88,6.352"
         style="fill:#ed1247;fill-opacity:1;fill-rule:nonzero;stroke:none"
         id="path14" />
      <path
         d="m 2546.46,737.859 5.89,2.832 55.43,7.45 17.01,-35.063 -58.82,-7.906 -42.72,-40.641 -17.01,35.059 40.22,38.269"
         style="fill:#ef61b8;fill-opacity:1;fill-rule:nonzero;stroke:none"
         id="path16" />
      <path
         d="m 2456.19,819.422 10.62,57.957 34.47,-18.481 -9.98,-54.558 -3.13,-5.731 -40.26,-38.32 -34.44,18.473 42.72,40.66"
         style="fill:#1969bc;fill-opacity:1;fill-rule:nonzero;stroke:none"
         id="path18" />
      <path
         d="m 2492.56,889.68 52.21,-27.981 58.65,7.879 -7,-38.277 -55.37,-7.449 -6.39,1.23 -49.1,26.316 7,38.282"
         style="fill:#612490;fill-opacity:1;fill-rule:nonzero;stroke:none"
         id="path20" />
      <path
         d="m 2445.57,777.488 49.01,-26.269 4.55,-4.66 24.28,-50.047 -28.28,-26.922 -25.75,53.09 -52.08,27.91 28.27,26.898"
         style="fill:#5ccaf5;fill-opacity:1;fill-rule:nonzero;stroke:none"
         id="path22" />
      <path
         d="m 2612.8,870.84 129.82,17.449 c 19.4,2.606 37.32,-10.957 39.96,-30.238 l 11.8,-86.571 c 0.26,-1.921 0.37,-3.859 0.31,-5.781 -0.51,-17.328 -13.44,-31.59 -30.73,-33.918 l -129.79,-17.441 -17,35.058 140.07,18.821 -11.34,83.172 -140.1,-18.832 7,38.281"
         style="fill:#ef61b8;fill-opacity:1;fill-rule:nonzero;stroke:none"
         id="path24" />
      <path
         d="m 2527.53,688.02 61.42,-126.622 76.08,36.422 -61.4,126.571 38.81,5.218 56.89,-117.277 c 2.47,-5.094 3.68,-10.73 3.51,-16.32 -0.11,-3.621 -0.77,-7.192 -1.98,-10.641 -3.14,-8.902 -9.56,-16.062 -18.11,-20.141 l -79.19,-37.91 c -8.54,-4.101 -18.18,-4.629 -27.13,-1.519 -8.96,3.109 -16.16,9.5 -20.28,17.988 l -56.91,117.332 28.29,26.899"
         style="fill:#5ccaf5;fill-opacity:1;fill-rule:nonzero;stroke:none"
         id="path26" />
      <path
         d="m 2491.92,1014.7 c 1.7,9.27 6.93,17.33 14.73,22.69 7.8,5.37 17.24,7.39 26.57,5.7 l 86.49,-15.64 c 9.33,-1.68 17.45,-6.89 22.85,-14.64 4.34,-6.24 6.53,-13.525 6.31,-21.06 -0.05,-1.777 -0.25,-3.574 -0.57,-5.336 l -23.44,-128.105 -38.81,-5.219 25.3,138.262 -83.09,15.028 -25.29,-138.208 -34.47,18.469 23.42,128.059"
         style="fill:#ed1247;fill-opacity:1;fill-rule:nonzero;stroke:none"
         id="path28" />
      <path
         d="m 2300.91,657.609 c 0.27,9.321 4.15,18 10.93,24.442 l 94.79,90.199 34.44,-18.461 -102.22,-97.269 58.42,-60.622 102.13,97.18 17.01,-35.058 -94.63,-90.04 c -14.14,-13.46 -36.67,-12.968 -50.21,1.09 l -60.81,63.102 c -5.24,5.418 -8.54,12.207 -9.55,19.609 -0.24,1.821 -0.35,3.688 -0.31,5.559 l 0.01,0.269"
         style="fill:#1969bc;fill-opacity:1;fill-rule:nonzero;stroke:none"
         id="path30" />
      <path
         d="m 2274.84,849.102 c 0.17,5.519 1.6,10.789 4.23,15.668 l 41.74,76.886 c 4.5,8.297 11.98,14.352 21.07,17.051 9.09,2.699 18.69,1.727 27.04,-2.754 l 115.3,-61.801 -7.01,-38.281 -124.45,66.703 -40.07,-73.855 124.55,-66.758 -28.27,-26.902 -115.48,61.902 c -9.96,5.34 -16.82,15.199 -18.34,26.371 -0.26,1.906 -0.36,3.848 -0.31,5.77"
         style="fill:#612490;fill-opacity:1;fill-rule:nonzero;stroke:none"
         id="path32" />
      <path
         d="m 2631.88,751.371 17.01,-35.051 -38.81,-5.218 -17.01,35.058 38.81,5.211"
         style="fill:#3b1b63;fill-opacity:1;fill-rule:nonzero;stroke:none"
         id="path34" />
      <path
         d="m 2588.71,867.602 38.81,5.218 -7.01,-38.289 -38.81,-5.211 7.01,38.282"
         style="fill:#3b1b63;fill-opacity:1;fill-rule:nonzero;stroke:none"
         id="path36" />
      <path
         d="m 2516.96,709.801 17.01,-35.071 -28.29,-26.91 -17,35.059 28.28,26.922"
         style="fill:#3b1b63;fill-opacity:1;fill-rule:nonzero;stroke:none"
         id="path38" />
      <path
         d="m 2471.15,901.152 34.48,-18.472 -7.01,-38.289 -34.47,18.48 7,38.281"
         style="fill:#3b1b63;fill-opacity:1;fill-rule:nonzero;stroke:none"
         id="path40" />
      <path
         d="m 2424.18,788.949 34.44,-18.461 -28.26,-26.886 -34.44,18.457 28.26,26.89"
         style="fill:#3b1b63;fill-opacity:1;fill-rule:nonzero;stroke:none"
         id="path42" />
    </g>
  </g>
</svg>
