<?xml version="1.0" encoding="UTF-8"?>
<svg id="Layer_1" data-name="Layer 1" xmlns="http://www.w3.org/2000/svg" viewBox="0 0 1096.93 881.98">
  <defs>
    <style>
      .cls-1 {
        fill: #cf5934;
      }

      .cls-2 {
        fill: #f49e73;
      }

      .cls-3 {
        fill: #c8b0aa;
      }

      .cls-4 {
        stroke: #ffc930;
      }

      .cls-4, .cls-5, .cls-6, .cls-7, .cls-8, .cls-9, .cls-10, .cls-11, .cls-12, .cls-13, .cls-14, .cls-15, .cls-16, .cls-17, .cls-18 {
        fill: none;
        stroke-linecap: round;
        stroke-linejoin: round;
        stroke-width: 4px;
      }

      .cls-5 {
        stroke: #f0ddd8;
      }

      .cls-19 {
        fill: #fff;
      }

      .cls-20 {
        fill: #e5bb98;
      }

      .cls-6 {
        stroke: #000;
      }

      .cls-21 {
        fill: #fff4d6;
      }

      .cls-7 {
        stroke: #bbb;
      }

      .cls-22 {
        fill: #ffc930;
      }

      .cls-8 {
        stroke: #161616;
      }

      .cls-23 {
        fill: #f5f5f5;
      }

      .cls-24 {
        fill: #dff5ff;
      }

      .cls-9 {
        stroke: #645b53;
      }

      .cls-25 {
        fill: #17151c;
      }

      .cls-26 {
        fill: #afcedd;
      }

      .cls-27 {
        fill: #dae8ef;
      }

      .cls-28 {
        fill: #f0ddd8;
      }

      .cls-10 {
        stroke: #030202;
      }

      .cls-29, .cls-30, .cls-31, .cls-32, .cls-33 {
        isolation: isolate;
      }

      .cls-29, .cls-32 {
        opacity: .3;
      }

      .cls-34 {
        fill: #61ccff;
      }

      .cls-30 {
        fill: #171717;
      }

      .cls-30, .cls-31, .cls-33 {
        opacity: .2;
      }

      .cls-35 {
        fill: #605b5e;
      }

      .cls-11 {
        stroke: #081921;
      }

      .cls-12 {
        stroke: #231f21;
      }

      .cls-36 {
        fill: #8f8d8e;
      }

      .cls-31 {
        fill: #030202;
      }

      .cls-37 {
        fill: #010005;
      }

      .cls-38 {
        fill: #efdcd7;
      }

      .cls-39 {
        fill: #30242a;
      }

      .cls-13 {
        stroke: #231f20;
      }

      .cls-40 {
        fill: #ff9edd;
      }

      .cls-14 {
        stroke: #2a4552;
      }

      .cls-32 {
        fill: #645b53;
      }

      .cls-33 {
        fill: #081921;
      }

      .cls-15 {
        stroke: #61ccff;
      }

      .cls-16 {
        stroke: #171717;
      }

      .cls-41 {
        fill: #eee;
      }

      .cls-42 {
        fill: #231f20;
      }

      .cls-17 {
        stroke: #585356;
      }

      .cls-18 {
        stroke: #ff9edd;
      }
    </style>
  </defs>
  <path class="cls-4" d="M376.85,836.47c12.96,0,23.48-10.52,23.48-23.48s-10.52-23.49-23.48-23.49-23.49,10.52-23.49,23.49,10.52,23.48,23.49,23.48Z"/>
  <path class="cls-34" d="M560.71,727.84l15.89,3.77-13.49,9.14,4.63,15.66-14.68-7.08-11.2,11.82-1.2-16.28-15.89-3.77,13.49-9.2-4.63-15.6,14.68,7.08,11.2-11.82,1.2,16.28Z"/>
  <path class="cls-15" d="M34.77,352.73c9.93,0,17.98-8.05,17.98-17.98s-8.05-17.98-17.98-17.98-17.98,8.05-17.98,17.98,8.05,17.98,17.98,17.98Z"/>
  <path class="cls-15" d="M1060.38,207.63c10.06,0,18.21-8.15,18.21-18.21s-8.15-18.21-18.21-18.21-18.21,8.16-18.21,18.21,8.15,18.21,18.21,18.21Z"/>
  <path class="cls-22" d="M389.36,74.22l20.01,4.75-16.98,11.51,5.82,19.72-18.49-8.93-14.1,14.9-1.51-20.51-20-4.75,16.98-11.58-5.83-19.64,18.49,8.92,14.1-14.89,1.51,20.5Z"/>
  <g>
    <path class="cls-38" d="M282.61,182.31l548.8,2.32c18.54,0,23.62,1.94,23.62,20.48l9.94,26.99v405.21c0,18.53-15.02,33.56-33.56,33.56H282.61c-18.54,0-33.57-15.03-33.57-33.56V232.1l9.05-26.99c0-18.54,5.98-22.8,24.52-22.8Z"/>
    <path class="cls-3" d="M282.61,171.55H831.41c18.54,0,33.56,15.02,33.56,33.56v26.99H249.04v-26.99c0-18.54,15.03-33.56,33.57-33.56Z"/>
    <path class="cls-19" d="M296.36,213.03c5.78,0,10.46-4.68,10.46-10.46s-4.68-10.46-10.46-10.46-10.46,4.68-10.46,10.46,4.68,10.46,10.46,10.46Z"/>
    <path class="cls-28" d="M330.37,213.03c5.78,0,10.47-4.68,10.47-10.46s-4.69-10.46-10.47-10.46-10.46,4.68-10.46,10.46,4.68,10.46,10.46,10.46Z"/>
    <path class="cls-28" d="M364.38,213.03c5.78,0,10.47-4.68,10.47-10.46s-4.69-10.46-10.47-10.46-10.46,4.68-10.46,10.46,4.68,10.46,10.46,10.46Z"/>
    <path class="cls-5" d="M479.72,202.35h154.65"/>
  </g>
  <g>
    <path class="cls-34" d="M340.72,316.83h163.93c10.42,0,18.91,8.49,18.91,18.91s-8.49,18.92-18.91,18.92h-163.93c-10.42,0-18.92-8.49-18.92-18.92s8.5-18.91,18.92-18.91Z"/>
    <path class="cls-26" d="M340.72,395.01h95.83c10.43,0,18.92,8.49,18.92,18.91s-8.49,18.92-18.92,18.92h-95.83c-10.42,0-18.92-8.49-18.92-18.92s8.5-18.91,18.92-18.91Z"/>
    <path class="cls-40" d="M499.6,395.01h30.27c10.42,0,18.91,8.49,18.91,18.91s-8.49,18.92-18.91,18.92h-30.27c-10.42,0-18.91-8.49-18.91-18.92s8.49-18.91,18.91-18.91Z"/>
    <path class="cls-26" d="M340.72,473.19h23.54c10.42,0,18.91,8.49,18.91,18.92s-8.49,18.91-18.91,18.91h-23.54c-10.42,0-18.92-8.49-18.92-18.91s8.5-18.92,18.92-18.92Z"/>
    <path class="cls-40" d="M427.31,473.19h141.23c10.42,0,18.91,8.49,18.91,18.92s-8.49,18.91-18.91,18.91h-141.23c-10.43,0-18.92-8.49-18.92-18.91s8.49-18.92,18.92-18.92Z"/>
    <path class="cls-27" d="M631.59,473.19h121.05c10.42,0,18.91,8.49,18.91,18.92s-8.49,18.91-18.91,18.91h-121.05c-10.43,0-18.92-8.49-18.92-18.91s8.49-18.92,18.92-18.92Z"/>
    <path class="cls-36" d="M340.72,551.37h75.66c10.42,0,18.91,8.49,18.91,18.92s-8.49,18.91-18.91,18.91h-75.66c-10.42,0-18.92-8.49-18.92-18.91s8.5-18.92,18.92-18.92Z"/>
    <path class="cls-26" d="M479.43,551.37h16.81c10.42,0,18.92,8.49,18.92,18.92s-8.5,18.91-18.92,18.91h-16.81c-10.43,0-18.92-8.49-18.92-18.91s8.49-18.92,18.92-18.92Z"/>
    <path class="cls-34" d="M559.29,551.37h100.04c10.42,0,18.91,8.49,18.91,18.92s-8.49,18.91-18.91,18.91h-100.04c-10.42,0-18.92-8.49-18.92-18.91s8.5-18.92,18.92-18.92Z"/>
  </g>
  <path class="cls-13" d="M354.94,651.1l-48.2,44.03,71.7-18.47-21.09,95.07,78.39-89.25,30.58,86.91,9.98-72.41"/>
  <g>
    <path class="cls-21" d="M734.07,25.87h-220.77c-14.95,0-27.04,12.08-27.04,27.03v207.42c0,14.95,12.09,27.04,27.04,27.04h220.77c14.95,0,27.03-12.09,27.03-27.04V52.9c0-14.95-12.13-27.03-27.03-27.03Z"/>
    <path class="cls-22" d="M515.83,73.87c6.14,0,11.11-4.97,11.11-11.11s-4.97-11.12-11.11-11.12-11.12,4.98-11.12,11.12,4.98,11.11,11.12,11.11Z"/>
    <path class="cls-22" d="M548.11,73.87c6.14,0,11.11-4.97,11.11-11.11s-4.97-11.12-11.11-11.12-11.12,4.98-11.12,11.12,4.98,11.11,11.12,11.11Z"/>
    <path class="cls-22" d="M580.43,73.87c6.14,0,11.12-4.97,11.12-11.11s-4.98-11.12-11.12-11.12-11.11,4.98-11.11,11.12,4.97,11.11,11.11,11.11Z"/>
  </g>
  <g>
    <path class="cls-2" d="M582.56,101.92c0-5.08-.31-12.97,.21-20.54,0-.05,.05-.1,.05-.1l46.84-26.51s.15,0,.15,.05l15.1,20.49v.05l14.83,48.5v.05c1.14,11.88,1.92,21.11,1.97,21.42-.05,.57-2.9,41.24-26.61,41.24s-20.64-31.85-20.59-32.52l-1.61-15.51c0-.11-.1-.16-.2-.11-1.46,.83-11.42,6.28-22.1,.42-11.83-6.54-8.04-27.13-8.04-36.93Z"/>
    <path class="cls-30" d="M613.94,148.08l-.98-9.75s9.23-4.67,13.79-7.68l-12.81,17.43Z"/>
    <path class="cls-30" d="M692.68,223.44l9.07,36.52,5.03-39.78-14.1,3.26Z"/>
    <path class="cls-41" d="M583.86,72.46c1.19-9.23,22.56-23.71,38.79-23.71s21.11,13.18,23.97,34.91c.2,1.61,9.02,1.04,10.73,16.34,1.09,9.91,1.87,18.15,2.44,23.86-1.87,.05-3.99-.11-6.38-.47-3.58-.52-7.99-1.71-11.25-4.15,0,0,16.44-18.67,2.49-27.64-7.58-4.88-20.08,10.84-20.08,10.84,0,0-8.14-9.75-3.78-22.25-22.77,11.93-38.02,1.14-38.02,1.14,.26-7.11,1.04-8.77,1.09-8.87Z"/>
    <path class="cls-16" d="M639.25,104.67l-4.61,5.39"/>
    <path class="cls-16" d="M595.63,109.54c-.52,1.14-1.19,3.01-.88,4.05,.31,.67,.88,1.19,1.56,1.45"/>
    <path class="cls-16" d="M602.63,117.69c.06,2.02-1.55,3.73-3.63,3.78h-.15"/>
    <path class="cls-16" d="M612.96,138.28l10.01-5.34"/>
    <path class="cls-25" d="M605.59,103.58c1.06,0,1.92-.86,1.92-1.92s-.86-1.92-1.92-1.92-1.92,.86-1.92,1.92,.86,1.92,1.92,1.92Z"/>
    <path class="cls-25" d="M589.36,103.58c1.05,0,1.91-.86,1.91-1.92s-.86-1.92-1.91-1.92-1.92,.86-1.92,1.92,.86,1.92,1.92,1.92Z"/>
    <path class="cls-38" d="M648.22,36.31c10.03,0,18.16-8.13,18.16-18.16s-8.13-18.15-18.16-18.15-18.15,8.13-18.15,18.15,8.13,18.16,18.15,18.16Z"/>
    <path class="cls-38" d="M654.81,79.36c-1.24-6.85-.83-14.01,1.71-20.49,.26-.68,.47-1.35,.63-2.08,2.49-10.78-7.89-22.4-23.19-25.93-15.3-3.53-29.72,2.33-32.21,13.17-.05,.26-.1,.52-.15,.78-.89,5.45-3.84,10.38-8.2,13.75-2.49,1.81-4.72,4.04-6.59,6.53-1.4,1.97-2.38,4.57-3.06,7.58l73.6,27.23c-.72-6.7-1.55-13.02-2.23-18,0-.88-.15-1.71-.31-2.54Z"/>
    <path class="cls-22" d="M749.68,197.98c-16.18-21.37-37.61-40.67-53.74-46.94v-.05c-.72-.26-1.5-.52-2.23-.78-17.06-5.71-31.95-4.88-31.95-4.88,0,0-10.32,23.86-29.3,23.86-16.29,0-17.9-15.2-17.9-15.2,0,0-11.62,2.75-23.54,15.2,0,0-15.72,16.6-28.64,43.1l34.86,23.71,2.44,25.41,97.66,33.09,7.52-59.13,4.93,4.26,39.89-41.65Z"/>
    <path class="cls-8" d="M704.86,235.37l-11.1-11.04"/>
    <path class="cls-2" d="M663.68,271.16c-13.54-6.48-62.91-14.11-62.91-14.11l-2.34-21-36.05-23.76c-4.04,8.25-8.55,17.27-10.73,27.13-1.61,7.47-1.51,21.27,.52,28.99,2.49,9.39,6.64,17.12,16.18,20.18l105.34,23.7,10.06,1.72s5.45,0,4.36-5.97c2.7,.52,4.57-.26,5.97-1.61,1.6-1.61,0-5.44,0-5.44,0,0,3.78-.52,1.09-6.49-2.6-5.65-17.95-16.8-31.49-23.34Z"/>
    <path class="cls-30" d="M600.77,257.05l-2.34-21-6.79-4.51-3.43,27.59,12.56-2.08Z"/>
    <path class="cls-16" d="M600.77,257.05l-14.11,2.34"/>
    <path class="cls-30" d="M629.92,302.49l43.77,9.86,10.06,1.71s5.45,0,4.36-5.97c2.7,.52,4.57-.26,5.97-1.61,1.6-1.6,0-5.44,0-5.44l-26.46-4.83-37.7,6.28Z"/>
    <path class="cls-16" d="M694.08,300.99c-12.45-9.24-33.61-21.17-33.61-21.17"/>
    <path class="cls-16" d="M687.8,308.35c-12.76-7.88-32.83-19.81-32.83-19.81"/>
    <path class="cls-16" d="M675.09,311.83c-9.23-4.88-25.52-13.54-25.52-13.54"/>
    <path class="cls-2" d="M749.63,197.87l-40.15,41.5,12.24,11.2-35.27,41.75s-16.6,2.18-24.74,5.45c-8.14,3.27-13.49,5.6-15.72,8.14-2.12,2.39-2.69,4.88,2.39,6.95-4.82,7.16-8.35,14.68-8.92,18-1.09,6.49,3.27,7.06,3.27,7.06,1.6,7.05,8.14,4.35,8.14,4.35,0,0,0,3.79,6.54,2.7,8.09-1.35,18.2-13.07,19.39-14.47h.06c-.94,1.87-9.29,19.29-2.6,17.22,9.34-2.85,17.9-20.59,17.9-20.59,26.55-1.09,26.55-12.45,26.55-12.45,0,0,52.6-29.31,54.78-62.4,.93-14.78-9.44-35.42-23.86-54.41Z"/>
    <path class="cls-30" d="M716.07,245.59l5.65,4.98,10.37-11.05-16.02,6.07Z"/>
    <path class="cls-16" d="M721.72,250.57l7.06-7.62"/>
    <path class="cls-16" d="M642.73,337.92s4.72-9.24,19.91-27.13"/>
    <path class="cls-16" d="M648.38,312.86c1.61-2.17,3.94-5.91,5.03-6.48"/>
    <path class="cls-16" d="M650.87,342.27s10.37-12.96,21.73-24.89"/>
    <path class="cls-16" d="M676.8,330.5c2.7-3.27,4.67-5.86,4.67-5.86"/>
    <path class="cls-8" d="M598.43,236.05l-3.63-31.59"/>
  </g>
  <g>
    <path class="cls-24" d="M1033.17,420.5h-283.44c-19.2,0-34.72,15.52-34.72,34.71v266.3c0,19.2,15.52,34.71,34.72,34.71h283.44c19.19,0,34.71-15.51,34.71-34.71V455.21c0-19.19-15.58-34.71-34.71-34.71Z"/>
    <path class="cls-34" d="M752.97,482.13c7.88,0,14.27-6.38,14.27-14.27s-6.39-14.27-14.27-14.27-14.27,6.39-14.27,14.27,6.38,14.27,14.27,14.27Z"/>
    <path class="cls-34" d="M794.41,482.13c7.89,0,14.27-6.38,14.27-14.27s-6.38-14.27-14.27-14.27-14.27,6.39-14.27,14.27,6.39,14.27,14.27,14.27Z"/>
    <path class="cls-34" d="M835.92,482.13c7.88,0,14.27-6.38,14.27-14.27s-6.39-14.27-14.27-14.27-14.27,6.39-14.27,14.27,6.38,14.27,14.27,14.27Z"/>
  </g>
  <g>
    <path class="cls-1" d="M865.82,579.65l.3-14.64c0-.1-.1-.1-.1-.1-9.77,1.9-23.51,1.3-31.08-8.16-6.87-8.67-5.68-22.12-2.49-40.84,2.69-14.64,2.29-36.95,11.06-48.81,9.86-14.04,28.18-16.83,48.7-16.03,23.71,1.29,41.54,22.01,40.94,44.72-.4,10.56-.9,30.38-2.39,55.28-.5,7.27-1.7,31.47-1.8,33.17,0,.1-.1,.1-.1,.1l-62.94-4.59q-.1,0-.1-.1Z"/>
    <path class="cls-31" d="M866.12,564.91l-.2,14.65c0,.09,.1,.09,.2,.09l18.52-20.71c.1-.1,0-.2-.1-.2-9.46,4.38-17.53,5.87-18.42,6.17q0-.1,0,0Z"/>
    <path class="cls-10" d="M899.08,534.83l8.47-3.38"/>
    <path class="cls-10" d="M866.71,564.81c4.58-1.09,12.85-3.68,18.23-6.37"/>
    <path class="cls-10" d="M855.16,521.19l-.7,2.39c-.5,1.39,0,2.79,1,3.68l.3,.3"/>
    <path class="cls-6" d="M852.37,538.22c1.59,1.2,7.17,1.2,10.06-2.39"/>
    <path class="cls-37" d="M871.59,514.71c3.69,.1,3.69,5.48,0,5.58-3.68-.1-3.68-5.48,0-5.58Z"/>
    <path class="cls-37" d="M844.9,510.33c3.69,.1,3.69,5.48,0,5.58-3.69-.1-3.69-5.48,0-5.58Z"/>
    <path class="cls-1" d="M683.64,687.13c-2.39,.79-4.78,1.19-7.27,1.19-12.65,0-25.2-9.76-26.19-10.56-2.19-.3-33.37-4.78-37.05-10.06-2.1-4.48,7.27-5.18,11.25-5.47,.1,0,.1-.2,0-.2-15.74-4.49-21.22-9.96-22.91-13.75-1.39-2.79-.7-4.98-.5-5.58v-.1c-6.17-7.07-2.09-11.65,4.09-12.35,.1,0,.1-.1,.1-.1-.7-4.08,3.48-6.77,10.55-6.77,9.87,.1,25.2,2.49,36.56,4.48,.1,0,.1-.1,.1-.2-9.96-10.95-12.05-18.42,1.29-14.84,12.65,3.29,44.03,16.64,68.73,27.49,.1,0,.1,.1,0,.1l-29.58,54.88c.1,.1-5.68-4.88-9.17-8.16Z"/>
    <path class="cls-34" d="M975.78,774.08c-19.13,0-41.54-6.08-64.84-17.53h-58.27s-.1,0-.1-.1l-7.77-43.63c0-.1-.1-.1-.2,0-40.24,54.19-104.88,27.1-151.69-17.43v-.1c.99-1.99,27.19-53.08,28.28-55.38,0,0,.1-.1,.1,0,31.58,14.65,59.76,26.8,61.96,27.69,0,0,.1,0,.1-.1,29.78-56.27,50.49-77.09,82.37-82.17h88.44c48.21,2.59,73.31,72.11,74.51,141.94,.59,30.77-22.51,47.01-52.89,46.81Z"/>
    <path class="cls-33" d="M813.82,737.62c.1-.1,5.48-8.76,9.17-22.71,1.59-5.97,2.89-11.65,4.08-16.73,3.29-14.44,5.48-24.9,12.25-25.6h.1c.7,.9,5.58,39.45,5.78,39.45l.1,.49c-.1,.2-11.36,16.54-31.18,25.4l-.59,.3,.29-.6Z"/>
    <path class="cls-38" d="M934.04,570.99q0-.1,0,0l-67.92,.2q-.1,0-.1,.1l-.2,13.94q0,.1,.1,.1c.79,0,6.17,.3,13.24,.3,.1,0,.1,.1,.1,.2-14.84,9.86-20.71,26.59-15.24,44.62,0,.1,.1,.1,.1,.1,1.2-.3,15.04-3.58,20.92-20.91,0-.1,.2-.1,.2,0,3.29,13.64,12.65,25.1,27.19,32.07q.1,0,.1-.1c.5-2.39,7.27-38.25-19.82-55.88-.1-.1-.1-.2,0-.2,18.33-.1,39.74-.1,41.23-.4,0,0,0-.1,.1-.1-.1-2.89-.1-9.06,0-14.04Z"/>
    <path class="cls-23" d="M921.2,725.87c11.55,.3,11.55,17.23,0,17.53-11.56-.3-11.56-17.23,0-17.53Z"/>
    <path class="cls-23" d="M722.29,682.64c11.55,.3,11.55,17.23,0,17.53-11.55-.3-11.55-17.23,0-17.53Z"/>
    <path class="cls-11" d="M960.14,700.97l-12.05-35.36"/>
    <path class="cls-33" d="M853.17,756.35l-5.98-33.07c0-.1,.1-.1,.1-.1l44.32,21.81,20.02,11.06-.1,.4-58.36-.1q0,.1,0,0Z"/>
    <path class="cls-11" d="M784.04,667.5l-11.85-4.78"/>
    <path class="cls-11" d="M842.91,695.79l-3.39-23.21"/>
    <path class="cls-10" d="M653.07,628.36l10.06,11.36s6.97,22.11,23.6,29.98"/>
    <path class="cls-10" d="M605.36,630.65l44.82,11.56"/>
    <path class="cls-10" d="M601.17,642.8l45.72,11.16"/>
    <path class="cls-10" d="M624.98,662.23l21.01,3.98"/>
    <path class="cls-33" d="M921.59,693.9c15.34-8.37,12.65-29.28,26.4-28.29,0,0,.1,0,.1,.1,.5,1.6,11.95,34.96,12.75,37.15q0,.1-.1,.1c-2.39-.2-35.76-8.16-39.15-8.76-.1-.1-.1-.2,0-.3Z"/>
    <path class="cls-1" d="M826.97,754.36c-2.39,0-4.58-.9-4.58-3.29,.2-4.98,12.35-13.25,19.12-17.53,.1-.1,0-.2-.1-.2-7.57,3.39-22.81,9.36-32.96,9.36-5.48,0-8.97-1.79-9.96-5.37h-.5c-6.97,.19-10.66-4.59-5.48-12.26v-.1c-.3-.59-1.3-2.88-.6-5.97,5.08-14.74,57.37-29.88,86.46-29.88,7.47,0,16.83,.6,25.79,2.09,.1,0,.1,.1,.1,.1l-12.75,53.88s0,.1-.1,.1c-.49,.1-2.98,.5-6.97,.5-6.17,.2-16.63-1.59-24.2-6.27h-.1c-2.89,1.59-23.61,14.84-33.17,14.84Z"/>
    <path class="cls-11" d="M902.27,691.01c25.5,2.89,69.72,14.94,69.72,14.94"/>
    <path class="cls-10" d="M793.11,725.07c16.73-9.46,34.66-16.63,53.28-21.11"/>
    <path class="cls-10" d="M799.18,737.23c14.05-7.08,42.23-18.03,50.3-20.12"/>
    <path class="cls-11" d="M891.61,745.19c5.98,3.89,12.06,7.57,18.53,10.76"/>
    <path class="cls-7" d="M885.04,609.14c-2.09-9.96-.7-19.13,.3-23.51"/>
    <path class="cls-37" d="M1021.79,669.2c-12.05-35.86-21.11-48.31-24-53.19,0,0-.1-.1-.1,0-27.49,10.56-58.96,11.75-77.89-9.56-18.62-21.12-15.04-54.29-14.84-56.28v-.1c1.1-.69,22.71-13.84,18.82-26.39-1.69-5.28-5.97-7.77-12.94-7.77-6.48,0-13.35,2.19-14.35,2.59q-.1,0-.1-.1c-1.59-8.07-.29-13.75,2.39-19.92q0-.1-.09-.1c-9.27,1.59-19.63-.6-21.62-6.18-1.89-3.58-1.19-8.66,1.89-12.94,.1-.1,0-.2-.1-.1-13.24,6.67-34.46,8.36-40.93,.79v-.1c5.38-22.21,28.28-32.77,52.99-32.97,25.2-1.19,47.61,19.13,46.71,43.73-.1,6.18-.4,22.81-1.3,35.56,0,.1,.1,.1,.1,.1,35.16-18.33,74.31-5.08,75.7,39.34,0,0,0,.1,.1,.1,65.04,13.65,53.19,85.16,9.76,103.59q-.2,0-.2-.1Z"/>
    <path class="cls-37" d="M940.82,408.44c40.44,1.29,40.44,59.96,0,61.15-40.44-1.29-40.44-59.96,0-61.15Z"/>
  </g>
  <g>
    <path class="cls-20" d="M89.34,797.07c8.13-21.97,28.12-49.82,45.84-74.59,2.8-3.98,5.69-7.87,8.41-11.75l.18-.18-82.01-19.81-3.71,1.81c-3.61,5.07-6.42,9.41-9.31,14.02-7.87,12.66-14.92,25.77-20.98,39.42-2.98,6.78-5.78,13.47-8.5,20.61l6.42,50.09,63.66-19.62Z"/>
    <path class="cls-32" d="M123.88,738.3c3.79-5.33,7.59-10.67,11.3-15.91,2.8-3.98,4.07-5.7,6.87-9.58l1.63-2.36-73.33-21.33-.18,.36c15.37,8.32,29.2,19.26,40.87,32.19,8.5,9.49,12.38,16.54,12.47,16.63l.18,.27,.19-.27Z"/>
    <path class="cls-20" d="M248.47,320.4c2.8,.9,5.79,1.35,8.77,1.26,8.14,0,15.01-2.8,18.35-7.5,5.52-7.51,5.61-16.28,.55-32.19,.54-.72,4.43-5.7,3.7-8.86-.45-1.81-3.16-3.17-7.95-3.8l-.45-1.54c-2.54-7.59-4.89-14.28-7.69-19.8-3.98-7.77-15.55-5.78-24.59-9.22-5.97-2.35-5.61-2.62-11.94-2.53-12.2,0-17-2.26-25.04,4.97-12.84,11.58-11.03,30.92-8.77,42.77l2.08,1.54c1.08,6.96-1,29.56,1.8,43.49v.18l50.37,2.8,1.8-5.42-.99-6.15Z"/>
    <path class="cls-32" d="M248.47,320.4l-6.96-2.81c-.27-.09-.45-.18-.73-.18-.54,0-1.08,.27-1.35,.73-.27,.45-.36,.99-.09,1.53l4.61,10.49,5.51-3.61-.99-6.15Z"/>
    <path class="cls-20" d="M254.26,802.05c.27-6.97,1.08-12.75,1.44-15.28,1.72-12.12,3.8-26.95,6.51-45.12l-17.36-148.28-59.94,123.5c-1.54,6.88-3.89,18.81-4.8,25.05-2.26,14.74-3.43,29.57-3.61,44.48,0,5.07-.09,10.22,.09,15.47l29.29,51.9,48.38-51.72Z"/>
    <path class="cls-32" d="M251.18,693.09l-5.88-90.95c-.18-2.36-3.34-2.99-4.34-.91l-55.96,115.46c-.09,.18-.18,.37-.18,.55-.37,1.62-.73,3.52-1.09,5.6-.72,3.44-1.45,7.33-2.08,10.76-.18,.82,.18,1.63,.82,2.17l18.17,14.92c.99,.81,2.44,.63,3.25-.27l46.93-55.61c.27-.54,.45-1.17,.36-1.72Z"/>
    <path class="cls-40" d="M293.32,867.78l.45-.9c-1.72-2.45-3.62-4.53-5.88-6.33-1.17-.91-2.53-2.08-4.16-3.35-6.15-4.88-14.56-11.57-20.25-17.54-6.78-7.23-9.95-20.26-9.22-37.62v-.18h-16.82c-6.78,0-13.02,3.7-16.28,9.58l-14.19,25.96c-.09,.09-.18,.09-.18,0l-3.71-20.26c-1.63-8.77-9.31-15.19-18.26-15.19h-8.14v.18c.63,21.88,2.89,43.41,7.05,64.84v.09l.63,.72h108.96Z"/>
    <path class="cls-20" d="M394.31,390.02c3.89-7.78,5.88-13.2,6.24-14.02,1.09-.27,10.58-2.62,18.81-14.64,.45,.9,2.17,3.61,5.24,3.61,2.17,0,4.52-1.26,7.14-3.89,6.24-6.23,7.06-10.66,6.6-13.29-.27-1.9-1.35-3.43-2.98-4.34,1.18-2.89,1.27-5.42,.27-7.59-.72-1.63-2.08-2.99-3.8-3.8,2.99-6.15-1.44-10.31-2.53-11.21,1.63-.81,3.08-1.63,4.52-2.44,8.77-4.61,14.47-7.6,14.47-11.58,0-1.8-1.18-3.97-6.78-3.97-6.06,0-15.82,2.71-26.13,7.23-10.85,4.7-21.07,10.94-30.2,18.44-8.05,6.88-17.9,16.46-29.84,28.94l.09,1.81,36.89,31.37,1.99-.63Z"/>
    <path class="cls-22" d="M161.49,503.13c10.03-15.01,20.88-22.79,21.7-23.42l84.54-.63,.27-.72,10.13-47.38c2.71,2.08,28.12,21.7,48.64,21.7,.63,0,1.27,0,1.9-.09,13.38-.82,39.69-9.95,65.55-62.48l.09-.09-38.97-32.55-.09,.09c-14.01,14.74-25.95,28.39-27.39,30.02-33.64-44.13-61.13-50.73-74.51-50.73h-1.81l-2.08-10.3h-53.61s1.17,5.87,1.44,7.14c-1.99,.27-18.62,3.16-30.11,15.82-5.06,5.43-22.69,12.57-29.65,30.47-4.25,10.67,2.17,28.84-.63,38.79-2.27,8.05-3.98,15.64-4.98,22.24-4.43,28.21,11.49,52.54,29.39,62.03l.18,.09Z"/>
    <path class="cls-29" d="M183.19,479.71l-.09-1.35-8.95-51.36c-7.33,2.62-8.68,11.84-10.13,21.7-1.18,7.68-2.35,15.55-6.24,21.79-7.14,11.48-15.55,15.1-15.55,15.1,5.24,7.5,11.93,13.65,18.99,17.36,0,0,21.79-23.15,21.97-23.24Z"/>
    <path class="cls-39" d="M134.36,418.95c1.36,0,2.44-.18,2.44-.18,0,0,1.99-6.42,2.54-7.96,5.42-14.82,7.14-20.88,16.63-41.68,7.06,3.44,17.45,5.07,25.32,4.97,10.58-.09,21.07-2.07,29.93-7.77,7.5-4.7,17-14.38,19.44-34.27,.9-7.32,.72-14.74-.36-21.97l-.09-.09s-24.24-10.94-18.9-26.94c1.35-4.16,4.97-6.33,10.58-6.33,8.22,0,18.26,4.61,18.26,4.61,.09-.09,10.13-12.12,2.62-24.32-.18-.28,.09-.64,.36-.55,2.36,.55,4.62,.91,7.06,.91,11.48,0,13.56-9.32,13.56-9.32v-.09c-4.34-8.5-9.77-13.56-17.99-16.63-5.97-2.35-12.3-3.53-18.63-3.44-12.21,0-23.87,4.07-32.01,11.3-12.2,11.03-9.85,31.47-7.14,45.66l.09,.27c-4.52-.63-9.04-.99-13.56-.99-15.73,0-43.76,3.98-54.88,30.47-5.7,13.74-7.33,34.18,5.33,50.63-2.17,.73-18.17,6.51-20.71,19.08-1.8,8.05,.28,16.46,5.52,22.79,5.97,7.05,15.82,11.84,24.59,11.84Z"/>
    <path class="cls-34" d="M262.21,741.65c1.18-7.96,2.35-15.82,3.53-23.42,2.53-17.18,4.88-33.09,6.06-41.59,12.29-89.24,1.44-177.67-3.8-198.1v-.18h-84.99c-31.47,26.76-42.5,59.22-58.59,104.79-7.96,22.42-15.28,36.44-28.75,59.31-5.88,9.95-12.75,18.27-19.44,26.31-3.62,4.34-6.97,8.41-10.04,12.57-3.07,4.07-5.79,7.69-8.23,11.21l145.21,34.99q.09,0,.09-.09l36.35-104.7c0-.09,.18-.09,.18,0l-.45,113.38q0,.09,.09,.09l22.78,5.43Z"/>
    <path class="cls-14" d="M239.97,622.75l11.12-144.39"/>
    <path class="cls-35" d="M298.47,881.98v-.19c.09-5.33-1.54-10.48-4.61-14.82l-.09-.09h-110.13v.18c.9,4.97,2.17,9.94,3.62,14.73l111.21,.19Z"/>
    <path class="cls-35" d="M102.08,881.88c2.17-4.88,2.81-10.39,1.63-15.73l-.54-.54L3.35,822.2l-.72,.36c-1.09,4.98-1.99,10.14-2.63,15.29v.09l102.08,43.94Z"/>
    <path class="cls-40" d="M103.35,865.97c.18,.09,.36-.09,.27-.27-.63-2.62-1.54-5.24-2.8-7.69-.54-1.08-1.27-2.44-1.99-3.88-3.53-6.78-8.95-17-12.12-25.05-3.16-8.23-2.35-18.62,2.54-31.92,0-.09,0-.18-.09-.27l-16.1-7.14c-5.97-2.62-12.93-1.81-18.26,1.99l-21.97,15.73c-.18,.09-.37,0-.37-.18l3.08-18.08c1.45-8.5-3.08-16.91-11.03-20.35l-5.34-2.35-.09,.18c-6.87,18.09-12.38,36.71-16.54,55.61,0,.09,0,.18,.09,.27l100.72,43.4Z"/>
    <path class="cls-17" d="M256.06,824.65l-16.81,3.53"/>
    <path class="cls-17" d="M260.86,836.31l-14.38,10.4"/>
    <path class="cls-17" d="M206.7,837.31l4.34,29.57"/>
    <path class="cls-17" d="M32.55,807.2l-6.23,25.77"/>
    <path class="cls-17" d="M84.82,817.87l-13.75,1.27"/>
    <path class="cls-17" d="M86.71,829.17l-14.01,5.34"/>
    <path class="cls-6" d="M174.15,427l8.95,51.36h84.9"/>
    <path class="cls-6" d="M162.39,455.66l16.37-2.89"/>
    <path class="cls-6" d="M327.86,387.58l9.04,12.02"/>
    <path class="cls-6" d="M278.13,430.98l-18.99-17.82"/>
    <path class="cls-9" d="M429.3,320.84c-7.41,.54-15.1,2.44-21.88,5.52"/>
    <path class="cls-9" d="M431.83,332.06c-8.77,.54-19.89,4.25-19.89,4.25"/>
    <path class="cls-9" d="M435.36,343.45c-4.97-.9-16.27,2.17-17.99,3.71"/>
    <path class="cls-9" d="M248.47,320.4c-4.52-1.9-6.96-2.81-6.96-2.81"/>
    <path class="cls-9" d="M228.4,291.1l6.33,3.62"/>
    <path class="cls-12" d="M155.97,369.13c-9.04-3.61-9.85-7.5-9.85-7.5"/>
    <path class="cls-12" d="M124.96,365.24c2.17,2.63,4.97,5.07,7.6,7.24"/>
    <path class="cls-12" d="M188.07,285.13l3.26,14.1"/>
    <path class="cls-9" d="M262.76,286.58c2.71,3.62,8.13,3.62,8.13,3.62"/>
    <path class="cls-42" d="M262.3,274.83c-1.24,0-2.26-1.02-2.26-2.26s1.02-2.26,2.26-2.26,2.26,1.01,2.26,2.26-1.01,2.26-2.26,2.26Z"/>
    <path class="cls-29" d="M278.13,430.98l-11.67-10.94c-.72-.55-3.16-.82-4.07-.82-1.26,0-2.35,1.36-3.16,2.35-.81,.91-1.09,2.17-.81,3.44,2.8,13.92,13.11,34,13.2,34.27l.36,.72,6.15-29.02Z"/>
  </g>
  <g>
    <path class="cls-18" d="M990.71,377.81l104.22,16.53"/>
    <path class="cls-18" d="M885.4,283.04l148.84-59.19"/>
    <path class="cls-18" d="M851.93,186.03l49.55-67.36"/>
  </g>
</svg>