<?xml version="1.0" encoding="UTF-8" standalone="no"?>
<!-- Created with Inkscape (http://www.inkscape.org/) -->

<svg
   version="1.1"
   id="svg2"
   width="317.73334"
   height="122.58667"
   viewBox="0 0 317.73334 122.58667"
   sodipodi:docname="thirdImg.eps"
   xmlns:inkscape="http://www.inkscape.org/namespaces/inkscape"
   xmlns:sodipodi="http://sodipodi.sourceforge.net/DTD/sodipodi-0.dtd"
   xmlns="http://www.w3.org/2000/svg"
   xmlns:svg="http://www.w3.org/2000/svg">
  <defs
     id="defs6" />
  <sodipodi:namedview
     id="namedview4"
     pagecolor="#ffffff"
     bordercolor="#000000"
     borderopacity="0.25"
     inkscape:showpageshadow="2"
     inkscape:pageopacity="0.0"
     inkscape:pagecheckerboard="0"
     inkscape:deskcolor="#d1d1d1" />
  <g
     id="g8"
     inkscape:groupmode="layer"
     inkscape:label="ink_ext_XXXXXX"
     transform="matrix(1.3333333,0,0,-1.3333333,0,122.58667)">
    <g
       id="g10"
       transform="scale(0.1)">
      <path
         d="m 1299.86,906.148 c 3.12,0.094 5.65,0.141 8.77,0.141 167.54,0 303.34,-135.805 303.34,-303.336 0,-167.531 -135.8,-303.336 -303.34,-303.336 h -242.92 v 286.906 h 287.39 v 22.438 h -287.39 v 297.187 h 234.15"
         style="fill:#ed1c24;fill-opacity:1;fill-rule:evenodd;stroke:none"
         id="path12" />
      <path
         d="M 0,299.992 H 486.848 V 586.813 H 261.602 V 906.195 H 0 V 299.992"
         style="fill:#231f20;fill-opacity:1;fill-rule:evenodd;stroke:none"
         id="path14" />
      <path
         d="m 395.566,547.742 c -43.523,39.016 -71.093,95.571 -71.093,158.5 0,117.719 95.429,213.149 213.156,213.149 90.164,0 167.234,-55.969 198.394,-135.071 l -85.769,-84.64 c 61.777,-40.555 102.48,-110.516 102.48,-190.016 0,-125.394 -101.66,-227.055 -227.07,-227.055 -107.656,0 -197.805,74.911 -221.172,175.454 l 91.074,89.679"
         style="fill:#ed1c24;fill-opacity:1;fill-rule:nonzero;stroke:none"
         id="path16" />
      <path
         d="m 611.492,906.148 h 282.16 V 737.117 h 22.012 l -0.019,169.031 H 1199.61 L 905.676,301.594 611.492,906.148"
         style="fill:#231f20;fill-opacity:1;fill-rule:evenodd;stroke:none"
         id="path18" />
      <path
         d="M 14.0039,154.219 H 41.8438 V 143.77 H 2.57813 v 91.671 H 14.0039 v -81.222"
         style="fill:#231f20;fill-opacity:1;fill-rule:nonzero;stroke:none"
         id="path20" />
      <path
         d="m 87.207,178.652 c -1.3398,8.516 -6.9336,14.231 -15.6836,14.231 -8.5156,0 -14.832,-6.074 -16.1718,-14.231 z m -32.4609,-8.261 c 0.1172,-9.727 6.6797,-18.848 17.1406,-18.848 8.3867,0 12.8828,4.258 17.0196,11.066 l 9.2382,-5.226 c -5.3476,-9.852 -15.3164,-15.567 -26.3828,-15.567 -17.3867,0 -27.9648,13.137 -27.9648,29.914 0,17.508 9.3672,30.633 27.7265,30.633 18.1094,0 26.6211,-13.371 26.6211,-30.273 v -1.699 H 54.7461"
         style="fill:#231f20;fill-opacity:1;fill-rule:nonzero;stroke:none"
         id="path22" />
      <path
         d="m 130.371,187.656 c -1.328,2.793 -4.121,4.981 -7.285,4.981 -3.047,0 -5.969,-2.422 -5.969,-5.586 0,-4.988 6.567,-7.176 13.254,-10.215 6.68,-3.035 13.145,-7.168 13.145,-16.172 0,-10.82 -9.004,-18.848 -19.59,-18.848 -8.262,0 -16.653,4.747 -19.696,12.774 l 9.364,4.258 c 2.304,-4.258 5.097,-7.305 10.332,-7.305 4.629,0 8.633,3.164 8.633,8.027 0,3.039 -1.454,4.504 -4.004,6.203 l -10.703,5.711 c -6.329,3.411 -10.938,6.575 -10.938,14.356 0,9.23 7.539,16.523 16.77,16.523 6.941,0 12.527,-3.758 15.554,-9.961 l -8.867,-4.746"
         style="fill:#231f20;fill-opacity:1;fill-rule:nonzero;stroke:none"
         id="path24" />
      <path
         d="m 200.164,172.219 c 0,11.062 -6.687,20.418 -18.484,20.418 -11.309,0 -17.989,-9.844 -17.989,-20.418 0,-10.703 6.446,-20.676 17.989,-20.676 11.925,0 18.484,9.492 18.484,20.676 z m -46.805,77.078 h 10.938 v -58.113 h 0.242 c 4.504,6.804 11.32,11.179 19.816,11.179 16.426,0 26.75,-14.218 26.75,-29.785 0,-16.289 -9.718,-30.762 -27.238,-30.762 -8.008,0 -14.953,4.375 -19.328,10.821 h -0.242 v -8.867 h -10.938 v 105.527"
         style="fill:#231f20;fill-opacity:1;fill-rule:nonzero;stroke:none"
         id="path26" />
      <path
         d="m 260.84,178.652 c -1.328,8.516 -6.926,14.231 -15.676,14.231 -8.516,0 -14.832,-6.074 -16.172,-14.231 z m -32.461,-8.261 c 0.137,-9.727 6.699,-18.848 17.148,-18.848 8.387,0 12.891,4.258 17.024,11.066 l 9.246,-5.226 c -5.352,-9.852 -15.332,-15.567 -26.399,-15.567 -17.378,0 -27.957,13.137 -27.957,29.914 0,17.508 9.368,30.633 27.723,30.633 18.117,0 26.633,-13.371 26.633,-30.273 v -1.699 h -43.418"
         style="fill:#231f20;fill-opacity:1;fill-rule:nonzero;stroke:none"
         id="path28" />
      <path
         d="m 292.109,193.008 h 0.235 c 3.398,6.074 10.215,9.355 17.148,9.355 16.035,0 20.176,-10.82 20.176,-24.675 V 143.77 H 318.73 v 32.578 c 0,9.726 -1.347,16.289 -12.519,16.289 -14.102,0 -14.102,-12.395 -14.102,-22.735 V 143.77 h -10.957 v 56.894 h 10.957 v -7.656"
         style="fill:#231f20;fill-opacity:1;fill-rule:nonzero;stroke:none"
         id="path30" />
      <path
         d="m 370.781,187.285 v -9.109 h -26.633 v 9.109 h 26.633"
         style="fill:#231f20;fill-opacity:1;fill-rule:nonzero;stroke:none"
         id="path32" />
      <path
         d="M 430.723,200.664 V 169.18 c 0,-9.121 2.304,-17.149 13.125,-17.149 10.82,0 13.144,8.028 13.144,17.149 v 31.484 h 10.938 v -32.703 c 0,-15.559 -7.293,-26.145 -24.082,-26.145 -16.778,0 -24.075,10.586 -24.075,26.145 v 32.703 h 10.95"
         style="fill:#231f20;fill-opacity:1;fill-rule:nonzero;stroke:none"
         id="path34" />
      <path
         d="m 493.457,193.008 h 0.254 c 3.406,6.074 10.215,9.355 17.148,9.355 16.036,0 20.176,-10.82 20.176,-24.675 V 143.77 H 520.09 v 32.578 c 0,9.726 -1.328,16.289 -12.512,16.289 -14.121,0 -14.121,-12.395 -14.121,-22.735 V 143.77 H 482.52 v 56.894 h 10.937 v -7.656"
         style="fill:#231f20;fill-opacity:1;fill-rule:nonzero;stroke:none"
         id="path36" />
      <path
         d="m 589.16,172.219 c 0,11.062 -6.68,20.418 -18.476,20.418 -11.309,0 -17.989,-9.844 -17.989,-20.418 0,-10.703 6.446,-20.676 17.989,-20.676 11.914,0 18.476,9.492 18.476,20.676 z m -0.605,-19.582 h -0.254 c -4.375,-6.446 -11.297,-10.821 -19.317,-10.821 -17.519,0 -27.246,14.473 -27.246,30.762 0,15.567 10.34,29.785 26.758,29.785 8.508,0 15.313,-4.375 19.805,-11.179 h 0.254 v 58.113 h 10.937 V 143.77 h -10.937 v 8.867"
         style="fill:#231f20;fill-opacity:1;fill-rule:nonzero;stroke:none"
         id="path38" />
      <path
         d="m 690.82,218.059 c -3.398,5.711 -7.793,8.632 -14.715,8.632 -7.296,0 -15.312,-4.992 -15.312,-13.019 0,-7.168 7.039,-10.938 12.762,-13.125 l 6.562,-2.559 c 13.008,-5.105 22.735,-12.273 22.735,-27.597 0,-16.661 -12.891,-28.575 -29.297,-28.575 -14.832,0 -26.387,10.95 -28.321,25.664 l 11.543,2.422 c -0.129,-10.086 7.911,-17.382 17.754,-17.382 9.844,0 16.895,8.273 16.895,17.871 0,9.851 -7.903,14.101 -15.801,17.394 l -6.328,2.664 c -10.457,4.504 -19.942,10.461 -19.942,23.223 0,14.836 13.145,23.711 26.993,23.711 10.215,0 18.613,-4.981 23.593,-13.856 l -9.121,-5.468"
         style="fill:#231f20;fill-opacity:1;fill-rule:nonzero;stroke:none"
         id="path40" />
      <path
         d="m 755.996,184.492 c -4.375,4.981 -9.726,7.668 -16.289,7.668 -10.703,0 -18.965,-9.484 -18.965,-19.941 0,-11.672 8.145,-20.188 19.688,-20.188 6.328,0 11.425,2.922 15.566,7.539 v -13.984 c -4.98,-2.676 -9.973,-3.77 -15.683,-3.77 -16.778,0 -30.508,12.891 -30.508,29.914 0,17.625 13.613,30.633 31.113,30.633 5.105,0 10.703,-1.211 15.078,-3.758 v -14.113"
         style="fill:#231f20;fill-opacity:1;fill-rule:nonzero;stroke:none"
         id="path42" />
      <path
         d="m 778.75,249.297 v -56.289 h 0.234 c 3.399,6.074 10.215,9.355 17.149,9.355 16.035,0 20.176,-10.82 20.176,-24.675 V 143.77 h -10.938 v 32.578 c 0,9.726 -1.348,16.289 -12.519,16.289 -14.102,0 -14.102,-12.395 -14.102,-22.735 V 143.77 h -10.957 v 105.527 h 10.957"
         style="fill:#231f20;fill-opacity:1;fill-rule:nonzero;stroke:none"
         id="path44" />
      <path
         d="m 850.84,164.434 16.777,39.394 16.66,-39.394 16.543,36.23 h 12.395 l -28.938,-58.848 -16.66,38.059 -16.777,-38.059 -28.926,58.848 h 12.395 l 16.531,-36.23"
         style="fill:#231f20;fill-opacity:1;fill-rule:nonzero;stroke:none"
         id="path46" />
      <path
         d="M 929.148,200.664 V 169.18 c 0,-9.121 2.317,-17.149 13.137,-17.149 10.82,0 13.125,8.028 13.125,17.149 v 31.484 h 10.938 v -32.703 c 0,-15.559 -7.285,-26.145 -24.063,-26.145 -16.777,0 -24.07,10.586 -24.07,26.145 v 32.703 h 10.933"
         style="fill:#231f20;fill-opacity:1;fill-rule:nonzero;stroke:none"
         id="path48" />
      <path
         d="m 992.383,143.77 h -10.938 v 105.527 h 10.938 V 143.77"
         style="fill:#231f20;fill-opacity:1;fill-rule:nonzero;stroke:none"
         id="path50" />
      <path
         d="m 1046.97,178.652 c -1.34,8.516 -6.93,14.231 -15.68,14.231 -8.52,0 -14.83,-6.074 -16.17,-14.231 z m -32.46,-8.261 c 0.12,-9.727 6.68,-18.848 17.15,-18.848 8.38,0 12.88,4.258 17.01,11.066 l 9.24,-5.226 c -5.35,-9.852 -15.31,-15.567 -26.38,-15.567 -17.38,0 -27.96,13.137 -27.96,29.914 0,17.508 9.36,30.633 27.72,30.633 18.12,0 26.62,-13.371 26.62,-30.273 v -1.699 h -43.4"
         style="fill:#231f20;fill-opacity:1;fill-rule:nonzero;stroke:none"
         id="path52" />
      <path
         d="m 1078.22,193.008 h 0.26 c 3.4,6.074 10.2,9.355 17.13,9.355 16.05,0 20.18,-10.82 20.18,-24.675 V 143.77 h -10.94 v 32.578 c 0,9.726 -1.33,16.289 -12.53,16.289 -14.1,0 -14.1,-12.395 -14.1,-22.735 V 143.77 h -10.93 v 56.894 h 10.93 v -7.656"
         style="fill:#231f20;fill-opacity:1;fill-rule:nonzero;stroke:none"
         id="path54" />
      <path
         d="m 1150.33,165.168 16.41,35.496 h 12.28 l -28.69,-58.848 -28.57,58.848 h 12.28 l 16.29,-35.496"
         style="fill:#231f20;fill-opacity:1;fill-rule:nonzero;stroke:none"
         id="path56" />
      <path
         d="m 1224,178.652 c -1.32,8.516 -6.92,14.231 -15.67,14.231 -8.51,0 -14.83,-6.074 -16.17,-14.231 z m -32.46,-8.261 c 0.14,-9.727 6.7,-18.848 17.15,-18.848 8.39,0 12.89,4.258 17.02,11.066 l 9.25,-5.226 c -5.35,-9.852 -15.33,-15.567 -26.39,-15.567 -17.38,0 -27.96,13.137 -27.96,29.914 0,17.508 9.36,30.633 27.72,30.633 18.12,0 26.63,-13.371 26.63,-30.273 v -1.699 h -43.42"
         style="fill:#231f20;fill-opacity:1;fill-rule:nonzero;stroke:none"
         id="path58" />
      <path
         d="m 1256,191.426 h 0.37 c 2.66,6.679 8.26,10.937 15.55,10.937 3.16,0 6.32,-1.093 9,-2.793 l -4.98,-9.968 c -1.96,1.707 -4.14,2.312 -6.7,2.312 -11.78,0 -13.24,-10.945 -13.24,-20.184 v -27.96 h -10.95 v 56.894 H 1256 v -9.238"
         style="fill:#231f20;fill-opacity:1;fill-rule:nonzero;stroke:none"
         id="path60" />
      <path
         d="m 1332.97,172.219 c 0,11.062 -6.7,20.418 -18.5,20.418 -11.3,0 -17.99,-9.844 -17.99,-20.418 0,-10.703 6.45,-20.676 17.99,-20.676 11.92,0 18.5,9.492 18.5,20.676 z m -46.82,77.078 h 10.94 v -58.113 h 0.25 c 4.5,6.804 11.3,11.179 19.81,11.179 16.41,0 26.76,-14.218 26.76,-29.785 0,-16.289 -9.73,-30.762 -27.25,-30.762 -8.02,0 -14.94,4.375 -19.32,10.821 h -0.25 v -8.867 h -10.94 v 105.527"
         style="fill:#231f20;fill-opacity:1;fill-rule:nonzero;stroke:none"
         id="path62" />
      <path
         d="m 1397.66,172.219 c 0,11.062 -6.7,20.418 -18.5,20.418 -11.3,0 -17.99,-9.844 -17.99,-20.418 0,-10.703 6.45,-20.676 17.99,-20.676 11.93,0 18.5,9.492 18.5,20.676 z m 10.33,-28.449 h -10.95 v 8.867 h -0.24 c -4.38,-6.446 -11.19,-10.821 -19.33,-10.821 -17.39,0 -27.24,14.473 -27.24,30.762 0,15.567 10.34,29.785 26.88,29.785 8.38,0 15.19,-4.375 19.69,-11.179 h 0.24 v 9.48 h 10.95 V 143.77"
         style="fill:#231f20;fill-opacity:1;fill-rule:nonzero;stroke:none"
         id="path64" />
      <path
         d="m 1433.16,193.008 h 0.25 c 3.4,6.074 10.2,9.355 17.14,9.355 16.05,0 20.17,-10.82 20.17,-24.675 V 143.77 h -10.93 v 32.578 c 0,9.726 -1.34,16.289 -12.52,16.289 -14.11,0 -14.11,-12.395 -14.11,-22.735 V 143.77 h -10.93 v 56.894 h 10.93 v -7.656"
         style="fill:#231f20;fill-opacity:1;fill-rule:nonzero;stroke:none"
         id="path66" />
      <path
         d="m 1528.85,172.219 c 0,11.062 -6.68,20.418 -18.48,20.418 -11.31,0 -17.99,-9.844 -17.99,-20.418 0,-10.703 6.45,-20.676 17.99,-20.676 11.92,0 18.48,9.492 18.48,20.676 z m -0.61,-19.582 h -0.23 c -4.38,-6.446 -11.31,-10.821 -19.34,-10.821 -17.5,0 -27.22,14.473 -27.22,30.762 0,15.567 10.32,29.785 26.73,29.785 8.52,0 15.32,-4.375 19.83,-11.179 h 0.23 v 58.113 h 10.95 V 143.77 h -10.95 v 8.867"
         style="fill:#231f20;fill-opacity:1;fill-rule:nonzero;stroke:none"
         id="path68" />
      <path
         d="M 14.0039,14.2188 H 41.8438 V 3.76953 H 2.57813 V 95.4414 H 14.0039 V 14.2188"
         style="fill:#231f20;fill-opacity:1;fill-rule:nonzero;stroke:none"
         id="path70" />
      <path
         d="m 91.2109,32.2188 c 0,11.0625 -6.6796,20.4179 -18.4765,20.4179 -11.3086,0 -17.9883,-9.8437 -17.9883,-20.4179 0,-10.7032 6.4414,-20.6758 17.9883,-20.6758 11.914,0 18.4765,9.4922 18.4765,20.6758 z M 101.563,3.76953 H 90.6055 V 12.6367 H 90.3711 C 85.9922,6.19141 79.1797,1.81641 71.0352,1.81641 c -17.3868,0 -27.2383,14.47269 -27.2383,30.76169 0,15.5664 10.3398,29.7852 26.8711,29.7852 8.3906,0 15.1992,-4.375 19.7031,-11.1797 h 0.2344 v 9.4805 H 101.563 V 3.76953"
         style="fill:#231f20;fill-opacity:1;fill-rule:nonzero;stroke:none"
         id="path72" />
      <path
         d="m 126.73,53.0078 h 0.243 c 3.398,6.0742 10.215,9.3555 17.148,9.3555 16.043,0 20.176,-10.8203 20.176,-24.6758 V 3.76953 H 153.359 V 36.3477 c 0,9.7265 -1.347,16.289 -12.531,16.289 -14.098,0 -14.098,-12.3945 -14.098,-22.7344 V 3.76953 H 115.789 V 60.6641 h 10.941 v -7.6563"
         style="fill:#231f20;fill-opacity:1;fill-rule:nonzero;stroke:none"
         id="path74" />
      <path
         d="m 222.422,32.2188 c 0,11.0625 -6.68,20.4179 -18.477,20.4179 -11.308,0 -18,-9.8437 -18,-20.4179 0,-10.7032 6.45,-20.6758 18,-20.6758 11.914,0 18.477,9.4922 18.477,20.6758 z M 221.816,12.6367 H 221.57 C 217.195,6.19141 210.273,1.81641 202.246,1.81641 c -17.519,0 -27.234,14.47269 -27.234,30.76169 0,15.5664 10.32,29.7852 26.746,29.7852 8.515,0 15.312,-4.375 19.812,-11.1797 h 0.246 v 58.1134 h 10.938 V 3.76953 h -10.938 v 8.86717"
         style="fill:#231f20;fill-opacity:1;fill-rule:nonzero;stroke:none"
         id="path76" />
      <path
         d="m 286.023,38.6523 c -1.335,8.5157 -6.941,14.2305 -15.691,14.2305 -8.516,0 -14.824,-6.0742 -16.172,-14.2305 z m -32.468,-8.2617 c 0.129,-9.7265 6.687,-18.8476 17.148,-18.8476 8.379,0 12.891,4.2578 17.031,11.0664 l 9.231,-5.2266 C 291.621,7.53125 281.641,1.81641 270.586,1.81641 c -17.383,0 -27.969,13.13669 -27.969,29.91409 0,17.5078 9.356,30.6328 27.715,30.6328 18.113,0 26.633,-13.3711 26.633,-30.2735 v -1.6992 h -43.41"
         style="fill:#231f20;fill-opacity:1;fill-rule:nonzero;stroke:none"
         id="path78" />
      <path
         d="m 329.188,47.6563 c -1.336,2.7929 -4.129,4.9804 -7.293,4.9804 -3.047,0 -5.957,-2.4219 -5.957,-5.5859 0,-4.9883 6.562,-7.1758 13.25,-10.2149 6.691,-3.0351 13.136,-7.1679 13.136,-16.1718 0,-10.82035 -9.004,-18.84769 -19.582,-18.84769 -8.269,0 -16.648,4.74609 -19.695,12.77339 l 9.375,4.2579 c 2.305,-4.2579 5.098,-7.3047 10.32,-7.3047 4.621,0 8.637,3.164 8.637,8.0273 0,3.0391 -1.457,4.5039 -4.016,6.2031 l -10.703,5.711 c -6.308,3.4101 -10.937,6.5742 -10.937,14.3554 0,9.2305 7.539,16.5235 16.777,16.5235 6.934,0 12.52,-3.7578 15.566,-9.961 l -8.878,-4.746"
         style="fill:#231f20;fill-opacity:1;fill-rule:nonzero;stroke:none"
         id="path80" />
      <path
         d="m 372.48,25.168 16.407,35.4961 h 12.285 L 372.48,1.81641 343.906,60.6641 h 12.278 L 372.48,25.168"
         style="fill:#231f20;fill-opacity:1;fill-rule:nonzero;stroke:none"
         id="path82" />
      <path
         d="m 446.172,38.6523 c -1.348,8.5157 -6.942,14.2305 -15.692,14.2305 -8.515,0 -14.835,-6.0742 -16.171,-14.2305 z m -32.481,-8.2617 c 0.137,-9.7265 6.7,-18.8476 17.149,-18.8476 8.39,0 12.89,4.2578 17.031,11.0664 l 9.238,-5.2266 C 451.758,7.53125 441.777,1.81641 430.723,1.81641 c -17.383,0 -27.969,13.13669 -27.969,29.91409 0,17.5078 9.363,30.6328 27.726,30.6328 18.114,0 26.629,-13.3711 26.629,-30.2735 v -1.6992 h -43.418"
         style="fill:#231f20;fill-opacity:1;fill-rule:nonzero;stroke:none"
         id="path84" />
      <path
         d="m 478.145,51.4258 h 0.371 c 2.668,6.6797 8.261,10.9375 15.554,10.9375 3.157,0 6.328,-1.0938 8.996,-2.793 l -4.98,-9.9687 c -1.953,1.707 -4.141,2.3125 -6.68,2.3125 -11.797,0 -13.261,-10.9453 -13.261,-20.1836 V 3.76953 H 467.207 V 60.6641 h 10.938 v -9.2383"
         style="fill:#231f20;fill-opacity:1;fill-rule:nonzero;stroke:none"
         id="path86" />
      <path
         d="m 555.117,32.2188 c 0,11.0625 -6.699,20.4179 -18.476,20.4179 -11.321,0 -18.008,-9.8437 -18.008,-20.4179 0,-10.7032 6.445,-20.6758 18.008,-20.6758 11.894,0 18.476,9.4922 18.476,20.6758 z m -46.816,77.0782 h 10.937 V 51.1836 h 0.254 c 4.492,6.8047 11.301,11.1797 19.817,11.1797 16.414,0 26.746,-14.2188 26.746,-29.7852 0,-16.289 -9.727,-30.76169 -27.227,-30.76169 -8.035,0 -14.961,4.375 -19.336,10.82029 h -0.254 V 3.76953 H 508.301 V 109.297"
         style="fill:#231f20;fill-opacity:1;fill-rule:nonzero;stroke:none"
         id="path88" />
      <path
         d="m 619.805,32.2188 c 0,11.0625 -6.68,20.4179 -18.477,20.4179 -11.316,0 -18,-9.8437 -18,-20.4179 0,-10.7032 6.445,-20.6758 18,-20.6758 11.914,0 18.477,9.4922 18.477,20.6758 z M 630.137,3.76953 h -10.938 v 8.86717 h -0.254 C 614.57,6.19141 607.773,1.81641 599.617,1.81641 c -17.39,0 -27.234,14.47269 -27.234,30.76169 0,15.5664 10.332,29.7852 26.875,29.7852 8.379,0 15.195,-4.375 19.687,-11.1797 h 0.254 v 9.4805 h 10.938 V 3.76953"
         style="fill:#231f20;fill-opacity:1;fill-rule:nonzero;stroke:none"
         id="path90" />
      <path
         d="m 655.313,53.0078 h 0.246 c 3.406,6.0742 10.222,9.3555 17.136,9.3555 16.055,0 20.196,-10.8203 20.196,-24.6758 V 3.76953 H 681.934 V 36.3477 c 0,9.7265 -1.329,16.289 -12.52,16.289 -14.101,0 -14.101,-12.3945 -14.101,-22.7344 V 3.76953 H 644.375 V 60.6641 h 10.938 v -7.6563"
         style="fill:#231f20;fill-opacity:1;fill-rule:nonzero;stroke:none"
         id="path92" />
      <path
         d="m 751.016,32.2188 c 0,11.0625 -6.7,20.4179 -18.496,20.4179 -11.297,0 -17.989,-9.8437 -17.989,-20.4179 0,-10.7032 6.446,-20.6758 17.989,-20.6758 11.933,0 18.496,9.4922 18.496,20.6758 z m -0.618,-19.5821 h -0.242 C 745.781,6.19141 738.848,1.81641 730.828,1.81641 c -17.508,0 -27.234,14.47269 -27.234,30.76169 0,15.5664 10.332,29.7852 26.738,29.7852 8.516,0 15.332,-4.375 19.824,-11.1797 h 0.242 v 58.1134 h 10.95 V 3.76953 h -10.95 v 8.86717"
         style="fill:#231f20;fill-opacity:1;fill-rule:nonzero;stroke:none"
         id="path94" />
      <path
         d="m 810.84,99.8164 68.816,-72.1016 v 67.7266 h 11.438 V 0 L 822.266,72.0898 V 3.76953 H 810.84 V 99.8164"
         style="fill:#231f20;fill-opacity:1;fill-rule:nonzero;stroke:none"
         id="path96" />
      <path
         d="m 912.012,32.0898 c 0,-10.6914 8.633,-19.8125 19.453,-19.8125 10.82,0 19.453,9.1211 19.453,19.8125 0,10.8204 -8.633,19.8243 -19.453,19.8243 -10.82,0 -19.453,-9.0039 -19.453,-19.8243 z m 49.843,0 c 0,-17.1367 -13.371,-30.27339 -30.39,-30.27339 -17.031,0 -30.402,13.13669 -30.402,30.27339 0,17.1485 13.371,30.2735 30.402,30.2735 17.019,0 30.39,-13.125 30.39,-30.2735"
         style="fill:#231f20;fill-opacity:1;fill-rule:nonzero;stroke:none"
         id="path98" />
      <path
         d="m 983.516,51.4258 h 0.363 c 2.664,6.6797 8.269,10.9375 15.555,10.9375 3.166,0 6.326,-1.0938 9.006,-2.793 l -4.99,-9.9687 c -1.95,1.707 -4.134,2.3125 -6.692,2.3125 -11.785,0 -13.242,-10.9453 -13.242,-20.1836 V 3.76953 H 972.559 V 60.6641 h 10.957 v -9.2383"
         style="fill:#231f20;fill-opacity:1;fill-rule:nonzero;stroke:none"
         id="path100" />
      <path
         d="m 1057.56,32.2188 c 0,11.0625 -6.69,20.4179 -18.49,20.4179 -11.3,0 -18,-9.8437 -18,-20.4179 0,-10.7032 6.45,-20.6758 18,-20.6758 11.93,0 18.49,9.4922 18.49,20.6758 z m -0.61,-19.5821 h -0.25 c -4.38,-6.44529 -11.3,-10.82029 -19.32,-10.82029 -17.52,0 -27.24,14.47269 -27.24,30.76169 0,15.5664 10.33,29.7852 26.74,29.7852 8.52,0 15.33,-4.375 19.82,-11.1797 h 0.25 v 58.1134 h 10.94 V 3.76953 h -10.94 v 8.86717"
         style="fill:#231f20;fill-opacity:1;fill-rule:nonzero;stroke:none"
         id="path102" />
      <path
         d="m 1093.8,51.4258 h 0.36 c 2.68,6.6797 8.27,10.9375 15.57,10.9375 3.16,0 6.32,-1.0938 8.99,-2.793 l -4.99,-9.9687 c -1.93,1.707 -4.12,2.3125 -6.68,2.3125 -11.8,0 -13.25,-10.9453 -13.25,-20.1836 V 3.76953 h -10.95 V 60.6641 h 10.95 v -9.2383"
         style="fill:#231f20;fill-opacity:1;fill-rule:nonzero;stroke:none"
         id="path104" />
      <path
         d="M 1135.74,109.297 V 53.0078 h 0.26 c 3.39,6.0742 10.21,9.3555 17.13,9.3555 16.05,0 20.19,-10.8203 20.19,-24.6758 V 3.76953 h -10.94 V 36.3477 c 0,9.7265 -1.34,16.289 -12.53,16.289 -14.11,0 -14.11,-12.3945 -14.11,-22.7344 V 3.76953 H 1124.8 V 109.297 h 10.94"
         style="fill:#231f20;fill-opacity:1;fill-rule:nonzero;stroke:none"
         id="path106" />
      <path
         d="m 1227.42,38.6523 c -1.33,8.5157 -6.93,14.2305 -15.68,14.2305 -8.52,0 -14.83,-6.0742 -16.17,-14.2305 z m -32.46,-8.2617 c 0.13,-9.7265 6.69,-18.8476 17.15,-18.8476 8.38,0 12.89,4.2578 17.01,11.0664 l 9.25,-5.2266 c -5.35,-9.85155 -15.32,-15.56639 -26.38,-15.56639 -17.38,0 -27.97,13.13669 -27.97,29.91409 0,17.5078 9.36,30.6328 27.72,30.6328 18.12,0 26.63,-13.3711 26.63,-30.2735 v -1.6992 h -43.41"
         style="fill:#231f20;fill-opacity:1;fill-rule:nonzero;stroke:none"
         id="path108" />
      <path
         d="m 1261.11,3.76953 h -10.94 V 60.6641 h 10.94 z m 2.06,82.92187 c 0,-4.1328 -3.39,-7.4219 -7.54,-7.4219 -4.13,0 -7.52,3.2891 -7.52,7.4219 0,4.2461 3.39,7.6563 7.52,7.6563 4.15,0 7.54,-3.4102 7.54,-7.6563"
         style="fill:#231f20;fill-opacity:1;fill-rule:nonzero;stroke:none"
         id="path110" />
      <path
         d="m 1289.55,53.0078 h 0.25 c 3.4,6.0742 10.22,9.3555 17.15,9.3555 16.04,0 20.18,-10.8203 20.18,-24.6758 V 3.76953 h -10.94 V 36.3477 c 0,9.7265 -1.34,16.289 -12.52,16.289 -14.12,0 -14.12,-12.3945 -14.12,-22.7344 V 3.76953 h -10.94 V 60.6641 h 10.94 v -7.6563"
         style="fill:#231f20;fill-opacity:1;fill-rule:nonzero;stroke:none"
         id="path112" />
      <path
         d="m 1368.22,47.2852 v -9.1094 h -26.62 v 9.1094 h 26.62"
         style="fill:#231f20;fill-opacity:1;fill-rule:nonzero;stroke:none"
         id="path114" />
      <path
         d="m 1411.64,29.7852 25.9,67.5976 25.9,-67.5976 25.64,65.6562 h 12.4 L 1463.44,0.117188 1437.54,67.3555 1411.64,0.117188 1373.57,95.4414 h 12.42 l 25.65,-65.6562"
         style="fill:#231f20;fill-opacity:1;fill-rule:nonzero;stroke:none"
         id="path116" />
      <path
         d="m 1546.48,38.6523 c -1.32,8.5157 -6.93,14.2305 -15.68,14.2305 -8.51,0 -14.82,-6.0742 -16.17,-14.2305 z m -32.46,-8.2617 c 0.13,-9.7265 6.69,-18.8476 17.15,-18.8476 8.38,0 12.89,4.2578 17.01,11.0664 l 9.25,-5.2266 c -5.35,-9.85155 -15.32,-15.56639 -26.38,-15.56639 -17.38,0 -27.96,13.13669 -27.96,29.91409 0,17.5078 9.35,30.6328 27.71,30.6328 18.13,0 26.63,-13.3711 26.63,-30.2735 v -1.6992 h -43.41"
         style="fill:#231f20;fill-opacity:1;fill-rule:nonzero;stroke:none"
         id="path118" />
      <path
         d="m 1589.66,47.6563 c -1.34,2.7929 -4.13,4.9804 -7.3,4.9804 -3.04,0 -5.95,-2.4219 -5.95,-5.5859 0,-4.9883 6.56,-7.1758 13.25,-10.2149 6.69,-3.0351 13.12,-7.1679 13.12,-16.1718 0,-10.82035 -8.99,-18.84769 -19.57,-18.84769 -8.27,0 -16.65,4.74609 -19.69,12.77339 l 9.35,4.2579 c 2.33,-4.2579 5.12,-7.3047 10.34,-7.3047 4.62,0 8.64,3.164 8.64,8.0273 0,3.0391 -1.46,4.5039 -4.02,6.2031 l -10.7,5.711 c -6.33,3.4101 -10.94,6.5742 -10.94,14.3554 0,9.2305 7.54,16.5235 16.78,16.5235 6.93,0 12.52,-3.7578 15.57,-9.961 l -8.88,-4.746"
         style="fill:#231f20;fill-opacity:1;fill-rule:nonzero;stroke:none"
         id="path120" />
      <path
         d="m 1626.02,3.76953 h -10.94 V 50.4492 h -5.96 v 10.2149 h 5.96 v 21.7695 h 10.94 V 60.6641 h 10.7 V 50.4492 h -10.7 V 3.76953"
         style="fill:#231f20;fill-opacity:1;fill-rule:nonzero;stroke:none"
         id="path122" />
      <path
         d="m 1670.88,98.2344 c -2.19,0.9765 -4.98,2.3126 -7.29,2.3126 -7.79,0 -7.79,-9.8517 -7.79,-15.4493 V 60.6641 h 15.08 V 50.4492 H 1655.8 V 3.76953 h -10.94 V 50.4492 h -4.98 v 10.2149 h 4.98 v 27.7148 c 0,12.4141 4.26,22.3831 18.36,22.3831 2.68,0 5.23,-0.489 7.66,-1.465 V 98.2344"
         style="fill:#231f20;fill-opacity:1;fill-rule:nonzero;stroke:none"
         id="path124" />
      <path
         d="m 1719.15,32.2188 c 0,11.0625 -6.69,20.4179 -18.49,20.4179 -11.3,0 -17.98,-9.8437 -17.98,-20.4179 0,-10.7032 6.44,-20.6758 17.98,-20.6758 11.93,0 18.49,9.4922 18.49,20.6758 z m 10.34,-28.44927 h -10.95 v 8.86717 h -0.24 c -4.37,-6.44529 -11.19,-10.82029 -19.34,-10.82029 -17.38,0 -27.22,14.47269 -27.22,30.76169 0,15.5664 10.33,29.7852 26.86,29.7852 8.39,0 15.2,-4.375 19.7,-11.1797 h 0.24 v 9.4805 h 10.95 V 3.76953"
         style="fill:#231f20;fill-opacity:1;fill-rule:nonzero;stroke:none"
         id="path126" />
      <path
         d="M 1755.16,3.76953 H 1744.2 V 109.297 h 10.96 V 3.76953"
         style="fill:#231f20;fill-opacity:1;fill-rule:nonzero;stroke:none"
         id="path128" />
      <path
         d="m 1809.74,38.6523 c -1.34,8.5157 -6.93,14.2305 -15.68,14.2305 -8.51,0 -14.84,-6.0742 -16.17,-14.2305 z m -32.46,-8.2617 c 0.12,-9.7265 6.68,-18.8476 17.14,-18.8476 8.39,0 12.88,4.2578 17.03,11.0664 l 9.23,-5.2266 c -5.35,-9.85155 -15.32,-15.56639 -26.38,-15.56639 -17.39,0 -27.96,13.13669 -27.96,29.91409 0,17.5078 9.36,30.6328 27.72,30.6328 18.11,0 26.62,-13.3711 26.62,-30.2735 v -1.6992 h -43.4"
         style="fill:#231f20;fill-opacity:1;fill-rule:nonzero;stroke:none"
         id="path130" />
      <path
         d="m 1841,53.0078 h 0.23 c 3.4,6.0742 10.22,9.3555 17.15,9.3555 16.04,0 20.17,-10.8203 20.17,-24.6758 V 3.76953 h -10.93 V 36.3477 c 0,9.7265 -1.35,16.289 -12.52,16.289 -14.1,0 -14.1,-12.3945 -14.1,-22.7344 V 3.76953 h -10.95 V 60.6641 H 1841 v -7.6563"
         style="fill:#231f20;fill-opacity:1;fill-rule:nonzero;stroke:none"
         id="path132" />
    </g>
  </g>
</svg>
