<svg width="30" height="27" viewBox="0 0 30 27" fill="none" xmlns="http://www.w3.org/2000/svg">
<path d="M13.8819 0.00227696C13.5115 0.00340667 13.1019 0.166085 12.7281 0.53098L6.12923 7.83906H1.15385C0.518077 7.83906 0 8.3463 0 8.96877V18.0064C0 18.6289 0.518077 19.1361 1.15385 19.1361H6.13038L12.6923 26.4092C13.8462 27.5389 15 26.9605 15 25.4207V1.37713C15 0.483532 14.5004 -0.00337155 13.8819 1.75738e-05V0.00227696ZM22.2473 2.26169C22.0019 2.30361 21.777 2.42215 21.6061 2.59961C21.4352 2.77706 21.3275 3.0039 21.2992 3.24622C21.2709 3.48853 21.3235 3.73331 21.449 3.94396C21.5746 4.15462 21.7664 4.31983 21.9958 4.41491C23.7123 5.25986 25.1546 6.55626 26.1607 8.15876C27.1669 9.76127 27.6973 11.6065 27.6923 13.4876C27.6923 17.4687 25.3846 20.8872 21.9946 22.5603C21.8403 22.6128 21.6992 22.6969 21.5806 22.8068C21.462 22.9167 21.3685 23.0501 21.3065 23.198C21.2444 23.3459 21.2151 23.5051 21.2206 23.6649C21.226 23.8247 21.2661 23.9816 21.3381 24.1252C21.4101 24.2687 21.5124 24.3957 21.6382 24.4976C21.7641 24.5996 21.9106 24.6742 22.0681 24.7166C22.2256 24.7589 22.3905 24.7681 22.5519 24.7434C22.7132 24.7187 22.8674 24.6608 23.0042 24.5734C27.15 22.5253 30 18.3318 30 13.4876C30 8.64341 27.1488 4.44994 23.0042 2.40178C22.8068 2.29388 22.5813 2.24516 22.3558 2.26169C22.3196 2.26003 22.2834 2.26003 22.2473 2.26169ZM19.5069 6.63818C19.2585 6.65604 19.0226 6.75215 18.8346 6.91214C18.6465 7.07212 18.5164 7.28739 18.4637 7.52577C18.411 7.76415 18.4385 8.01283 18.5421 8.23465C18.6457 8.45646 18.8198 8.63949 19.0385 8.75638C20.8188 9.83977 21.9231 11.5558 21.9231 13.4876C21.9231 15.433 20.8015 17.1716 19.0027 18.2538C18.8614 18.326 18.7369 18.4261 18.637 18.5477C18.5372 18.6694 18.4641 18.8099 18.4225 18.9606C18.3809 19.1112 18.3717 19.2687 18.3953 19.423C18.4189 19.5774 18.475 19.7252 18.5599 19.8573C18.6448 19.9894 18.7568 20.1028 18.8887 20.1904C19.0206 20.278 19.1696 20.3379 19.3263 20.3663C19.4831 20.3947 19.6441 20.391 19.7993 20.3554C19.9545 20.3199 20.1005 20.2532 20.2281 20.1596C22.6165 18.7249 24.2308 16.2847 24.2308 13.4876C24.2308 10.7074 22.6304 8.25366 20.2638 6.81554C20.0705 6.69462 19.8447 6.63287 19.6154 6.63818C19.5793 6.63651 19.5431 6.63651 19.5069 6.63818Z" fill="white"/>
</svg>
