<svg width="50" height="50" viewBox="0 0 50 50" fill="none" xmlns="http://www.w3.org/2000/svg">
<rect x="0.5" y="0.5" width="49" height="49" rx="24.5" fill="#005F6A"/>
<rect x="0.5" y="0.5" width="49" height="49" rx="24.5" stroke="white"/>
<path d="M23.8819 12.0023C23.5115 12.0034 23.1019 12.1661 22.7281 12.531L16.1292 19.8391H11.1538C10.5181 19.8391 10 20.3463 10 20.9688V30.0064C10 30.6289 10.5181 31.1361 11.1538 31.1361H16.1304L22.6923 38.4092C23.8462 39.5389 25 38.9605 25 37.4207V13.3771C25 12.4835 24.5004 11.9966 23.8819 12V12.0023ZM32.2473 14.2617C32.0019 14.3036 31.777 14.4222 31.6061 14.5996C31.4352 14.7771 31.3275 15.0039 31.2992 15.2462C31.2709 15.4885 31.3235 15.7333 31.449 15.944C31.5746 16.1546 31.7664 16.3198 31.9958 16.4149C33.7123 17.2599 35.1546 18.5563 36.1607 20.1588C37.1669 21.7613 37.6973 23.6065 37.6923 25.4876C37.6923 29.4687 35.3846 32.8872 31.9946 34.5603C31.8403 34.6128 31.6992 34.6969 31.5806 34.8068C31.462 34.9167 31.3685 35.0501 31.3065 35.198C31.2444 35.3459 31.2151 35.5051 31.2206 35.6649C31.226 35.8247 31.2661 35.9816 31.3381 36.1252C31.4101 36.2687 31.5124 36.3957 31.6382 36.4976C31.7641 36.5996 31.9106 36.6742 32.0681 36.7166C32.2256 36.7589 32.3905 36.7681 32.5519 36.7434C32.7132 36.7187 32.8674 36.6608 33.0042 36.5734C37.15 34.5253 40 30.3318 40 25.4876C40 20.6434 37.1488 16.4499 33.0042 14.4018C32.8068 14.2939 32.5813 14.2452 32.3558 14.2617C32.3196 14.26 32.2834 14.26 32.2473 14.2617ZM29.5069 18.6382C29.2585 18.656 29.0226 18.7521 28.8346 18.9121C28.6465 19.0721 28.5164 19.2874 28.4637 19.5258C28.411 19.7642 28.4385 20.0128 28.5421 20.2346C28.6457 20.4565 28.8198 20.6395 29.0385 20.7564C30.8188 21.8398 31.9231 23.5558 31.9231 25.4876C31.9231 27.433 30.8015 29.1716 29.0027 30.2538C28.8614 30.326 28.7369 30.4261 28.637 30.5477C28.5372 30.6694 28.4641 30.8099 28.4225 30.9606C28.3809 31.1112 28.3717 31.2687 28.3953 31.423C28.4189 31.5774 28.475 31.7252 28.5599 31.8573C28.6448 31.9894 28.7568 32.1028 28.8887 32.1904C29.0206 32.278 29.1696 32.3379 29.3263 32.3663C29.4831 32.3947 29.6441 32.391 29.7993 32.3554C29.9545 32.3199 30.1005 32.2532 30.2281 32.1596C32.6165 30.7249 34.2308 28.2847 34.2308 25.4876C34.2308 22.7074 32.6304 20.2537 30.2638 18.8155C30.0705 18.6946 29.8447 18.6329 29.6154 18.6382C29.5793 18.6365 29.5431 18.6365 29.5069 18.6382Z" fill="white"/>
</svg>
