<svg width="18" height="18" viewBox="0 0 18 18" fill="none" xmlns="http://www.w3.org/2000/svg">
<path d="M6.1875 2.8125H11.8125V15.1875H6.1875V2.8125Z" fill="#EC1C24"/>
<path d="M2.8125 2.8125C0.948656 2.8125 0 4.19766 0 5.90625V12.0938C0 13.8023 0.948656 15.1875 2.8125 15.1875H6.1875V2.8125H2.8125Z" fill="#007A5E"/>
<path d="M15.1871 2.8125H11.8121V15.1875H15.1871C17.051 15.1875 17.9996 13.8023 17.9996 12.0938V5.90625C17.9996 4.19766 17.051 2.8125 15.1871 2.8125ZM11.3796 8.06878L9.63527 8.07188L9.09527 6.30731L8.55696 8.07188L6.81152 8.06878L8.22621 9.14372L7.67721 10.8965L9.09752 9.80775L10.5178 10.8965L9.96715 9.14372L11.3796 8.06878Z" fill="#F9CB38"/>
</svg>
