<svg width="12" height="12" viewBox="0 0 12 12" fill="none" xmlns="http://www.w3.org/2000/svg">
<path fill-rule="evenodd" clip-rule="evenodd" d="M11.274 0.667253C11.5669 0.960147 11.5669 1.43502 11.274 1.72791L7.03136 5.97055L11.274 10.2132C11.5669 10.5061 11.5669 10.981 11.274 11.2739C10.9811 11.5667 10.5062 11.5667 10.2133 11.2739L5.9707 7.03121L1.72806 11.2739C1.43517 11.5667 0.960296 11.5667 0.667402 11.2739C0.374509 10.981 0.374509 10.5061 0.667402 10.2132L4.91004 5.97055L0.667402 1.72791C0.374509 1.43502 0.374509 0.960147 0.667402 0.667253C0.960296 0.37436 1.43517 0.37436 1.72806 0.667253L5.9707 4.90989L10.2133 0.667253C10.5062 0.37436 10.9811 0.37436 11.274 0.667253Z" fill="white"/>
</svg>
