<svg width="30" height="30" viewBox="0 0 30 30" fill="none" xmlns="http://www.w3.org/2000/svg">
<rect x="0.5" y="0.5" width="28.6" height="29" rx="14.3" fill="white"/>
<path d="M23.2998 15.0213C23.2998 10.3175 19.4918 6.5 14.7998 6.5C10.1078 6.5 6.2998 10.3175 6.2998 15.0213C6.2998 19.1456 9.2238 22.5797 13.0998 23.3722V17.5777H11.3998V15.0213H13.0998V12.891C13.0998 11.2464 14.4343 9.90852 16.0748 9.90852H18.1998V12.4649H16.4998C16.0323 12.4649 15.6498 12.8484 15.6498 13.317V15.0213H18.1998V17.5777H15.6498V23.5C19.9423 23.0739 23.2998 19.4439 23.2998 15.0213Z" fill="black"/>
<rect x="0.5" y="0.5" width="28.6" height="29" rx="14.3" stroke="#E9E9F2"/>
</svg>
