<svg width="60" height="72" viewBox="0 0 60 72" fill="none" xmlns="http://www.w3.org/2000/svg">
<path d="M32.1279 0.88065C30.9568 -0.292622 29.0561 -0.293685 27.8837 0.878275C20.425 8.33413 12.1754 12 3 12C1.34315 12 0 13.3431 0 15V33.0075C0 52.3175 9.84755 65.4448 29.0513 71.846C29.6671 72.0513 30.3329 72.0513 30.9487 71.846C50.1525 65.4448 60 52.3175 60 33.0075V15C60 13.3431 58.6569 12 57 12C47.8135 12 39.5682 8.33479 32.1279 0.88065ZM33 21V39C33 40.6569 31.6569 42 30 42C28.3431 42 27 40.6569 27 39V21C27 19.3431 28.3431 18 30 18C31.6569 18 33 19.3431 33 21ZM30 57C27.5147 57 25.5 54.9853 25.5 52.5C25.5 50.0147 27.5147 48 30 48C32.4853 48 34.5 50.0147 34.5 52.5C34.5 54.9853 32.4853 57 30 57Z" fill="#E00034"/>
</svg>
