<svg width="1007" height="378" viewBox="0 0 1007 378" fill="none" xmlns="http://www.w3.org/2000/svg">
<g filter="url(#filter0_d_150_12871)">
<rect x="4" y="3" width="999" height="370" rx="5" fill="white"/>
</g>
<path d="M40.3607 56V42.98H36.4407V41.8H45.5207V42.98H41.6007V56H40.3607ZM50.4139 56.2C47.7339 56.2 45.0539 54.26 45.0539 50.8C45.0539 47.34 47.7339 45.4 50.4139 45.4C53.0939 45.4 55.7739 47.34 55.7739 50.8C55.7739 54.26 53.0939 56.2 50.4139 56.2ZM46.2739 50.8C46.2739 53.56 48.3139 55.08 50.4139 55.08C52.5139 55.08 54.5539 53.56 54.5539 50.8C54.5539 48.04 52.5139 46.52 50.4139 46.52C48.3139 46.52 46.2739 48.04 46.2739 50.8ZM60.3471 56.12C59.1471 56.12 58.3471 55.54 58.3471 54.24V46.62H57.0071V45.6H58.3471V42.94H59.5671V45.6H61.5871V46.62H59.5671V53.98C59.5671 54.66 59.9071 55.02 60.6071 55.02C60.8471 55.02 61.1671 54.98 61.5471 54.82V55.82C61.1871 56.06 60.7471 56.12 60.3471 56.12ZM68.2608 56.2C65.6608 56.2 63.1008 54.34 63.1008 50.8C63.1008 47.26 65.6608 45.4 68.2608 45.4C70.2208 45.4 71.8208 46.48 72.4208 47.82H72.4808V45.6H73.7008V56H72.4808V53.78H72.4208C71.8208 55.12 70.2208 56.2 68.2608 56.2ZM64.3208 50.8C64.3208 53.68 66.3808 55.08 68.4208 55.08C70.4608 55.08 72.5208 53.66 72.5208 50.8C72.5208 47.94 70.4608 46.52 68.4208 46.52C66.3808 46.52 64.3208 47.92 64.3208 50.8ZM76.218 56V41.8H77.438V56H76.218ZM84.3039 59.8V45.6H85.5239V47.82H85.5839C86.1839 46.48 87.7839 45.4 89.7439 45.4C92.3439 45.4 94.9039 47.26 94.9039 50.8C94.9039 54.34 92.3439 56.2 89.7439 56.2C87.7839 56.2 86.1839 55.12 85.5839 53.78H85.5239V59.8H84.3039ZM85.4839 50.8C85.4839 53.66 87.5439 55.08 89.5839 55.08C91.6239 55.08 93.6839 53.68 93.6839 50.8C93.6839 47.92 91.6239 46.52 89.5839 46.52C87.5439 46.52 85.4839 47.94 85.4839 50.8ZM101.781 56.2C99.1011 56.2 96.4211 54.26 96.4211 50.8C96.4211 47.34 99.1011 45.4 101.781 45.4C104.461 45.4 107.141 47.34 107.141 50.8C107.141 54.26 104.461 56.2 101.781 56.2ZM97.6411 50.8C97.6411 53.56 99.6811 55.08 101.781 55.08C103.881 55.08 105.921 53.56 105.921 50.8C105.921 48.04 103.881 46.52 101.781 46.52C99.6811 46.52 97.6411 48.04 97.6411 50.8ZM109.167 56V45.6H110.387V56H109.167ZM109.167 42.98V41.8H110.387V42.98H109.167ZM112.898 56V45.6H114.118V47.42C114.638 46.4 115.798 45.4 117.718 45.4C119.938 45.4 121.838 46.78 121.838 49.88V56H120.618V50.02C120.618 47.64 119.198 46.52 117.398 46.52C115.618 46.52 114.118 47.64 114.118 50.02V56H112.898ZM126.91 56.12C125.71 56.12 124.91 55.54 124.91 54.24V46.62H123.57V45.6H124.91V42.94H126.13V45.6H128.15V46.62H126.13V53.98C126.13 54.66 126.47 55.02 127.17 55.02C127.41 55.02 127.73 54.98 128.11 54.82V55.82C127.75 56.06 127.31 56.12 126.91 56.12ZM133.065 56.2C131.165 56.2 129.825 55.14 129.505 53.44L130.565 53.14C130.885 54.44 131.845 55.14 133.065 55.14C134.185 55.14 135.305 54.58 135.305 53.28C135.305 52.22 134.585 51.74 133.225 51.16L132.425 50.84C130.705 50.14 130.005 49.14 130.005 48C130.005 46.46 131.305 45.4 133.025 45.4C134.585 45.4 135.765 46.26 136.125 47.58L135.145 47.9C134.805 47.02 134.165 46.44 133.065 46.44C132.065 46.44 131.205 46.96 131.205 48C131.205 48.78 131.685 49.38 132.905 49.88L133.605 50.16C135.405 50.9 136.525 51.6 136.525 53.28C136.525 55.3 134.785 56.2 133.065 56.2Z" fill="#31394D"/>
<path fill-rule="evenodd" clip-rule="evenodd" d="M865.063 44.2509C865.495 44.2509 865.734 44.7251 865.462 45.043L862.385 48.6435C862.18 48.884 861.793 48.884 861.587 48.6435L858.51 45.0431C858.239 44.7252 858.477 44.251 858.909 44.251L865.063 44.2509Z" fill="#B8C5D3"/>
<path d="M736.563 50H735.299V41.8242C735.299 41.291 735.395 40.8421 735.586 40.4775C735.782 40.1084 736.062 39.8304 736.427 39.6436C736.791 39.4521 737.224 39.3564 737.726 39.3564C737.871 39.3564 738.017 39.3656 738.163 39.3838C738.313 39.402 738.459 39.4294 738.601 39.4658L738.532 40.498C738.437 40.4753 738.327 40.4593 738.204 40.4502C738.086 40.4411 737.967 40.4365 737.849 40.4365C737.58 40.4365 737.347 40.4912 737.151 40.6006C736.96 40.7054 736.814 40.8604 736.714 41.0654C736.614 41.2705 736.563 41.5234 736.563 41.8242V50ZM738.136 42.6035V43.5742H734.13V42.6035H738.136ZM740.809 43.7656V50H739.544V42.6035H740.774L740.809 43.7656ZM743.119 42.5625L743.112 43.7383C743.007 43.7155 742.907 43.7018 742.812 43.6973C742.72 43.6882 742.616 43.6836 742.497 43.6836C742.205 43.6836 741.948 43.7292 741.725 43.8203C741.501 43.9115 741.312 44.0391 741.157 44.2031C741.002 44.3672 740.879 44.5632 740.788 44.791C740.701 45.0143 740.645 45.2604 740.617 45.5293L740.262 45.7344C740.262 45.2878 740.305 44.8685 740.392 44.4766C740.483 44.0846 740.622 43.7383 740.809 43.4375C740.995 43.1322 741.232 42.8952 741.52 42.7266C741.811 42.5534 742.158 42.4668 742.559 42.4668C742.65 42.4668 742.755 42.4782 742.873 42.501C742.992 42.5192 743.074 42.5397 743.119 42.5625ZM743.816 46.3838V46.2266C743.816 45.6934 743.894 45.1989 744.049 44.7432C744.204 44.2829 744.427 43.8841 744.719 43.5469C745.01 43.2051 745.364 42.9408 745.778 42.7539C746.193 42.5625 746.658 42.4668 747.173 42.4668C747.692 42.4668 748.16 42.5625 748.574 42.7539C748.993 42.9408 749.349 43.2051 749.641 43.5469C749.937 43.8841 750.162 44.2829 750.317 44.7432C750.472 45.1989 750.55 45.6934 750.55 46.2266V46.3838C750.55 46.917 750.472 47.4115 750.317 47.8672C750.162 48.3229 749.937 48.7217 749.641 49.0635C749.349 49.4007 748.996 49.665 748.581 49.8564C748.171 50.0433 747.706 50.1367 747.187 50.1367C746.667 50.1367 746.2 50.0433 745.785 49.8564C745.37 49.665 745.015 49.4007 744.719 49.0635C744.427 48.7217 744.204 48.3229 744.049 47.8672C743.894 47.4115 743.816 46.917 743.816 46.3838ZM745.081 46.2266V46.3838C745.081 46.7529 745.124 47.1016 745.211 47.4297C745.298 47.7533 745.427 48.0404 745.601 48.291C745.778 48.5417 745.999 48.7399 746.264 48.8857C746.528 49.027 746.836 49.0977 747.187 49.0977C747.533 49.0977 747.836 49.027 748.096 48.8857C748.36 48.7399 748.579 48.5417 748.752 48.291C748.925 48.0404 749.055 47.7533 749.142 47.4297C749.233 47.1016 749.278 46.7529 749.278 46.3838V46.2266C749.278 45.862 749.233 45.5179 749.142 45.1943C749.055 44.8662 748.923 44.5768 748.745 44.3262C748.572 44.071 748.353 43.8704 748.089 43.7246C747.829 43.5788 747.524 43.5059 747.173 43.5059C746.826 43.5059 746.521 43.5788 746.257 43.7246C745.997 43.8704 745.778 44.071 745.601 44.3262C745.427 44.5768 745.298 44.8662 745.211 45.1943C745.124 45.5179 745.081 45.862 745.081 46.2266ZM753.394 44.0732V50H752.122V42.6035H753.325L753.394 44.0732ZM753.134 46.0215L752.546 46.001C752.55 45.4951 752.617 45.028 752.744 44.5996C752.872 44.1667 753.061 43.7907 753.312 43.4717C753.562 43.1527 753.874 42.9066 754.248 42.7334C754.622 42.5557 755.055 42.4668 755.547 42.4668C755.893 42.4668 756.212 42.5169 756.504 42.6172C756.796 42.7129 757.049 42.8656 757.263 43.0752C757.477 43.2848 757.643 43.5537 757.762 43.8818C757.88 44.21 757.939 44.6064 757.939 45.0713V50H756.675V45.1328C756.675 44.7454 756.609 44.4355 756.477 44.2031C756.349 43.9707 756.167 43.8021 755.93 43.6973C755.693 43.5879 755.415 43.5332 755.096 43.5332C754.722 43.5332 754.41 43.5993 754.159 43.7314C753.909 43.8636 753.708 44.0459 753.558 44.2783C753.407 44.5107 753.298 44.7773 753.229 45.0781C753.166 45.3743 753.134 45.6888 753.134 46.0215ZM757.926 45.3242L757.078 45.584C757.083 45.1784 757.149 44.7887 757.276 44.415C757.409 44.0413 757.598 43.7087 757.844 43.417C758.094 43.1253 758.402 42.8952 758.767 42.7266C759.131 42.5534 759.548 42.4668 760.018 42.4668C760.414 42.4668 760.765 42.5192 761.07 42.624C761.38 42.7288 761.64 42.8906 761.85 43.1094C762.064 43.3236 762.226 43.5993 762.335 43.9365C762.444 44.2738 762.499 44.6748 762.499 45.1396V50H761.228V45.126C761.228 44.7113 761.161 44.39 761.029 44.1621C760.902 43.9297 760.719 43.7679 760.482 43.6768C760.25 43.5811 759.972 43.5332 759.648 43.5332C759.37 43.5332 759.124 43.5811 758.91 43.6768C758.696 43.7725 758.516 43.9046 758.37 44.0732C758.224 44.2373 758.113 44.4264 758.035 44.6406C757.962 44.8548 757.926 45.0827 757.926 45.3242Z" fill="#748AA1"/>
<path d="M775.514 40.9287L772.219 50H770.872L774.666 40.0469H775.534L775.514 40.9287ZM778.275 50L774.974 40.9287L774.953 40.0469H775.821L779.629 50H778.275ZM778.104 46.3154V47.3955H772.513V46.3154H778.104ZM785.214 48.291V42.6035H786.485V50H785.275L785.214 48.291ZM785.453 46.7324L785.979 46.7188C785.979 47.2109 785.927 47.6667 785.822 48.0859C785.722 48.5007 785.558 48.8607 785.33 49.166C785.102 49.4714 784.804 49.7106 784.435 49.8838C784.065 50.0524 783.617 50.1367 783.088 50.1367C782.728 50.1367 782.397 50.0843 782.097 49.9795C781.8 49.8747 781.545 49.7129 781.331 49.4941C781.117 49.2754 780.951 48.9906 780.832 48.6396C780.718 48.2887 780.661 47.8672 780.661 47.375V42.6035H781.926V47.3887C781.926 47.7214 781.962 47.9971 782.035 48.2158C782.113 48.43 782.215 48.6009 782.343 48.7285C782.475 48.8516 782.621 48.9382 782.78 48.9883C782.944 49.0384 783.113 49.0635 783.286 49.0635C783.824 49.0635 784.25 48.9609 784.564 48.7559C784.879 48.5462 785.104 48.266 785.241 47.915C785.382 47.5596 785.453 47.1654 785.453 46.7324ZM793.205 42.6035H794.354V49.8428C794.354 50.4945 794.221 51.0505 793.957 51.5107C793.693 51.971 793.324 52.3197 792.85 52.5566C792.38 52.7982 791.838 52.9189 791.223 52.9189C790.967 52.9189 790.667 52.8779 790.32 52.7959C789.979 52.7184 789.641 52.584 789.309 52.3926C788.98 52.2057 788.705 51.9528 788.481 51.6338L789.145 50.8818C789.454 51.2555 789.778 51.5153 790.115 51.6611C790.457 51.807 790.794 51.8799 791.127 51.8799C791.528 51.8799 791.874 51.8047 792.166 51.6543C792.458 51.5039 792.683 51.2806 792.843 50.9844C793.007 50.6927 793.089 50.3327 793.089 49.9043V44.2305L793.205 42.6035ZM788.112 46.3838V46.2402C788.112 45.6751 788.178 45.1624 788.311 44.7021C788.447 44.2373 788.641 43.8385 788.892 43.5059C789.147 43.1732 789.454 42.918 789.814 42.7402C790.174 42.5579 790.58 42.4668 791.031 42.4668C791.496 42.4668 791.902 42.5488 792.248 42.7129C792.599 42.8724 792.895 43.1071 793.137 43.417C793.383 43.7223 793.576 44.0915 793.718 44.5244C793.859 44.9574 793.957 45.4473 794.012 45.9941V46.623C793.962 47.1654 793.864 47.653 793.718 48.0859C793.576 48.5189 793.383 48.888 793.137 49.1934C792.895 49.4987 792.599 49.7334 792.248 49.8975C791.897 50.057 791.487 50.1367 791.018 50.1367C790.576 50.1367 790.174 50.0433 789.814 49.8564C789.459 49.6696 789.154 49.4076 788.898 49.0703C788.643 48.7331 788.447 48.3366 788.311 47.8809C788.178 47.4206 788.112 46.9215 788.112 46.3838ZM789.377 46.2402V46.3838C789.377 46.7529 789.413 47.0993 789.486 47.4229C789.564 47.7464 789.68 48.0312 789.835 48.2773C789.994 48.5234 790.197 48.7171 790.443 48.8584C790.689 48.9951 790.983 49.0635 791.325 49.0635C791.744 49.0635 792.091 48.9746 792.364 48.7969C792.638 48.6191 792.854 48.3844 793.014 48.0928C793.178 47.8011 793.305 47.4844 793.396 47.1426V45.4951C793.346 45.2445 793.269 45.0029 793.164 44.7705C793.064 44.5335 792.932 44.3239 792.768 44.1416C792.608 43.9548 792.41 43.8066 792.173 43.6973C791.936 43.5879 791.658 43.5332 791.339 43.5332C790.993 43.5332 790.694 43.6061 790.443 43.752C790.197 43.8932 789.994 44.0892 789.835 44.3398C789.68 44.5859 789.564 44.873 789.486 45.2012C789.413 45.5247 789.377 45.8711 789.377 46.2402ZM800.8 48.291V42.6035H802.071V50H800.861L800.8 48.291ZM801.039 46.7324L801.565 46.7188C801.565 47.2109 801.513 47.6667 801.408 48.0859C801.308 48.5007 801.144 48.8607 800.916 49.166C800.688 49.4714 800.39 49.7106 800.021 49.8838C799.651 50.0524 799.202 50.1367 798.674 50.1367C798.314 50.1367 797.983 50.0843 797.683 49.9795C797.386 49.8747 797.131 49.7129 796.917 49.4941C796.703 49.2754 796.536 48.9906 796.418 48.6396C796.304 48.2887 796.247 47.8672 796.247 47.375V42.6035H797.512V47.3887C797.512 47.7214 797.548 47.9971 797.621 48.2158C797.699 48.43 797.801 48.6009 797.929 48.7285C798.061 48.8516 798.207 48.9382 798.366 48.9883C798.53 49.0384 798.699 49.0635 798.872 49.0635C799.41 49.0635 799.836 48.9609 800.15 48.7559C800.465 48.5462 800.69 48.266 800.827 47.915C800.968 47.5596 801.039 47.1654 801.039 46.7324ZM808.306 48.0381C808.306 47.8558 808.265 47.6872 808.183 47.5322C808.105 47.3727 807.943 47.2292 807.697 47.1016C807.456 46.9694 807.091 46.8555 806.604 46.7598C806.193 46.6732 805.822 46.5706 805.489 46.4521C805.161 46.3337 804.881 46.1901 804.648 46.0215C804.421 45.8529 804.245 45.6546 804.122 45.4268C803.999 45.1989 803.938 44.9323 803.938 44.627C803.938 44.3353 804.001 44.0596 804.129 43.7998C804.261 43.54 804.446 43.3099 804.683 43.1094C804.924 42.9089 805.214 42.7516 805.551 42.6377C805.888 42.5238 806.264 42.4668 806.679 42.4668C807.271 42.4668 807.777 42.5716 808.196 42.7812C808.616 42.9909 808.937 43.2712 809.16 43.6221C809.383 43.9684 809.495 44.3535 809.495 44.7773H808.23C808.23 44.5723 808.169 44.374 808.046 44.1826C807.927 43.9867 807.752 43.8249 807.52 43.6973C807.292 43.5697 807.011 43.5059 806.679 43.5059C806.328 43.5059 806.043 43.5605 805.824 43.6699C805.61 43.7747 805.453 43.9092 805.353 44.0732C805.257 44.2373 805.209 44.4105 805.209 44.5928C805.209 44.7295 805.232 44.8525 805.277 44.9619C805.327 45.0667 805.414 45.1647 805.537 45.2559C805.66 45.3424 805.833 45.4245 806.057 45.502C806.28 45.5794 806.565 45.6569 806.911 45.7344C807.517 45.8711 808.016 46.0352 808.408 46.2266C808.8 46.418 809.092 46.6527 809.283 46.9307C809.475 47.2087 809.57 47.5459 809.57 47.9424C809.57 48.266 809.502 48.5622 809.365 48.8311C809.233 49.0999 809.039 49.3324 808.784 49.5283C808.534 49.7197 808.233 49.8701 807.882 49.9795C807.535 50.0843 807.146 50.1367 806.713 50.1367C806.061 50.1367 805.51 50.0205 805.059 49.7881C804.607 49.5557 804.266 49.2549 804.033 48.8857C803.801 48.5166 803.685 48.127 803.685 47.7168H804.956C804.974 48.0632 805.075 48.3389 805.257 48.5439C805.439 48.7445 805.662 48.888 805.927 48.9746C806.191 49.0566 806.453 49.0977 806.713 49.0977C807.059 49.0977 807.349 49.0521 807.581 48.9609C807.818 48.8698 807.998 48.7445 808.121 48.585C808.244 48.4255 808.306 48.2432 808.306 48.0381ZM814.328 42.6035V43.5742H810.329V42.6035H814.328ZM811.683 40.8057H812.947V48.168C812.947 48.4186 812.986 48.6077 813.063 48.7354C813.141 48.863 813.241 48.9473 813.364 48.9883C813.487 49.0293 813.619 49.0498 813.761 49.0498C813.866 49.0498 813.975 49.0407 814.089 49.0225C814.207 48.9997 814.296 48.9814 814.355 48.9678L814.362 50C814.262 50.0319 814.13 50.0615 813.966 50.0889C813.806 50.1208 813.613 50.1367 813.385 50.1367C813.075 50.1367 812.79 50.0752 812.53 49.9521C812.271 49.8291 812.063 49.624 811.908 49.3369C811.758 49.0452 811.683 48.6533 811.683 48.1611V40.8057ZM825.669 48.9609V50H819.154V49.0908L822.415 45.4609C822.816 45.0143 823.126 44.6361 823.345 44.3262C823.568 44.0117 823.723 43.7314 823.81 43.4854C823.901 43.2347 823.946 42.9795 823.946 42.7197C823.946 42.3916 823.878 42.0954 823.741 41.8311C823.609 41.5622 823.413 41.348 823.153 41.1885C822.894 41.029 822.579 40.9492 822.21 40.9492C821.768 40.9492 821.399 41.0358 821.103 41.209C820.811 41.3776 820.592 41.6146 820.446 41.9199C820.3 42.2253 820.228 42.5762 820.228 42.9727H818.963C818.963 42.4121 819.086 41.8994 819.332 41.4346C819.578 40.9697 819.943 40.6006 820.426 40.3271C820.909 40.0492 821.504 39.9102 822.21 39.9102C822.839 39.9102 823.377 40.0218 823.823 40.2451C824.27 40.4639 824.612 40.7738 824.849 41.1748C825.09 41.5713 825.211 42.0361 825.211 42.5693C825.211 42.861 825.161 43.1572 825.061 43.458C824.965 43.7542 824.83 44.0505 824.657 44.3467C824.489 44.6429 824.29 44.9346 824.062 45.2217C823.839 45.5088 823.6 45.7913 823.345 46.0693L820.679 48.9609H825.669ZM833.271 44.2305V45.748C833.271 46.5638 833.198 47.252 833.052 47.8125C832.906 48.373 832.696 48.8242 832.423 49.166C832.149 49.5078 831.819 49.7562 831.432 49.9111C831.049 50.0615 830.616 50.1367 830.133 50.1367C829.75 50.1367 829.397 50.0889 829.073 49.9932C828.75 49.8975 828.458 49.7448 828.198 49.5352C827.943 49.321 827.724 49.043 827.542 48.7012C827.36 48.3594 827.221 47.9447 827.125 47.457C827.029 46.9694 826.981 46.3997 826.981 45.748V44.2305C826.981 43.4147 827.054 42.7311 827.2 42.1797C827.351 41.6283 827.562 41.1862 827.836 40.8535C828.109 40.5163 828.438 40.2747 828.82 40.1289C829.208 39.9831 829.641 39.9102 830.119 39.9102C830.507 39.9102 830.862 39.958 831.186 40.0537C831.514 40.1449 831.805 40.293 832.061 40.498C832.316 40.6986 832.532 40.9674 832.71 41.3047C832.892 41.6374 833.031 42.0452 833.127 42.5283C833.223 43.0114 833.271 43.5788 833.271 44.2305ZM831.999 45.9531V44.0186C831.999 43.5719 831.972 43.18 831.917 42.8428C831.867 42.501 831.792 42.2093 831.691 41.9678C831.591 41.7262 831.464 41.5303 831.309 41.3799C831.158 41.2295 830.983 41.1201 830.782 41.0518C830.586 40.9788 830.365 40.9424 830.119 40.9424C829.818 40.9424 829.552 40.9993 829.319 41.1133C829.087 41.2227 828.891 41.3981 828.731 41.6396C828.576 41.8812 828.458 42.1979 828.376 42.5898C828.294 42.9818 828.253 43.458 828.253 44.0186V45.9531C828.253 46.3997 828.278 46.7939 828.328 47.1357C828.383 47.4775 828.463 47.7738 828.567 48.0244C828.672 48.2705 828.8 48.4733 828.95 48.6328C829.101 48.7923 829.274 48.9108 829.47 48.9883C829.67 49.0612 829.891 49.0977 830.133 49.0977C830.443 49.0977 830.714 49.0384 830.946 48.9199C831.179 48.8014 831.372 48.6169 831.527 48.3662C831.687 48.111 831.805 47.7852 831.883 47.3887C831.96 46.9876 831.999 46.5091 831.999 45.9531ZM839.054 39.9922V50H837.789V41.5713L835.239 42.501V41.3594L838.855 39.9922H839.054ZM849.048 47.3066C849.048 47.9128 848.907 48.4277 848.624 48.8516C848.346 49.2708 847.968 49.5898 847.489 49.8086C847.015 50.0273 846.48 50.1367 845.883 50.1367C845.286 50.1367 844.748 50.0273 844.27 49.8086C843.791 49.5898 843.413 49.2708 843.135 48.8516C842.857 48.4277 842.718 47.9128 842.718 47.3066C842.718 46.9102 842.793 46.5479 842.943 46.2197C843.098 45.887 843.315 45.5977 843.593 45.3516C843.875 45.1055 844.208 44.9163 844.591 44.7842C844.978 44.6475 845.404 44.5791 845.869 44.5791C846.48 44.5791 847.024 44.6976 847.503 44.9346C847.981 45.167 848.357 45.4883 848.631 45.8984C848.909 46.3086 849.048 46.778 849.048 47.3066ZM847.776 47.2793C847.776 46.9102 847.697 46.5843 847.537 46.3018C847.378 46.0146 847.154 45.7913 846.867 45.6318C846.58 45.4723 846.247 45.3926 845.869 45.3926C845.482 45.3926 845.147 45.4723 844.864 45.6318C844.586 45.7913 844.37 46.0146 844.215 46.3018C844.06 46.5843 843.982 46.9102 843.982 47.2793C843.982 47.6621 844.058 47.9902 844.208 48.2637C844.363 48.5326 844.582 48.7399 844.864 48.8857C845.151 49.027 845.491 49.0977 845.883 49.0977C846.275 49.0977 846.612 49.027 846.895 48.8857C847.177 48.7399 847.394 48.5326 847.544 48.2637C847.699 47.9902 847.776 47.6621 847.776 47.2793ZM848.815 42.6377C848.815 43.1208 848.688 43.556 848.433 43.9434C848.177 44.3307 847.829 44.6361 847.387 44.8594C846.945 45.0827 846.443 45.1943 845.883 45.1943C845.313 45.1943 844.805 45.0827 844.358 44.8594C843.916 44.6361 843.57 44.3307 843.319 43.9434C843.069 43.556 842.943 43.1208 842.943 42.6377C842.943 42.0589 843.069 41.5667 843.319 41.1611C843.575 40.7555 843.923 40.4456 844.365 40.2314C844.807 40.0173 845.311 39.9102 845.876 39.9102C846.446 39.9102 846.951 40.0173 847.394 40.2314C847.836 40.4456 848.182 40.7555 848.433 41.1611C848.688 41.5667 848.815 42.0589 848.815 42.6377ZM847.551 42.6582C847.551 42.3255 847.48 42.0316 847.339 41.7764C847.198 41.5212 847.002 41.3206 846.751 41.1748C846.5 41.0244 846.209 40.9492 845.876 40.9492C845.543 40.9492 845.252 41.0199 845.001 41.1611C844.755 41.2979 844.561 41.4938 844.42 41.749C844.283 42.0042 844.215 42.3073 844.215 42.6582C844.215 43 844.283 43.2985 844.42 43.5537C844.561 43.8089 844.757 44.0072 845.008 44.1484C845.258 44.2897 845.55 44.3604 845.883 44.3604C846.215 44.3604 846.505 44.2897 846.751 44.1484C847.002 44.0072 847.198 43.8089 847.339 43.5537C847.48 43.2985 847.551 43 847.551 42.6582Z" fill="#31394D"/>
<path fill-rule="evenodd" clip-rule="evenodd" d="M970.666 44.2509C971.098 44.2509 971.337 44.7251 971.065 45.043L967.988 48.6435C967.782 48.884 967.395 48.884 967.19 48.6435L964.113 45.0431C963.841 44.7252 964.08 44.251 964.512 44.251L970.666 44.2509Z" fill="#B8C5D3"/>
<path d="M880.337 42.6035V43.5742H876.338V42.6035H880.337ZM877.691 40.8057H878.956V48.168C878.956 48.4186 878.995 48.6077 879.072 48.7354C879.15 48.863 879.25 48.9473 879.373 48.9883C879.496 49.0293 879.628 49.0498 879.77 49.0498C879.874 49.0498 879.984 49.0407 880.098 49.0225C880.216 48.9997 880.305 48.9814 880.364 48.9678L880.371 50C880.271 50.0319 880.139 50.0615 879.975 50.0889C879.815 50.1208 879.621 50.1367 879.394 50.1367C879.084 50.1367 878.799 50.0752 878.539 49.9521C878.279 49.8291 878.072 49.624 877.917 49.3369C877.767 49.0452 877.691 48.6533 877.691 48.1611V40.8057ZM881.349 46.3838V46.2266C881.349 45.6934 881.426 45.1989 881.581 44.7432C881.736 44.2829 881.959 43.8841 882.251 43.5469C882.543 43.2051 882.896 42.9408 883.311 42.7539C883.725 42.5625 884.19 42.4668 884.705 42.4668C885.225 42.4668 885.692 42.5625 886.106 42.7539C886.526 42.9408 886.881 43.2051 887.173 43.5469C887.469 43.8841 887.695 44.2829 887.85 44.7432C888.005 45.1989 888.082 45.6934 888.082 46.2266V46.3838C888.082 46.917 888.005 47.4115 887.85 47.8672C887.695 48.3229 887.469 48.7217 887.173 49.0635C886.881 49.4007 886.528 49.665 886.113 49.8564C885.703 50.0433 885.238 50.1367 884.719 50.1367C884.199 50.1367 883.732 50.0433 883.317 49.8564C882.903 49.665 882.547 49.4007 882.251 49.0635C881.959 48.7217 881.736 48.3229 881.581 47.8672C881.426 47.4115 881.349 46.917 881.349 46.3838ZM882.613 46.2266V46.3838C882.613 46.7529 882.657 47.1016 882.743 47.4297C882.83 47.7533 882.96 48.0404 883.133 48.291C883.311 48.5417 883.532 48.7399 883.796 48.8857C884.06 49.027 884.368 49.0977 884.719 49.0977C885.065 49.0977 885.368 49.027 885.628 48.8857C885.892 48.7399 886.111 48.5417 886.284 48.291C886.457 48.0404 886.587 47.7533 886.674 47.4297C886.765 47.1016 886.811 46.7529 886.811 46.3838V46.2266C886.811 45.862 886.765 45.5179 886.674 45.1943C886.587 44.8662 886.455 44.5768 886.277 44.3262C886.104 44.071 885.885 43.8704 885.621 43.7246C885.361 43.5788 885.056 43.5059 884.705 43.5059C884.359 43.5059 884.053 43.5788 883.789 43.7246C883.529 43.8704 883.311 44.071 883.133 44.3262C882.96 44.5768 882.83 44.8662 882.743 45.1943C882.657 45.5179 882.613 45.862 882.613 46.2266Z" fill="#748AA1"/>
<path d="M896.857 40.0469H898.136L901.396 48.1611L904.65 40.0469H905.936L901.889 50H900.891L896.857 40.0469ZM896.44 40.0469H897.568L897.753 46.1172V50H896.44V40.0469ZM905.218 40.0469H906.346V50H905.033V46.1172L905.218 40.0469ZM912.833 48.7354V44.9277C912.833 44.6361 912.774 44.3831 912.655 44.1689C912.541 43.9502 912.368 43.7816 912.136 43.6631C911.903 43.5446 911.616 43.4854 911.274 43.4854C910.955 43.4854 910.675 43.54 910.434 43.6494C910.197 43.7588 910.01 43.9023 909.873 44.0801C909.741 44.2578 909.675 44.4492 909.675 44.6543H908.41C908.41 44.39 908.479 44.1279 908.615 43.8682C908.752 43.6084 908.948 43.3737 909.203 43.1641C909.463 42.9499 909.773 42.7812 910.133 42.6582C910.497 42.5306 910.903 42.4668 911.35 42.4668C911.887 42.4668 912.361 42.5579 912.771 42.7402C913.186 42.9225 913.51 43.1982 913.742 43.5674C913.979 43.932 914.098 44.39 914.098 44.9414V48.3867C914.098 48.6328 914.118 48.8949 914.159 49.1729C914.205 49.4508 914.271 49.6901 914.357 49.8906V50H913.038C912.974 49.8542 912.924 49.6605 912.888 49.4189C912.851 49.1729 912.833 48.945 912.833 48.7354ZM913.052 45.5156L913.065 46.4043H911.787C911.427 46.4043 911.106 46.4339 910.823 46.4932C910.541 46.5479 910.304 46.6322 910.112 46.7461C909.921 46.86 909.775 47.0036 909.675 47.1768C909.575 47.3454 909.524 47.5436 909.524 47.7715C909.524 48.0039 909.577 48.2158 909.682 48.4072C909.786 48.5986 909.944 48.7513 910.153 48.8652C910.368 48.9746 910.63 49.0293 910.939 49.0293C911.327 49.0293 911.669 48.9473 911.965 48.7832C912.261 48.6191 912.496 48.4186 912.669 48.1816C912.847 47.9447 912.942 47.7145 912.956 47.4912L913.496 48.0996C913.464 48.291 913.378 48.5029 913.236 48.7354C913.095 48.9678 912.906 49.1911 912.669 49.4053C912.437 49.6149 912.159 49.7904 911.835 49.9316C911.516 50.0684 911.156 50.1367 910.755 50.1367C910.254 50.1367 909.814 50.0387 909.436 49.8428C909.062 49.6468 908.77 49.3848 908.561 49.0566C908.355 48.724 908.253 48.3525 908.253 47.9424C908.253 47.5459 908.33 47.1973 908.485 46.8965C908.64 46.5911 908.864 46.3382 909.155 46.1377C909.447 45.9326 909.798 45.7777 910.208 45.6729C910.618 45.568 911.076 45.5156 911.582 45.5156H913.052ZM918.056 49.2344L920.113 42.6035H921.467L918.5 51.1416C918.432 51.3239 918.34 51.5199 918.227 51.7295C918.117 51.9437 917.976 52.1465 917.803 52.3379C917.63 52.5293 917.42 52.6842 917.174 52.8027C916.932 52.9258 916.643 52.9873 916.306 52.9873C916.205 52.9873 916.078 52.9736 915.923 52.9463C915.768 52.9189 915.659 52.8962 915.595 52.8779L915.588 51.8525C915.624 51.8571 915.681 51.8617 915.759 51.8662C915.841 51.8753 915.898 51.8799 915.93 51.8799C916.217 51.8799 916.461 51.8411 916.661 51.7637C916.862 51.6908 917.03 51.5654 917.167 51.3877C917.308 51.2145 917.429 50.9753 917.529 50.6699L918.056 49.2344ZM916.545 42.6035L918.466 48.3457L918.794 49.6787L917.885 50.1436L915.164 42.6035H916.545ZM932.466 48.9609V50H925.951V49.0908L929.212 45.4609C929.613 45.0143 929.923 44.6361 930.142 44.3262C930.365 44.0117 930.52 43.7314 930.606 43.4854C930.698 43.2347 930.743 42.9795 930.743 42.7197C930.743 42.3916 930.675 42.0954 930.538 41.8311C930.406 41.5622 930.21 41.348 929.95 41.1885C929.69 41.029 929.376 40.9492 929.007 40.9492C928.565 40.9492 928.196 41.0358 927.899 41.209C927.608 41.3776 927.389 41.6146 927.243 41.9199C927.097 42.2253 927.024 42.5762 927.024 42.9727H925.76C925.76 42.4121 925.883 41.8994 926.129 41.4346C926.375 40.9697 926.74 40.6006 927.223 40.3271C927.706 40.0492 928.3 39.9102 929.007 39.9102C929.636 39.9102 930.174 40.0218 930.62 40.2451C931.067 40.4639 931.409 40.7738 931.646 41.1748C931.887 41.5713 932.008 42.0361 932.008 42.5693C932.008 42.861 931.958 43.1572 931.857 43.458C931.762 43.7542 931.627 44.0505 931.454 44.3467C931.285 44.6429 931.087 44.9346 930.859 45.2217C930.636 45.5088 930.397 45.7913 930.142 46.0693L927.476 48.9609H932.466ZM940.067 44.2305V45.748C940.067 46.5638 939.994 47.252 939.849 47.8125C939.703 48.373 939.493 48.8242 939.22 49.166C938.946 49.5078 938.616 49.7562 938.229 49.9111C937.846 50.0615 937.413 50.1367 936.93 50.1367C936.547 50.1367 936.194 50.0889 935.87 49.9932C935.547 49.8975 935.255 49.7448 934.995 49.5352C934.74 49.321 934.521 49.043 934.339 48.7012C934.157 48.3594 934.018 47.9447 933.922 47.457C933.826 46.9694 933.778 46.3997 933.778 45.748V44.2305C933.778 43.4147 933.851 42.7311 933.997 42.1797C934.147 41.6283 934.359 41.1862 934.633 40.8535C934.906 40.5163 935.234 40.2747 935.617 40.1289C936.005 39.9831 936.438 39.9102 936.916 39.9102C937.303 39.9102 937.659 39.958 937.982 40.0537C938.311 40.1449 938.602 40.293 938.857 40.498C939.113 40.6986 939.329 40.9674 939.507 41.3047C939.689 41.6374 939.828 42.0452 939.924 42.5283C940.02 43.0114 940.067 43.5788 940.067 44.2305ZM938.796 45.9531V44.0186C938.796 43.5719 938.769 43.18 938.714 42.8428C938.664 42.501 938.589 42.2093 938.488 41.9678C938.388 41.7262 938.26 41.5303 938.105 41.3799C937.955 41.2295 937.78 41.1201 937.579 41.0518C937.383 40.9788 937.162 40.9424 936.916 40.9424C936.615 40.9424 936.349 40.9993 936.116 41.1133C935.884 41.2227 935.688 41.3981 935.528 41.6396C935.373 41.8812 935.255 42.1979 935.173 42.5898C935.091 42.9818 935.05 43.458 935.05 44.0186V45.9531C935.05 46.3997 935.075 46.7939 935.125 47.1357C935.18 47.4775 935.259 47.7738 935.364 48.0244C935.469 48.2705 935.597 48.4733 935.747 48.6328C935.897 48.7923 936.071 48.9108 936.267 48.9883C936.467 49.0612 936.688 49.0977 936.93 49.0977C937.24 49.0977 937.511 49.0384 937.743 48.9199C937.976 48.8014 938.169 48.6169 938.324 48.3662C938.484 48.111 938.602 47.7852 938.68 47.3887C938.757 46.9876 938.796 46.5091 938.796 45.9531ZM945.851 39.9922V50H944.586V41.5713L942.036 42.501V41.3594L945.652 39.9922H945.851ZM950.827 48.9404H950.957C951.686 48.9404 952.279 48.8379 952.734 48.6328C953.19 48.4277 953.541 48.152 953.787 47.8057C954.033 47.4593 954.202 47.0697 954.293 46.6367C954.384 46.1992 954.43 45.7503 954.43 45.29V43.7656C954.43 43.3145 954.377 42.9134 954.272 42.5625C954.172 42.2116 954.031 41.9176 953.849 41.6807C953.671 41.4437 953.468 41.2637 953.24 41.1406C953.012 41.0176 952.771 40.9561 952.516 40.9561C952.224 40.9561 951.962 41.0153 951.729 41.1338C951.502 41.2477 951.308 41.4095 951.148 41.6191C950.993 41.8288 950.875 42.0749 950.793 42.3574C950.711 42.64 950.67 42.9476 950.67 43.2803C950.67 43.5765 950.706 43.8636 950.779 44.1416C950.852 44.4196 950.964 44.6702 951.114 44.8936C951.265 45.1169 951.451 45.2946 951.675 45.4268C951.903 45.5544 952.169 45.6182 952.475 45.6182C952.757 45.6182 953.021 45.5635 953.268 45.4541C953.518 45.3402 953.739 45.1875 953.931 44.9961C954.127 44.8001 954.282 44.5791 954.396 44.333C954.514 44.0869 954.582 43.8294 954.601 43.5605H955.202C955.202 43.9388 955.127 44.3125 954.977 44.6816C954.831 45.0462 954.626 45.3789 954.361 45.6797C954.097 45.9805 953.787 46.222 953.432 46.4043C953.076 46.582 952.689 46.6709 952.27 46.6709C951.777 46.6709 951.351 46.5752 950.991 46.3838C950.631 46.1924 950.335 45.9372 950.103 45.6182C949.875 45.2992 949.704 44.9437 949.59 44.5518C949.48 44.1553 949.426 43.7542 949.426 43.3486C949.426 42.8747 949.492 42.4303 949.624 42.0156C949.756 41.6009 949.952 41.2363 950.212 40.9219C950.472 40.6029 950.793 40.3545 951.176 40.1768C951.563 39.999 952.01 39.9102 952.516 39.9102C953.085 39.9102 953.571 40.0241 953.972 40.252C954.373 40.4798 954.699 40.7852 954.949 41.168C955.204 41.5508 955.391 41.9814 955.51 42.46C955.628 42.9385 955.688 43.4307 955.688 43.9365V44.3945C955.688 44.9095 955.653 45.4336 955.585 45.9668C955.521 46.4954 955.396 47.0013 955.209 47.4844C955.027 47.9674 954.76 48.4004 954.409 48.7832C954.058 49.1615 953.6 49.4622 953.035 49.6855C952.475 49.9043 951.782 50.0137 950.957 50.0137H950.827V48.9404Z" fill="#31394D"/>
<path d="M60.0193 330.06H60.8593L64.8493 340H63.9113L62.9033 337.466H57.9753L56.9673 340H56.0293L60.0193 330.06ZM58.2973 336.654H62.5813L60.4393 331.222L58.2973 336.654ZM71.9938 332.72V340H71.1398V338.726C70.7758 339.44 69.9638 340.14 68.6198 340.14C67.0658 340.14 65.7358 339.174 65.7358 337.004V332.72H66.5898V336.906C66.5898 338.572 67.5838 339.356 68.8438 339.356C70.0898 339.356 71.1398 338.572 71.1398 336.906V332.72H71.9938ZM77.2192 342.912C76.1832 342.912 75.3992 342.618 75.0772 342.394V341.638C75.4132 341.862 76.1132 342.17 77.1212 342.17C78.5772 342.17 79.9772 341.526 79.9772 339.622V338.446H79.9212C79.5012 339.384 78.3812 340.14 77.0092 340.14C75.2172 340.14 73.4112 338.838 73.4112 336.36C73.4112 333.882 75.2172 332.58 77.0092 332.58C78.3812 332.58 79.5012 333.336 79.9212 334.274H79.9772V332.72H80.8312V339.664C80.8312 342.128 78.9272 342.912 77.2192 342.912ZM74.2652 336.36C74.2652 338.376 75.7072 339.356 77.1212 339.356C78.5492 339.356 80.0052 338.362 80.0052 336.36C80.0052 334.358 78.5492 333.364 77.1212 333.364C75.7072 333.364 74.2652 334.344 74.2652 336.36ZM88.624 335.968C89.702 334.638 90.486 333.84 90.486 332.65C90.486 331.446 89.66 330.732 88.47 330.732C87.28 330.732 86.3 331.446 86.3 332.902V333.14H85.446V332.832C85.446 331.11 86.664 329.92 88.47 329.92C90.262 329.92 91.354 331.068 91.354 332.566C91.354 334.022 90.346 335.044 89.632 335.912L86.902 339.23H91.396V340H85.362L88.624 335.968ZM97.8688 340.14C95.1808 340.14 92.8848 338.096 92.8848 335.03C92.8848 331.964 95.1808 329.92 97.8688 329.92C100.557 329.92 102.853 331.964 102.853 335.03C102.853 338.096 100.557 340.14 97.8688 340.14ZM93.7388 335.03C93.7388 337.62 95.6848 339.328 97.8688 339.328C100.053 339.328 101.999 337.62 101.999 335.03C101.999 332.44 100.053 330.732 97.8688 330.732C95.6848 330.732 93.7388 332.44 93.7388 335.03ZM105.318 340V330.872H104.002V330.06H106.172V340H105.318ZM111.1 340.14C109.434 340.14 107.95 338.992 107.95 337.186C107.95 335.884 108.706 334.96 109.728 334.526C108.958 334.05 108.524 333.252 108.524 332.37C108.524 331.068 109.518 329.92 111.1 329.92C112.682 329.92 113.676 331.068 113.676 332.37C113.676 333.252 113.242 334.05 112.472 334.526C113.494 334.96 114.25 335.884 114.25 337.186C114.25 338.992 112.766 340.14 111.1 340.14ZM108.832 337.158C108.832 338.488 109.882 339.342 111.1 339.342C112.318 339.342 113.382 338.502 113.382 337.158C113.382 335.856 112.374 334.974 111.1 334.974C109.826 334.974 108.832 335.856 108.832 337.158ZM109.322 332.426C109.322 333.434 110.106 334.218 111.1 334.218C112.108 334.218 112.892 333.434 112.892 332.426C112.892 331.502 112.22 330.69 111.1 330.69C109.994 330.69 109.322 331.502 109.322 332.426Z" fill="#748AA1"/>
<path d="M153.307 340.14C151.641 340.14 150.367 339.16 150.045 337.732L150.773 337.41C151.053 338.558 152.033 339.314 153.307 339.314C154.497 339.314 155.491 338.656 155.491 337.41C155.491 336.234 154.637 335.73 153.405 335.24L152.733 334.974C151.235 334.386 150.465 333.546 150.465 332.356C150.465 330.886 151.655 329.92 153.209 329.92C154.819 329.92 155.757 330.9 156.121 331.978L155.435 332.314C155.057 331.362 154.357 330.732 153.237 330.732C152.159 330.732 151.333 331.348 151.333 332.356C151.333 333.154 151.809 333.77 153.041 334.246L153.713 334.512C155.281 335.142 156.387 335.842 156.387 337.41C156.387 339.174 154.959 340.14 153.307 340.14ZM161.151 340.14C159.219 340.14 157.455 338.796 157.455 336.346C157.455 333.91 159.233 332.58 161.053 332.58C162.901 332.58 164.763 333.924 164.525 336.668H158.267C158.407 338.432 159.723 339.384 161.249 339.384C162.173 339.384 163.027 339.034 163.559 338.404L164.007 338.866C163.349 339.678 162.285 340.14 161.151 340.14ZM158.267 335.982H163.755C163.713 334.274 162.439 333.336 161.053 333.336C159.709 333.336 158.421 334.246 158.267 335.982ZM165.817 342.66V332.72H166.671V334.274H166.713C167.133 333.336 168.253 332.58 169.625 332.58C171.445 332.58 173.237 333.882 173.237 336.36C173.237 338.838 171.445 340.14 169.625 340.14C168.253 340.14 167.133 339.384 166.713 338.446H166.671V342.66H165.817ZM166.643 336.36C166.643 338.362 168.085 339.356 169.513 339.356C170.941 339.356 172.383 338.376 172.383 336.36C172.383 334.344 170.941 333.364 169.513 333.364C168.085 333.364 166.643 334.358 166.643 336.36ZM180.68 335.968C181.758 334.638 182.542 333.84 182.542 332.65C182.542 331.446 181.716 330.732 180.526 330.732C179.336 330.732 178.356 331.446 178.356 332.902V333.14H177.502V332.832C177.502 331.11 178.72 329.92 180.526 329.92C182.318 329.92 183.41 331.068 183.41 332.566C183.41 334.022 182.402 335.044 181.688 335.912L178.958 339.23H183.452V340H177.418L180.68 335.968ZM189.925 340.14C187.237 340.14 184.941 338.096 184.941 335.03C184.941 331.964 187.237 329.92 189.925 329.92C192.613 329.92 194.909 331.964 194.909 335.03C194.909 338.096 192.613 340.14 189.925 340.14ZM185.795 335.03C185.795 337.62 187.741 339.328 189.925 339.328C192.109 339.328 194.055 337.62 194.055 335.03C194.055 332.44 192.109 330.732 189.925 330.732C187.741 330.732 185.795 332.44 185.795 335.03ZM197.374 340V330.872H196.058V330.06H198.228V340H197.374ZM203.155 340.14C201.489 340.14 200.005 338.992 200.005 337.186C200.005 335.884 200.761 334.96 201.783 334.526C201.013 334.05 200.579 333.252 200.579 332.37C200.579 331.068 201.573 329.92 203.155 329.92C204.737 329.92 205.731 331.068 205.731 332.37C205.731 333.252 205.297 334.05 204.527 334.526C205.549 334.96 206.305 335.884 206.305 337.186C206.305 338.992 204.821 340.14 203.155 340.14ZM200.887 337.158C200.887 338.488 201.937 339.342 203.155 339.342C204.373 339.342 205.437 338.502 205.437 337.158C205.437 335.856 204.429 334.974 203.155 334.974C201.881 334.974 200.887 335.856 200.887 337.158ZM201.377 332.426C201.377 333.434 202.161 334.218 203.155 334.218C204.163 334.218 204.947 333.434 204.947 332.426C204.947 331.502 204.275 330.69 203.155 330.69C202.049 330.69 201.377 331.502 201.377 332.426Z" fill="#748AA1"/>
<path d="M248.443 340.14C245.797 340.14 243.431 338.096 243.431 335.03C243.431 331.964 245.797 329.92 248.443 329.92C251.103 329.92 253.455 331.964 253.455 335.03C253.455 338.096 251.103 340.14 248.443 340.14ZM244.313 335.03C244.313 337.62 246.287 339.3 248.443 339.3C250.599 339.3 252.573 337.62 252.573 335.03C252.573 332.44 250.599 330.76 248.443 330.76C246.287 330.76 244.313 332.44 244.313 335.03ZM258.471 340.14C256.609 340.14 254.733 338.782 254.733 336.374C254.733 333.938 256.609 332.58 258.471 332.58C259.731 332.58 260.949 333.196 261.579 334.372L260.907 334.75C260.417 333.854 259.479 333.364 258.499 333.364C257.057 333.364 255.587 334.428 255.587 336.374C255.587 338.292 257.057 339.356 258.499 339.356C259.479 339.356 260.417 338.866 260.907 337.97L261.579 338.348C260.949 339.524 259.731 340.14 258.471 340.14ZM264.987 340.084C264.147 340.084 263.587 339.678 263.587 338.768V333.434H262.649V332.72H263.587V330.858H264.441V332.72H265.855V333.434H264.441V338.586C264.441 339.062 264.679 339.314 265.169 339.314C265.337 339.314 265.561 339.286 265.827 339.174V339.874C265.575 340.042 265.267 340.084 264.987 340.084ZM273.364 335.968C274.442 334.638 275.226 333.84 275.226 332.65C275.226 331.446 274.4 330.732 273.21 330.732C272.02 330.732 271.04 331.446 271.04 332.902V333.14H270.186V332.832C270.186 331.11 271.404 329.92 273.21 329.92C275.002 329.92 276.094 331.068 276.094 332.566C276.094 334.022 275.086 335.044 274.372 335.912L271.642 339.23H276.136V340H270.102L273.364 335.968ZM282.609 340.14C279.921 340.14 277.625 338.096 277.625 335.03C277.625 331.964 279.921 329.92 282.609 329.92C285.297 329.92 287.593 331.964 287.593 335.03C287.593 338.096 285.297 340.14 282.609 340.14ZM278.479 335.03C278.479 337.62 280.425 339.328 282.609 339.328C284.793 339.328 286.739 337.62 286.739 335.03C286.739 332.44 284.793 330.732 282.609 330.732C280.425 330.732 278.479 332.44 278.479 335.03ZM290.058 340V330.872H288.742V330.06H290.912V340H290.058ZM295.839 340.14C294.173 340.14 292.689 338.992 292.689 337.186C292.689 335.884 293.445 334.96 294.467 334.526C293.697 334.05 293.263 333.252 293.263 332.37C293.263 331.068 294.257 329.92 295.839 329.92C297.421 329.92 298.415 331.068 298.415 332.37C298.415 333.252 297.981 334.05 297.211 334.526C298.233 334.96 298.989 335.884 298.989 337.186C298.989 338.992 297.505 340.14 295.839 340.14ZM293.571 337.158C293.571 338.488 294.621 339.342 295.839 339.342C297.057 339.342 298.121 338.502 298.121 337.158C298.121 335.856 297.113 334.974 295.839 334.974C294.565 334.974 293.571 335.856 293.571 337.158ZM294.061 332.426C294.061 333.434 294.845 334.218 295.839 334.218C296.847 334.218 297.631 333.434 297.631 332.426C297.631 331.502 296.959 330.69 295.839 330.69C294.733 330.69 294.061 331.502 294.061 332.426Z" fill="#748AA1"/>
<path d="M335.599 340V330.06H336.495L342.529 338.53H342.599V330.06H343.467V340H342.571L336.537 331.53H336.467V340H335.599ZM348.64 340.14C346.764 340.14 344.888 338.782 344.888 336.36C344.888 333.938 346.764 332.58 348.64 332.58C350.516 332.58 352.392 333.938 352.392 336.36C352.392 338.782 350.516 340.14 348.64 340.14ZM345.742 336.36C345.742 338.292 347.17 339.356 348.64 339.356C350.11 339.356 351.538 338.292 351.538 336.36C351.538 334.428 350.11 333.364 348.64 333.364C347.17 333.364 345.742 334.428 345.742 336.36ZM356.004 340L352.896 332.72H353.792L356.396 338.908L359 332.72H359.896L356.788 340H356.004ZM367.196 335.968C368.274 334.638 369.058 333.84 369.058 332.65C369.058 331.446 368.232 330.732 367.042 330.732C365.852 330.732 364.872 331.446 364.872 332.902V333.14H364.018V332.832C364.018 331.11 365.236 329.92 367.042 329.92C368.834 329.92 369.926 331.068 369.926 332.566C369.926 334.022 368.918 335.044 368.204 335.912L365.474 339.23H369.968V340H363.934L367.196 335.968ZM376.441 340.14C373.753 340.14 371.457 338.096 371.457 335.03C371.457 331.964 373.753 329.92 376.441 329.92C379.129 329.92 381.425 331.964 381.425 335.03C381.425 338.096 379.129 340.14 376.441 340.14ZM372.311 335.03C372.311 337.62 374.257 339.328 376.441 339.328C378.625 339.328 380.571 337.62 380.571 335.03C380.571 332.44 378.625 330.732 376.441 330.732C374.257 330.732 372.311 332.44 372.311 335.03ZM383.89 340V330.872H382.574V330.06H384.744V340H383.89ZM389.672 340.14C388.006 340.14 386.522 338.992 386.522 337.186C386.522 335.884 387.278 334.96 388.3 334.526C387.53 334.05 387.096 333.252 387.096 332.37C387.096 331.068 388.09 329.92 389.672 329.92C391.254 329.92 392.248 331.068 392.248 332.37C392.248 333.252 391.814 334.05 391.044 334.526C392.066 334.96 392.822 335.884 392.822 337.186C392.822 338.992 391.338 340.14 389.672 340.14ZM387.404 337.158C387.404 338.488 388.454 339.342 389.672 339.342C390.89 339.342 391.954 338.502 391.954 337.158C391.954 335.856 390.946 334.974 389.672 334.974C388.398 334.974 387.404 335.856 387.404 337.158ZM387.894 332.426C387.894 333.434 388.678 334.218 389.672 334.218C390.68 334.218 391.464 333.434 391.464 332.426C391.464 331.502 390.792 330.69 389.672 330.69C388.566 330.69 387.894 331.502 387.894 332.426Z" fill="#748AA1"/>
<path d="M428.727 340V330.06H431.415C434.439 330.06 436.343 332.062 436.343 335.03C436.343 337.998 434.439 340 431.415 340H428.727ZM429.595 339.174H431.387C433.991 339.174 435.447 337.536 435.447 335.03C435.447 332.524 433.991 330.886 431.387 330.886H429.595V339.174ZM441.178 340.14C439.246 340.14 437.482 338.796 437.482 336.346C437.482 333.91 439.26 332.58 441.08 332.58C442.928 332.58 444.79 333.924 444.552 336.668H438.294C438.434 338.432 439.75 339.384 441.276 339.384C442.2 339.384 443.054 339.034 443.586 338.404L444.034 338.866C443.376 339.678 442.312 340.14 441.178 340.14ZM438.294 335.982H443.782C443.74 334.274 442.466 333.336 441.08 333.336C439.736 333.336 438.448 334.246 438.294 335.982ZM449.369 340.14C447.507 340.14 445.631 338.782 445.631 336.374C445.631 333.938 447.507 332.58 449.369 332.58C450.629 332.58 451.847 333.196 452.477 334.372L451.805 334.75C451.315 333.854 450.377 333.364 449.397 333.364C447.955 333.364 446.485 334.428 446.485 336.374C446.485 338.292 447.955 339.356 449.397 339.356C450.377 339.356 451.315 338.866 451.805 337.97L452.477 338.348C451.847 339.524 450.629 340.14 449.369 340.14ZM459.928 335.968C461.006 334.638 461.79 333.84 461.79 332.65C461.79 331.446 460.964 330.732 459.774 330.732C458.584 330.732 457.604 331.446 457.604 332.902V333.14H456.75V332.832C456.75 331.11 457.968 329.92 459.774 329.92C461.566 329.92 462.658 331.068 462.658 332.566C462.658 334.022 461.65 335.044 460.936 335.912L458.206 339.23H462.7V340H456.666L459.928 335.968ZM469.173 340.14C466.485 340.14 464.189 338.096 464.189 335.03C464.189 331.964 466.485 329.92 469.173 329.92C471.861 329.92 474.157 331.964 474.157 335.03C474.157 338.096 471.861 340.14 469.173 340.14ZM465.043 335.03C465.043 337.62 466.989 339.328 469.173 339.328C471.357 339.328 473.303 337.62 473.303 335.03C473.303 332.44 471.357 330.732 469.173 330.732C466.989 330.732 465.043 332.44 465.043 335.03ZM476.622 340V330.872H475.306V330.06H477.476V340H476.622ZM482.403 340.14C480.737 340.14 479.253 338.992 479.253 337.186C479.253 335.884 480.009 334.96 481.031 334.526C480.261 334.05 479.827 333.252 479.827 332.37C479.827 331.068 480.821 329.92 482.403 329.92C483.985 329.92 484.979 331.068 484.979 332.37C484.979 333.252 484.545 334.05 483.775 334.526C484.797 334.96 485.553 335.884 485.553 337.186C485.553 338.992 484.069 340.14 482.403 340.14ZM480.135 337.158C480.135 338.488 481.185 339.342 482.403 339.342C483.621 339.342 484.685 338.502 484.685 337.158C484.685 335.856 483.677 334.974 482.403 334.974C481.129 334.974 480.135 335.856 480.135 337.158ZM480.625 332.426C480.625 333.434 481.409 334.218 482.403 334.218C483.411 334.218 484.195 333.434 484.195 332.426C484.195 331.502 483.523 330.69 482.403 330.69C481.297 330.69 480.625 331.502 480.625 332.426Z" fill="#748AA1"/>
<path d="M524.479 340.14C523.387 340.14 522.533 339.664 522.085 338.88L522.659 338.32C523.051 338.908 523.611 339.3 524.451 339.3C525.585 339.3 526.425 338.6 526.425 337.046V330.06H527.293V337.13C527.293 339.244 525.963 340.14 524.479 340.14ZM532.316 340.14C530.496 340.14 528.704 338.838 528.704 336.36C528.704 333.882 530.496 332.58 532.316 332.58C533.688 332.58 534.808 333.336 535.228 334.274H535.27V332.72H536.124V340H535.27V338.446H535.228C534.808 339.384 533.688 340.14 532.316 340.14ZM529.558 336.36C529.558 338.376 531 339.356 532.428 339.356C533.856 339.356 535.298 338.362 535.298 336.36C535.298 334.358 533.856 333.364 532.428 333.364C531 333.364 529.558 334.344 529.558 336.36ZM537.886 340V332.72H538.74V333.994C539.104 333.28 539.916 332.58 541.26 332.58C542.814 332.58 544.144 333.546 544.144 335.716V340H543.29V335.814C543.29 334.148 542.296 333.364 541.036 333.364C539.79 333.364 538.74 334.148 538.74 335.814V340H537.886ZM551.942 335.968C553.02 334.638 553.804 333.84 553.804 332.65C553.804 331.446 552.978 330.732 551.788 330.732C550.598 330.732 549.618 331.446 549.618 332.902V333.14H548.764V332.832C548.764 331.11 549.982 329.92 551.788 329.92C553.58 329.92 554.672 331.068 554.672 332.566C554.672 334.022 553.664 335.044 552.95 335.912L550.22 339.23H554.714V340H548.68L551.942 335.968ZM561.187 340.14C558.499 340.14 556.203 338.096 556.203 335.03C556.203 331.964 558.499 329.92 561.187 329.92C563.875 329.92 566.171 331.964 566.171 335.03C566.171 338.096 563.875 340.14 561.187 340.14ZM557.057 335.03C557.057 337.62 559.003 339.328 561.187 339.328C563.371 339.328 565.317 337.62 565.317 335.03C565.317 332.44 563.371 330.732 561.187 330.732C559.003 330.732 557.057 332.44 557.057 335.03ZM568.636 340V330.872H567.32V330.06H569.49V340H568.636ZM574.46 329.92C576.224 329.92 577.638 331.166 577.638 333.084C577.638 334.652 576.658 335.842 576.126 336.584L573.704 340H572.738L575.86 335.618C575.314 335.982 574.768 336.066 574.334 336.066C572.64 336.066 571.268 334.862 571.268 333.042C571.268 331.166 572.696 329.92 574.46 329.92ZM572.094 333.014C572.094 334.442 573.2 335.31 574.46 335.31C575.72 335.31 576.812 334.442 576.812 333.014C576.812 331.572 575.72 330.704 574.46 330.704C573.2 330.704 572.094 331.572 572.094 333.014Z" fill="#748AA1"/>
<path d="M615.463 340V330.06H620.699V330.844H616.331V334.624H620.265V335.366H616.331V340H615.463ZM625.18 340.14C623.248 340.14 621.484 338.796 621.484 336.346C621.484 333.91 623.262 332.58 625.082 332.58C626.93 332.58 628.792 333.924 628.554 336.668H622.296C622.436 338.432 623.752 339.384 625.278 339.384C626.202 339.384 627.056 339.034 627.588 338.404L628.036 338.866C627.378 339.678 626.314 340.14 625.18 340.14ZM622.296 335.982H627.784C627.742 334.274 626.468 333.336 625.082 333.336C623.738 333.336 622.45 334.246 622.296 335.982ZM629.983 330.06H630.837V334.274H630.879C631.299 333.336 632.419 332.58 633.791 332.58C635.611 332.58 637.403 333.882 637.403 336.36C637.403 338.838 635.611 340.14 633.791 340.14C632.419 340.14 631.299 339.384 630.879 338.446H630.837V340H629.983V330.06ZM630.809 336.36C630.809 338.362 632.251 339.356 633.679 339.356C635.107 339.356 636.549 338.376 636.549 336.36C636.549 334.344 635.107 333.364 633.679 333.364C632.251 333.364 630.809 334.358 630.809 336.36ZM644.846 335.968C645.924 334.638 646.708 333.84 646.708 332.65C646.708 331.446 645.882 330.732 644.692 330.732C643.502 330.732 642.522 331.446 642.522 332.902V333.14H641.668V332.832C641.668 331.11 642.886 329.92 644.692 329.92C646.484 329.92 647.576 331.068 647.576 332.566C647.576 334.022 646.568 335.044 645.854 335.912L643.124 339.23H647.618V340H641.584L644.846 335.968ZM654.091 340.14C651.403 340.14 649.107 338.096 649.107 335.03C649.107 331.964 651.403 329.92 654.091 329.92C656.779 329.92 659.075 331.964 659.075 335.03C659.075 338.096 656.779 340.14 654.091 340.14ZM649.961 335.03C649.961 337.62 651.907 339.328 654.091 339.328C656.275 339.328 658.221 337.62 658.221 335.03C658.221 332.44 656.275 330.732 654.091 330.732C651.907 330.732 649.961 332.44 649.961 335.03ZM661.54 340V330.872H660.224V330.06H662.394V340H661.54ZM667.363 329.92C669.127 329.92 670.541 331.166 670.541 333.084C670.541 334.652 669.561 335.842 669.029 336.584L666.607 340H665.641L668.763 335.618C668.217 335.982 667.671 336.066 667.237 336.066C665.543 336.066 664.171 334.862 664.171 333.042C664.171 331.166 665.599 329.92 667.363 329.92ZM664.997 333.014C664.997 334.442 666.103 335.31 667.363 335.31C668.623 335.31 669.715 334.442 669.715 333.014C669.715 331.572 668.623 330.704 667.363 330.704C666.103 330.704 664.997 331.572 664.997 333.014Z" fill="#748AA1"/>
<path d="M707.272 340V330.06H708.252L712.396 338.866L716.54 330.06H717.52V340H716.652V331.838H716.582L712.732 340H712.06L708.21 331.838H708.14V340H707.272ZM722.551 340.14C720.731 340.14 718.939 338.838 718.939 336.36C718.939 333.882 720.731 332.58 722.551 332.58C723.923 332.58 725.043 333.336 725.463 334.274H725.505V332.72H726.359V340H725.505V338.446H725.463C725.043 339.384 723.923 340.14 722.551 340.14ZM719.793 336.36C719.793 338.376 721.235 339.356 722.663 339.356C724.091 339.356 725.533 338.362 725.533 336.36C725.533 334.358 724.091 333.364 722.663 333.364C721.235 333.364 719.793 334.344 719.793 336.36ZM728.122 340V332.72H728.976V334.414C729.27 333.434 729.998 332.58 731.342 332.58C731.51 332.58 731.622 332.594 731.72 332.622V333.42C731.608 333.392 731.51 333.378 731.356 333.378C730.026 333.378 728.976 334.428 728.976 336.136V340H728.122ZM738.896 335.968C739.974 334.638 740.758 333.84 740.758 332.65C740.758 331.446 739.932 330.732 738.742 330.732C737.552 330.732 736.572 331.446 736.572 332.902V333.14H735.718V332.832C735.718 331.11 736.936 329.92 738.742 329.92C740.534 329.92 741.626 331.068 741.626 332.566C741.626 334.022 740.618 335.044 739.904 335.912L737.174 339.23H741.668V340H735.634L738.896 335.968ZM748.141 340.14C745.453 340.14 743.157 338.096 743.157 335.03C743.157 331.964 745.453 329.92 748.141 329.92C750.829 329.92 753.125 331.964 753.125 335.03C753.125 338.096 750.829 340.14 748.141 340.14ZM744.011 335.03C744.011 337.62 745.957 339.328 748.141 339.328C750.325 339.328 752.271 337.62 752.271 335.03C752.271 332.44 750.325 330.732 748.141 330.732C745.957 330.732 744.011 332.44 744.011 335.03ZM755.591 340V330.872H754.275V330.06H756.445V340H755.591ZM761.414 329.92C763.178 329.92 764.592 331.166 764.592 333.084C764.592 334.652 763.612 335.842 763.08 336.584L760.658 340H759.692L762.814 335.618C762.268 335.982 761.722 336.066 761.288 336.066C759.594 336.066 758.222 334.862 758.222 333.042C758.222 331.166 759.65 329.92 761.414 329.92ZM759.048 333.014C759.048 334.442 760.154 335.31 761.414 335.31C762.674 335.31 763.766 334.442 763.766 333.014C763.766 331.572 762.674 330.704 761.414 330.704C760.154 330.704 759.048 331.572 759.048 333.014Z" fill="#748AA1"/>
<path d="M804.911 330.06H805.751L809.741 340H808.803L807.795 337.466H802.867L801.859 340H800.921L804.911 330.06ZM803.189 336.654H807.473L805.331 331.222L803.189 336.654ZM810.942 342.66V332.72H811.796V334.274H811.838C812.258 333.336 813.378 332.58 814.75 332.58C816.57 332.58 818.362 333.882 818.362 336.36C818.362 338.838 816.57 340.14 814.75 340.14C813.378 340.14 812.258 339.384 811.838 338.446H811.796V342.66H810.942ZM811.768 336.36C811.768 338.362 813.21 339.356 814.638 339.356C816.066 339.356 817.508 338.376 817.508 336.36C817.508 334.344 816.066 333.364 814.638 333.364C813.21 333.364 811.768 334.358 811.768 336.36ZM819.774 340V332.72H820.628V334.414C820.922 333.434 821.65 332.58 822.994 332.58C823.162 332.58 823.274 332.594 823.372 332.622V333.42C823.26 333.392 823.162 333.378 823.008 333.378C821.678 333.378 820.628 334.428 820.628 336.136V340H819.774ZM830.549 335.968C831.627 334.638 832.411 333.84 832.411 332.65C832.411 331.446 831.585 330.732 830.395 330.732C829.205 330.732 828.225 331.446 828.225 332.902V333.14H827.371V332.832C827.371 331.11 828.589 329.92 830.395 329.92C832.187 329.92 833.279 331.068 833.279 332.566C833.279 334.022 832.271 335.044 831.557 335.912L828.827 339.23H833.321V340H827.287L830.549 335.968ZM839.794 340.14C837.106 340.14 834.81 338.096 834.81 335.03C834.81 331.964 837.106 329.92 839.794 329.92C842.482 329.92 844.778 331.964 844.778 335.03C844.778 338.096 842.482 340.14 839.794 340.14ZM835.664 335.03C835.664 337.62 837.61 339.328 839.794 339.328C841.978 339.328 843.924 337.62 843.924 335.03C843.924 332.44 841.978 330.732 839.794 330.732C837.61 330.732 835.664 332.44 835.664 335.03ZM847.243 340V330.872H845.927V330.06H848.097V340H847.243ZM853.066 329.92C854.83 329.92 856.244 331.166 856.244 333.084C856.244 334.652 855.264 335.842 854.732 336.584L852.31 340H851.344L854.466 335.618C853.92 335.982 853.374 336.066 852.94 336.066C851.246 336.066 849.874 334.862 849.874 333.042C849.874 331.166 851.302 329.92 853.066 329.92ZM850.7 333.014C850.7 334.442 851.806 335.31 853.066 335.31C854.326 335.31 855.418 334.442 855.418 333.014C855.418 331.572 854.326 330.704 853.066 330.704C851.806 330.704 850.7 331.572 850.7 333.014Z" fill="#748AA1"/>
<path d="M891.683 340V330.06H892.663L896.807 338.866L900.951 330.06H901.931V340H901.063V331.838H900.993L897.143 340H896.471L892.621 331.838H892.551V340H891.683ZM906.963 340.14C905.143 340.14 903.351 338.838 903.351 336.36C903.351 333.882 905.143 332.58 906.963 332.58C908.335 332.58 909.455 333.336 909.875 334.274H909.917V332.72H910.771V340H909.917V338.446H909.875C909.455 339.384 908.335 340.14 906.963 340.14ZM904.205 336.36C904.205 338.376 905.647 339.356 907.075 339.356C908.503 339.356 909.945 338.362 909.945 336.36C909.945 334.358 908.503 333.364 907.075 333.364C905.647 333.364 904.205 334.344 904.205 336.36ZM913.782 342.66L914.986 339.944L911.906 332.72H912.802L915.406 338.908L918.01 332.72H918.906L915.798 340L914.622 342.66H913.782ZM926.206 335.968C927.284 334.638 928.068 333.84 928.068 332.65C928.068 331.446 927.242 330.732 926.052 330.732C924.862 330.732 923.882 331.446 923.882 332.902V333.14H923.028V332.832C923.028 331.11 924.246 329.92 926.052 329.92C927.844 329.92 928.936 331.068 928.936 332.566C928.936 334.022 927.928 335.044 927.214 335.912L924.484 339.23H928.978V340H922.944L926.206 335.968ZM935.451 340.14C932.763 340.14 930.467 338.096 930.467 335.03C930.467 331.964 932.763 329.92 935.451 329.92C938.139 329.92 940.435 331.964 940.435 335.03C940.435 338.096 938.139 340.14 935.451 340.14ZM931.321 335.03C931.321 337.62 933.267 339.328 935.451 339.328C937.635 339.328 939.581 337.62 939.581 335.03C939.581 332.44 937.635 330.732 935.451 330.732C933.267 330.732 931.321 332.44 931.321 335.03ZM942.9 340V330.872H941.584V330.06H943.754V340H942.9ZM948.724 329.92C950.488 329.92 951.902 331.166 951.902 333.084C951.902 334.652 950.922 335.842 950.39 336.584L947.968 340H947.002L950.124 335.618C949.578 335.982 949.032 336.066 948.598 336.066C946.904 336.066 945.532 334.862 945.532 333.042C945.532 331.166 946.96 329.92 948.724 329.92ZM946.358 333.014C946.358 334.442 947.464 335.31 948.724 335.31C949.984 335.31 951.076 334.442 951.076 333.014C951.076 331.572 949.984 330.704 948.724 330.704C947.464 330.704 946.358 331.572 946.358 333.014Z" fill="#748AA1"/>
<rect x="4" y="89" width="999" height="1" fill="#EBEDF4"/>
<rect x="4" y="140" width="999" height="1" fill="#EBEDF4"/>
<rect x="4" y="191" width="999" height="1" fill="#EBEDF4"/>
<rect x="4" y="242" width="999" height="1" fill="#EBEDF4"/>
<rect x="4" y="293" width="999" height="1" fill="#EBEDF4"/>
<g filter="url(#filter1_d_150_12871)">
<path fill-rule="evenodd" clip-rule="evenodd" d="M512.725 94C509.963 94 507.725 96.2386 507.725 99V129C507.725 131.761 509.963 134 512.725 134H546.486L549.334 137.333C549.54 137.573 549.927 137.573 550.133 137.333L552.981 134H587.207C589.968 134 592.207 131.761 592.207 129V99C592.207 96.2386 589.968 94 587.207 94H512.725Z" fill="white"/>
</g>
<path d="M538.225 117.814C539.359 116.33 539.779 115.798 539.779 115C539.779 113.936 539.009 113.67 538.491 113.67C537.889 113.67 537.105 114.034 537.105 115.168V115.42H535.201V115C535.201 113.348 536.307 111.92 538.519 111.92C540.521 111.92 541.767 113.138 541.767 114.734C541.767 116.036 540.955 116.974 540.129 118.038L538.365 120.334H541.767V122H535.061L538.225 117.814ZM546.258 122.14C544.536 122.14 543.29 121.188 542.842 119.942L544.228 119.102C544.62 120.04 545.376 120.488 546.188 120.488C547.168 120.488 548.008 119.844 548.008 118.682C548.008 117.296 546.734 116.484 545.152 117.058L546.916 113.698H543.388V112.06H549.618L547.56 115.77C548.778 115.98 549.926 117.114 549.926 118.808C549.926 120.852 548.274 122.14 546.258 122.14ZM555.135 122V119.774H550.935V118.122L555.135 112.06H557.053V118.122H558.103V119.774H557.053V122H555.135ZM552.839 118.122H555.135V114.636L552.839 118.122ZM562.263 122.14C560.625 122.14 559.435 121.272 558.973 120.096L560.415 119.298C560.569 119.774 561.227 120.46 562.207 120.46C563.089 120.46 564.027 119.914 564.027 118.682C564.027 117.548 563.201 116.876 562.249 116.876C561.353 116.876 560.835 117.422 560.653 117.716L559.183 117.072L559.841 112.06H564.895V113.698H561.311L561.003 115.854C561.087 115.714 561.717 115.322 562.669 115.322C564.307 115.322 565.875 116.54 565.875 118.668C565.875 120.866 564.223 122.14 562.263 122.14Z" fill="#31394D"/>
<path d="M84.2578 215C84.2578 215 146.82 232.294 183.25 231.192C219.68 230.089 247.581 209.19 276.287 209.19C304.992 209.19 328.578 231.192 368.795 231.192C409.013 231.192 432.323 178.18 458.23 178.18C484.136 178.18 533.426 209.19 557.874 209.19C582.321 209.19 624.923 171.558 649.38 171.558C673.836 171.558 679.304 178.18 740.642 178.18C801.98 178.18 787.476 163.129 829.601 163.129C871.727 163.129 888.491 186.395 924.202 215" stroke="#E5E9F2" stroke-width="2" stroke-linecap="round" stroke-linejoin="round"/>
<g filter="url(#filter2_d_150_12871)">
<path d="M84.2578 255C84.2578 255 146.82 212.66 183.25 211.557C219.68 210.455 247.581 249.19 276.287 249.19C304.992 249.19 328.578 166.456 368.795 166.456C409.013 166.456 432.323 199.764 458.23 199.764C484.136 199.764 506.92 166.456 550.466 166.456C594.012 166.456 624.923 211.557 649.38 211.557C673.836 211.557 679.304 170.793 740.642 170.793C801.98 170.793 787.476 135 829.601 135C871.727 135 829.601 185.742 923.798 198.529" stroke="#04773B" stroke-width="2" stroke-linecap="round" stroke-linejoin="round"/>
</g>
<rect x="541.405" y="158" width="17.1205" height="16" rx="8" fill="white" stroke="#04773B" stroke-width="4"/>
<rect opacity="0.1" x="529.345" y="146.5" width="41.241" height="39" rx="19.5" fill="url(#paint0_radial_150_12871)" stroke="#04773B"/>
<defs>
<filter id="filter0_d_150_12871" x="0" y="0" width="1007" height="378" filterUnits="userSpaceOnUse" color-interpolation-filters="sRGB">
<feFlood flood-opacity="0" result="BackgroundImageFix"/>
<feColorMatrix in="SourceAlpha" type="matrix" values="0 0 0 0 0 0 0 0 0 0 0 0 0 0 0 0 0 0 127 0" result="hardAlpha"/>
<feOffset dy="1"/>
<feGaussianBlur stdDeviation="2"/>
<feColorMatrix type="matrix" values="0 0 0 0 0.898039 0 0 0 0 0.913725 0 0 0 0 0.94902 0 0 0 1 0"/>
<feBlend mode="normal" in2="BackgroundImageFix" result="effect1_dropShadow_150_12871"/>
<feBlend mode="normal" in="SourceGraphic" in2="effect1_dropShadow_150_12871" result="shape"/>
</filter>
<filter id="filter1_d_150_12871" x="497.725" y="89" width="104.482" height="63.5137" filterUnits="userSpaceOnUse" color-interpolation-filters="sRGB">
<feFlood flood-opacity="0" result="BackgroundImageFix"/>
<feColorMatrix in="SourceAlpha" type="matrix" values="0 0 0 0 0 0 0 0 0 0 0 0 0 0 0 0 0 0 127 0" result="hardAlpha"/>
<feOffset dy="5"/>
<feGaussianBlur stdDeviation="5"/>
<feColorMatrix type="matrix" values="0 0 0 0 0.795239 0 0 0 0 0.819323 0 0 0 0 0.873512 0 0 0 0.5 0"/>
<feBlend mode="normal" in2="BackgroundImageFix" result="effect1_dropShadow_150_12871"/>
<feBlend mode="normal" in="SourceGraphic" in2="effect1_dropShadow_150_12871" result="shape"/>
</filter>
<filter id="filter2_d_150_12871" x="73.2578" y="134" width="861.54" height="142" filterUnits="userSpaceOnUse" color-interpolation-filters="sRGB">
<feFlood flood-opacity="0" result="BackgroundImageFix"/>
<feColorMatrix in="SourceAlpha" type="matrix" values="0 0 0 0 0 0 0 0 0 0 0 0 0 0 0 0 0 0 127 0" result="hardAlpha"/>
<feOffset dy="10"/>
<feGaussianBlur stdDeviation="5"/>
<feColorMatrix type="matrix" values="0 0 0 0 0 0 0 0 0 0 0 0 0 0 0 0 0 0 0.2 0"/>
<feBlend mode="normal" in2="BackgroundImageFix" result="effect1_dropShadow_150_12871"/>
<feBlend mode="normal" in="SourceGraphic" in2="effect1_dropShadow_150_12871" result="shape"/>
</filter>
<radialGradient id="paint0_radial_150_12871" cx="0" cy="0" r="1" gradientUnits="userSpaceOnUse" gradientTransform="translate(549.965 166) rotate(90) scale(20 21.1205)">
<stop stop-color="#04773B"/>
<stop offset="1" stop-color="#04773B" stop-opacity="0.2"/>
</radialGradient>
</defs>
</svg>
