<svg width="461" height="450" viewBox="0 0 461 450" fill="none" xmlns="http://www.w3.org/2000/svg">
<g filter="url(#filter0_b_162_16467)">
<ellipse cx="331.548" cy="274.663" rx="128.717" ry="128.337" fill="url(#paint0_linear_162_16467)"/>
</g>
<path d="M369.518 266.978C367.533 266.978 365.887 265.332 365.887 263.348V243.741H346.281C344.296 243.741 342.65 242.095 342.65 240.11C342.65 238.125 344.296 236.479 346.281 236.479H369.518C371.503 236.479 373.149 238.125 373.149 240.11V263.348C373.149 265.332 371.503 266.978 369.518 266.978Z" fill="#04773B"/>
<path opacity="0.4" d="M329.772 289.538L313.942 305.369C312.199 303.819 310.504 302.222 308.858 300.576C303.872 295.541 299.37 290.264 295.352 284.745C291.382 279.226 288.187 273.708 285.863 268.237C283.539 262.718 282.377 257.441 282.377 252.407C282.377 249.115 282.958 245.968 284.12 243.063C285.282 240.11 287.122 237.399 289.688 234.979C292.786 231.929 296.175 230.428 299.757 230.428C301.113 230.428 302.468 230.718 303.678 231.299C304.937 231.88 306.051 232.752 306.922 234.01L318.153 249.841C319.025 251.051 319.654 252.165 320.09 253.23C320.526 254.246 320.768 255.263 320.768 256.183C320.768 257.345 320.429 258.506 319.751 259.62C319.122 260.733 318.202 261.895 317.04 263.057L313.361 266.882C312.828 267.414 312.586 268.043 312.586 268.818C312.586 269.205 312.635 269.544 312.731 269.932C312.877 270.319 313.022 270.609 313.119 270.9C313.99 272.497 315.491 274.579 317.621 277.096C319.799 279.614 322.123 282.18 324.641 284.745C326.383 286.44 328.078 288.086 329.772 289.538Z" fill="#04773B"/>
<path d="M379.055 309.484C379.055 310.839 378.813 312.243 378.329 313.599C378.184 313.986 378.039 314.373 377.845 314.76C377.022 316.503 375.957 318.149 374.553 319.698C372.181 322.313 369.567 324.201 366.614 325.411C366.565 325.411 366.517 325.459 366.468 325.459C363.612 326.621 360.514 327.251 357.173 327.251C352.235 327.251 346.959 326.089 341.391 323.716C335.824 321.344 330.257 318.149 324.738 314.131C322.85 312.727 320.962 311.323 319.17 309.822L335.001 293.992C336.356 295.009 337.567 295.783 338.583 296.316C338.825 296.412 339.116 296.558 339.455 296.703C339.842 296.848 340.229 296.897 340.665 296.897C341.488 296.897 342.117 296.606 342.65 296.074L346.329 292.443C347.539 291.232 348.701 290.313 349.815 289.732C350.928 289.054 352.042 288.715 353.252 288.715C354.172 288.715 355.14 288.909 356.205 289.344C357.27 289.78 358.384 290.409 359.594 291.232L375.618 302.609C376.877 303.481 377.748 304.497 378.281 305.707C378.765 306.918 379.055 308.128 379.055 309.484Z" fill="#04773B"/>
<g filter="url(#filter1_b_162_16467)">
<ellipse cx="128.717" cy="321.663" rx="128.717" ry="128.337" fill="url(#paint1_linear_162_16467)"/>
</g>
<path opacity="0.4" d="M152.163 366.989H103.752C89.2287 366.989 79.5464 359.727 79.5464 342.783V308.895C79.5464 291.951 89.2287 284.69 103.752 284.69H152.163C166.687 284.69 176.369 291.951 176.369 308.895V342.783C176.369 359.727 166.687 366.989 152.163 366.989Z" fill="#04773B"/>
<path d="M127.958 340.363C135.979 340.363 142.481 333.86 142.481 325.839C142.481 317.818 135.979 311.316 127.958 311.316C119.937 311.316 113.435 317.818 113.435 325.839C113.435 333.86 119.937 340.363 127.958 340.363Z" fill="#04773B"/>
<path d="M96.4907 341.573C94.5058 341.573 92.8599 339.927 92.8599 337.942V313.736C92.8599 311.752 94.5058 310.106 96.4907 310.106C98.4756 310.106 100.122 311.752 100.122 313.736V337.942C100.122 339.927 98.4756 341.573 96.4907 341.573Z" fill="#04773B"/>
<path d="M159.425 341.573C157.44 341.573 155.794 339.927 155.794 337.942V313.736C155.794 311.752 157.44 310.106 159.425 310.106C161.41 310.106 163.056 311.752 163.056 313.736V337.942C163.056 339.927 161.41 341.573 159.425 341.573Z" fill="#04773B"/>
<g filter="url(#filter2_b_162_16467)">
<ellipse cx="201.232" cy="128.337" rx="128.717" ry="128.337" fill="url(#paint2_linear_162_16467)"/>
</g>
<path opacity="0.4" d="M224.679 111.939C223.759 111.939 222.839 111.6 222.113 110.874C220.709 109.47 220.709 107.147 222.113 105.743L232.037 95.8183C223.517 88.5566 212.527 84.1028 200.473 84.1028C173.75 84.1028 152.062 105.791 152.062 132.514C152.062 159.237 173.75 180.925 200.473 180.925C227.196 180.925 248.884 159.237 248.884 132.514C248.884 120.46 244.43 109.47 237.169 100.95L227.244 110.874C226.518 111.6 225.598 111.939 224.679 111.939Z" fill="#04773B"/>
<path d="M208.945 131.643L204.104 129.948V119.201H204.491C206.96 119.201 208.945 121.38 208.945 124.042C208.945 126.027 210.591 127.673 212.576 127.673C214.561 127.673 216.207 126.027 216.207 124.042C216.207 117.361 210.978 111.939 204.491 111.939H204.104V110.729C204.104 108.744 202.458 107.098 200.473 107.098C198.488 107.098 196.842 108.744 196.842 110.729V111.939H195.39C189.532 111.939 184.739 116.877 184.739 122.977C184.739 130.045 188.854 132.321 192.001 133.434L196.842 135.128V145.876H196.455C193.986 145.876 192.001 143.697 192.001 141.035C192.001 139.05 190.355 137.404 188.37 137.404C186.385 137.404 184.739 139.05 184.739 141.035C184.739 147.715 189.968 153.137 196.455 153.137H196.842V154.348C196.842 156.333 198.488 157.979 200.473 157.979C202.458 157.979 204.104 156.333 204.104 154.348V153.137H205.556C211.414 153.137 216.207 148.199 216.207 142.1C216.207 134.983 212.092 132.708 208.945 131.643ZM194.373 126.511C192.727 125.93 192.001 125.591 192.001 122.929C192.001 120.847 193.55 119.153 195.39 119.153H196.842V127.334L194.373 126.511ZM205.556 145.827H204.104V137.646L206.573 138.517C208.219 139.098 208.945 139.437 208.945 142.1C208.945 144.133 207.396 145.827 205.556 145.827Z" fill="#04773B"/>
<path d="M252.224 82.6988C251.836 81.8274 251.159 81.1012 250.239 80.714C249.803 80.5203 249.319 80.4235 248.835 80.4235H229.47C227.485 80.4235 225.839 82.0694 225.839 84.0543C225.839 86.0392 227.485 87.6852 229.47 87.6852H240.072L231.988 95.7699C233.827 97.3675 235.522 99.0618 237.119 100.901L245.204 92.8168V103.467C245.204 105.452 246.85 107.098 248.835 107.098C250.82 107.098 252.466 105.452 252.466 103.467V84.1027C252.514 83.6186 252.417 83.1829 252.224 82.6988Z" fill="#04773B"/>
<defs>
<filter id="filter0_b_162_16467" x="168.331" y="111.825" width="326.435" height="325.675" filterUnits="userSpaceOnUse" color-interpolation-filters="sRGB">
<feFlood flood-opacity="0" result="BackgroundImageFix"/>
<feGaussianBlur in="BackgroundImageFix" stdDeviation="17.25"/>
<feComposite in2="SourceAlpha" operator="in" result="effect1_backgroundBlur_162_16467"/>
<feBlend mode="normal" in="SourceGraphic" in2="effect1_backgroundBlur_162_16467" result="shape"/>
</filter>
<filter id="filter1_b_162_16467" x="-34.5" y="158.825" width="326.435" height="325.675" filterUnits="userSpaceOnUse" color-interpolation-filters="sRGB">
<feFlood flood-opacity="0" result="BackgroundImageFix"/>
<feGaussianBlur in="BackgroundImageFix" stdDeviation="17.25"/>
<feComposite in2="SourceAlpha" operator="in" result="effect1_backgroundBlur_162_16467"/>
<feBlend mode="normal" in="SourceGraphic" in2="effect1_backgroundBlur_162_16467" result="shape"/>
</filter>
<filter id="filter2_b_162_16467" x="38.0151" y="-34.5" width="326.435" height="325.675" filterUnits="userSpaceOnUse" color-interpolation-filters="sRGB">
<feFlood flood-opacity="0" result="BackgroundImageFix"/>
<feGaussianBlur in="BackgroundImageFix" stdDeviation="17.25"/>
<feComposite in2="SourceAlpha" operator="in" result="effect1_backgroundBlur_162_16467"/>
<feBlend mode="normal" in="SourceGraphic" in2="effect1_backgroundBlur_162_16467" result="shape"/>
</filter>
<linearGradient id="paint0_linear_162_16467" x1="331.548" y1="146.325" x2="331.548" y2="403" gradientUnits="userSpaceOnUse">
<stop stop-color="#04773B" stop-opacity="0.4"/>
<stop offset="1" stop-color="#D9D9D9" stop-opacity="0.1"/>
</linearGradient>
<linearGradient id="paint1_linear_162_16467" x1="128.717" y1="193.325" x2="128.717" y2="450" gradientUnits="userSpaceOnUse">
<stop stop-color="#04773B" stop-opacity="0.4"/>
<stop offset="1" stop-color="#D9D9D9" stop-opacity="0.1"/>
</linearGradient>
<linearGradient id="paint2_linear_162_16467" x1="201.232" y1="0" x2="201.232" y2="256.675" gradientUnits="userSpaceOnUse">
<stop stop-color="#04773B" stop-opacity="0.4"/>
<stop offset="1" stop-color="#D9D9D9" stop-opacity="0.1"/>
</linearGradient>
</defs>
</svg>
