<svg width="40" height="40" viewBox="0 0 40 40" fill="none" xmlns="http://www.w3.org/2000/svg">
<path d="M0 12C0 5.37258 5.37258 0 12 0H28C34.6274 0 40 5.37258 40 12V28C40 34.6274 34.6274 40 28 40H12C5.37258 40 0 34.6274 0 28V12Z" fill="#D1AC00"/>
<path d="M0 12C0 5.37258 5.37258 0 12 0H28C34.6274 0 40 5.37258 40 12V28C40 34.6274 34.6274 40 28 40H12C5.37258 40 0 34.6274 0 28V12Z" fill="url(#paint0_linear_232_111187)" fill-opacity="0.5"/>
<path opacity="0.4" d="M27.5 17.75V22.25C27.5 24.875 26 26 23.75 26H17.3375C17.6 25.5575 17.75 25.0475 17.75 24.5C17.75 22.8425 16.4075 21.5 14.75 21.5C13.85 21.5 13.0475 21.8975 12.5 22.52V17.75C12.5 15.125 14 14 16.25 14H23.75C26 14 27.5 15.125 27.5 17.75Z" fill="white"/>
<path d="M20 21.875C21.0355 21.875 21.875 21.0355 21.875 20C21.875 18.9645 21.0355 18.125 20 18.125C18.9645 18.125 18.125 18.9645 18.125 20C18.125 21.0355 18.9645 21.875 20 21.875Z" fill="white"/>
<path d="M24.875 22.0625C24.5675 22.0625 24.3125 21.8075 24.3125 21.5V18.5C24.3125 18.1925 24.5675 17.9375 24.875 17.9375C25.1825 17.9375 25.4375 18.1925 25.4375 18.5V21.5C25.4375 21.8075 25.1825 22.0625 24.875 22.0625Z" fill="white"/>
<path d="M14.75 21.5C13.0925 21.5 11.75 22.8425 11.75 24.5C11.75 25.0625 11.9075 25.595 12.185 26.045C12.7025 26.915 13.655 27.5 14.75 27.5C15.845 27.5 16.7975 26.915 17.315 26.045C17.5925 25.595 17.75 25.0625 17.75 24.5C17.75 22.8425 16.4075 21.5 14.75 21.5ZM16.2275 24.2525L14.63 25.73C14.525 25.8275 14.3825 25.88 14.2475 25.88C14.105 25.88 13.9625 25.8275 13.85 25.715L13.1075 24.9725C12.89 24.755 12.89 24.395 13.1075 24.1775C13.325 23.96 13.685 23.96 13.9025 24.1775L14.2625 24.5375L15.4625 23.4275C15.6875 23.2175 16.0475 23.2325 16.2575 23.4575C16.4675 23.6825 16.4525 24.0425 16.2275 24.2525Z" fill="white"/>
<defs>
<linearGradient id="paint0_linear_232_111187" x1="46.4" y1="-5.2" x2="1.41859e-06" y2="40" gradientUnits="userSpaceOnUse">
<stop offset="0.0917672"/>
<stop offset="1" stop-opacity="0"/>
</linearGradient>
</defs>
</svg>
