<svg width="50" height="50" viewBox="0 0 50 50" fill="none" xmlns="http://www.w3.org/2000/svg">
<rect x="0.5" y="0.5" width="49" height="49" rx="24.5" fill="#005F6A"/>
<rect x="0.5" y="0.5" width="49" height="49" rx="24.5" stroke="white"/>
<path d="M27.6042 14.5835C26.1719 14.5835 25 15.7554 25 17.1877C25 18.62 26.1719 19.7918 27.6042 19.7918C29.0365 19.7918 30.2083 18.62 30.2083 17.1877C30.2083 15.7554 29.0365 14.5835 27.6042 14.5835ZM23.6979 21.0939C21.5365 21.0939 19.7917 22.8387 19.7917 25.0002H22.3958C22.3958 24.271 22.9687 23.6981 23.6979 23.6981C24.4271 23.6981 25 24.271 25 25.0002C25 25.7293 22.3958 29.271 22.3958 31.5106C22.3958 33.7502 24.1406 35.4168 26.3021 35.4168C28.4635 35.4168 30.2083 33.672 30.2083 31.5106H27.6042C27.6042 32.2397 27.0312 32.8127 26.3021 32.8127C25.5729 32.8127 25 32.2397 25 31.5106C25 30.5731 27.6042 26.7189 27.6042 25.0002C27.6042 22.8908 25.8594 21.0939 23.6979 21.0939Z" fill="white"/>
</svg>
