<svg width="84" height="26" viewBox="0 0 84 26" fill="none" xmlns="http://www.w3.org/2000/svg">
<g clip-path="url(#clip0_362_380)">
<path d="M5.69495 3.35989V10.0939L11.3236 17.2129H14.1191L20.0174 10.0939V3.35989L12.7616 12.2895L5.69495 3.35989Z" fill="#112445"/>
<path d="M4.7962 0V0.00950466L4.78674 0H4.7962Z" fill="black"/>
<path d="M4.78676 2.49973H0V6.09724H4.78676V2.49973Z" fill="#112445"/>
<path d="M25.6271 2.60902H20.8403V6.09723H25.6271V2.60902Z" fill="#112445"/>
<path d="M4.78676 7.2283H0V25.8099H4.78676V7.2283Z" fill="#FD5001"/>
<path d="M20.8971 7.00018L20.8593 25.8147H25.6034V7.00018H20.8971Z" fill="#FD5001"/>
<path d="M50.3035 16.9801C53.1415 15.9678 55.1944 13.202 55.1944 9.97038C55.1944 5.85962 51.855 2.50447 47.7162 2.50447H39.0651V26H43.3694V6.78157H47.7162C49.4711 6.78157 50.8901 8.24529 50.8901 9.97038C50.8901 11.6955 49.6366 12.9929 48.0521 13.1592H45.5452V17.4838H45.5877L50.559 25.9572H55.5302L50.3083 16.9848L50.3035 16.9801Z" fill="#FD5001"/>
<path d="M34.9878 7.5657H30.2389V20.2117H34.9878V7.5657Z" fill="#112445"/>
<path d="M27.7509 2.60902V6.09723H37.4805V2.60902H27.7509Z" fill="#FD5001"/>
<path d="M37.4805 22.3217H27.7509V25.8099H37.4805V22.3217Z" fill="#FD5001"/>
<path d="M43.3694 12.4131H39.0698V26.0048H43.3694V12.4131Z" fill="#112445"/>
<path d="M55.5302 25.9572H50.559L45.5877 17.4838H45.5688H45.5452V13.1592H48.0521L55.5302 25.9572Z" fill="#112445"/>
<path d="M57.1194 17.327C57.1194 12.3038 60.0614 8.55894 64.6353 8.55894C67.3835 8.55894 69.0815 9.64248 70.0938 11.3486V8.88686H74.0811V21.856H75.3535V25.5343H72.6101C70.5195 25.5343 70.0938 24.945 70.0938 23.1391V22.8445C68.8498 24.8499 67.3787 25.9335 64.6353 25.8669C60.0614 25.7339 57.1194 22.1221 57.1194 17.327ZM65.5861 22.1886C68.3295 22.1886 70.0985 20.0216 70.0985 17.327C70.0985 14.4043 68.3342 12.2705 65.5861 12.2372C62.8711 12.204 61.1068 14.4043 61.1068 17.327C61.1068 20.0216 62.8711 22.1886 65.5861 22.1886Z" fill="#112445"/>
<path d="M83.9952 21.8512H75.4103V25.5105H83.9952V21.8512Z" fill="#FD5001"/>
<path d="M76.4083 22.2932H76.7536L77.8415 23.8092V22.2932H78.2767V24.6598H77.9219L76.8435 23.1534V24.6598H76.4083V22.2932Z" fill="white"/>
<path d="M78.6597 22.2932H79.2321C79.8801 22.2932 80.0504 22.6258 80.0504 23.0298C80.0504 23.3387 79.8895 23.524 79.6956 23.5573C79.9794 23.6666 80.0504 23.871 80.0504 24.1513V24.6598H79.6152V24.1513C79.6152 23.8947 79.5679 23.7426 79.1611 23.7426H78.8442V24.6598H78.4091V22.5546C78.4091 22.3692 78.4895 22.2932 78.6645 22.2932H78.6597ZM79.1611 23.3387C79.497 23.3387 79.6152 23.3007 79.6152 23.025C79.6152 22.7684 79.5206 22.6924 79.199 22.6924H78.8442V23.3387H79.1611Z" fill="white"/>
<path d="M80.5045 22.2932L80.9964 23.7759L81.3512 22.2932H81.687L82.0418 23.7759L82.529 22.2932H83.002L82.1742 24.6598H81.8147L81.5215 23.4528L81.2282 24.6598H80.864L80.0363 22.2932H80.5093H80.5045Z" fill="white"/>
</g>
<defs>
<clipPath id="clip0_362_380">
<rect width="84" height="26" fill="white"/>
</clipPath>
</defs>
</svg>
