<?xml version="1.0" encoding="utf-8"?>
<!-- Generator: Adobe Illustrator 26.0.1, SVG Export Plug-In . SVG Version: 6.00 Build 0)  -->
<svg version="1.1" xmlns="http://www.w3.org/2000/svg" xmlns:xlink="http://www.w3.org/1999/xlink" x="0px" y="0px"
	 viewBox="0 0 507.3 595.3" style="enable-background:new 0 0 507.3 595.3;" xml:space="preserve">
<style type="text/css">
	.st0{clip-path:url(#SVGID_00000108993862728452565140000001118219029448566971_);}
	.st1{fill:#E30303;}
	.st2{fill:#FF8C00;}
	.st3{fill:#FFED00;}
	.st4{fill:#008026;}
	.st5{fill:#004DFF;}
	.st6{fill:#750887;}
	.st7{fill:#EDEBF6;}
	.st8{fill:#FFB0C7;}
	.st9{fill:#73D6ED;}
	.st10{fill:#613814;}
</style>
<g id="OUTLINE_Q">
	<g>
		<defs>
			<path id="SVGID_1_" d="M482.3,568.4C482.3,568.4,482.3,568.4,482.3,568.4L482.3,568.4z M507.1,553.6c0-0.2,0-0.4,0-0.6l-0.1-0.6
				c-0.2-2.1-0.6-4.2-1.1-6.2c-0.2-0.6-0.3-1.2-0.5-1.8c-1.1-3.5-2.8-6.9-4.9-9.9l-43-60.9c27-34.4,42-78.5,44.7-131.5
				c0,0,0-0.1,0-0.1c1-20.1,1.4-41,1.4-62.1c0-21.1-0.5-42.4-1.4-63.3c-1.6-46.2-13.4-86.1-35.2-118.4
				c-21.8-32.4-51.9-57.3-89.4-73.9C341.4,8.2,298.9,0,251.5,0c-47.9,0-90.6,8.2-126.9,24.3C86.9,41,57.1,65.9,35.7,98.5
				c-21.1,32.2-32.9,71.9-35,117.9c0,0.3,0,0.5,0,0.8C0.2,237.8,0,258.9,0,280c0,21.1,0.2,41.8,0.7,61.4c0,0.2,0,0.5,0,0.7
				c2.1,46.5,13.9,86.4,35.1,118.4c21.4,32.4,51.4,56.9,89.2,72.9c36.2,15.3,78.8,23.1,126.5,23.1c14.5,0,28.4-1.1,41.3-3.1l12.4,16
				c0.3,0.4,0.6,0.7,0.9,1.1c2.9,3.5,6.8,7.5,11.7,12.1c9,8.4,20.8,12.7,35.2,12.7h115.6c7.2,0,17.8-2,27.6-11.8
				c0,0,0.1-0.1,0.1-0.1c7-7.1,11-16.3,11.1-26.1c0-0.2,0-0.3,0-0.5v-0.2c0,0,0,0,0,0C507.3,555.7,507.2,554.6,507.1,553.6z
				 M471.2,556.9c0,0.3,0,0.5-0.6,1.1c-1.2,1.2-1.9,1.2-2.1,1.2H353c-4.9,0-8.4-1-10.4-2.9c-3.8-3.6-6.8-6.7-8.8-9.1l-26.3-33.9
				l-7.2,1.7c-14.6,3.5-31,5.3-48.7,5.3c-42.9,0-80.7-6.8-112.5-20.2c-31.1-13.1-55.7-33.2-73.1-59.5
				c-17.5-26.5-27.3-60.2-29.1-100.1c-0.5-19.3-0.7-39.7-0.7-60.6c0-20.8,0.2-41.7,0.7-62c1.8-39.5,11.6-73,29.1-99.8
				c17.5-26.6,42.1-47.2,73.3-61c31.7-14.1,69.5-21.2,112.3-21.2c42.3,0,79.9,7.1,111.6,21.2c31.2,13.8,56.1,34.4,74.1,61.1
				c18,26.7,27.7,60.3,29.1,99.7l0,0.1c0.9,20.5,1.4,41.3,1.4,61.8c0,20.6-0.5,40.9-1.4,60.4c-2.7,52.3-18.9,93.9-48.2,123.6
				l-6.7,6.8l59.7,84.5c0,0.1,0.1,0.3,0.1,0.3l0.1,0.8c0,0.2,0,0.3,0,0.3V556.9z"/>
		</defs>
		<clipPath id="SVGID_00000021117352648462640640000000140448289734106526_">
			<use xlink:href="#SVGID_1_"  style="overflow:visible;"/>
		</clipPath>
		<g style="clip-path:url(#SVGID_00000021117352648462640640000000140448289734106526_);">
			<path class="st1" d="M59.1-39.8l117.3,203.5l48.4,29.3l28.9-50L253.8-92C184.4-91,119-75.4,59.1-39.8"/>
			<path class="st2" d="M253.8-91.9L253.7,143l27.2,49.6l50.1-28.8L448.6-39.7C388-73.6,323.5-92.8,253.8-91.9"/>
			<path class="st3" d="M448.5-39.6L331,163.7l-1.2,56.5l57.8,0.1L591.1,103C555.5,43.3,509.3-5.5,448.5-39.6"/>
			<path class="st4" d="M591,103L387.6,220.3l-29.3,48.4l50,29l234.9,0.1C642.2,228.4,626.6,163,591,103"/>
			<path class="st5" d="M643.1,297.8l-234.9-0.1l-49.6,27.2l28.8,50.1l203.4,117.5C624.8,431.9,644,367.5,643.1,297.8"/>
			<path class="st6" d="M590.8,492.5L387.5,374.9l-56.5-1.2l-0.1,57.8L448.2,635C507.9,599.5,556.7,553.3,590.8,492.5"/>
			<path class="st3" d="M448.2,634.9L330.9,431.5l-48.4-29.3l-29,50l-0.1,234.9C322.8,686.1,388.2,670.6,448.2,634.9"/>
			<path class="st7" d="M253.4,687l0.1-234.9l-27.2-49.5l-50.1,28.8L58.7,634.8C119.3,668.7,183.7,687.9,253.4,687"/>
			<path class="st8" d="M58.7,634.7l117.5-203.3l1.2-56.5l-57.8-0.1L-83.8,492.2C-48.3,551.8-2.1,600.6,58.7,634.7"/>
			<path class="st9" d="M-83.7,492.1l203.5-117.3l29.3-48.4l-50-28.9l-234.9-0.1C-134.9,366.8-119.3,432.2-83.7,492.1"/>
			<path class="st10" d="M-135.8,297.4l234.9,0.1l49.5-27.2l-28.8-50.1L-83.6,102.6C-117.5,163.2-136.7,227.7-135.8,297.4"/>
			<path d="M-83.5,102.7l203.3,117.5l56.5,1.2l0.1-57.8L59-39.9C-0.6-4.3-49.4,41.9-83.5,102.7"/>
		</g>
	</g>
</g>
<g id="Meldung">
	<g>
		<path d="M291.3,218.2l10.8,10.8c0.2,0.2,0.6,0.3,0.9,0.3c0.3-0.1,0.6-0.3,0.7-0.6c3.9-8.7,5.8-17.9,5.8-27.5
			c0-32-22.7-60-54.1-66.6l-0.2,1l0.2-1c-9.1-1.9-18.8-1.9-27.9,0c-31.3,6.6-54.1,34.6-54.1,66.6c0,9.6,2,18.9,5.9,27.6
			c0.1,0.3,0.4,0.5,0.7,0.6c0.1,0,0.1,0,0.2,0c0.3,0,0.5-0.1,0.7-0.3l10.8-10.8c0.3-0.3,0.4-0.7,0.2-1c-1.7-5.2-2.6-10.7-2.6-16.1
			c0-21.8,13.8-41.5,34.3-49c11.5-4.2,24.2-4.2,35.7,0c20.5,7.5,34.3,27.2,34.3,49c0,5.4-0.9,10.8-2.6,16
			C291,217.5,291.1,217.9,291.3,218.2z"/>
		<path d="M145.3,264.7c0,0,0.1,0,0.1,0c0.3,0,0.5-0.1,0.7-0.3l8-7.7l3-3c0.3-0.3,0.4-0.8,0.2-1.2c-8.8-15.4-13.2-33-12.7-50.8
			c1.5-50.4,42-91.6,92.3-94c26.7-1.3,52,8.1,71.4,26.5c19.5,18.5,30.2,43.5,30.2,70.3c0,16.7-4.4,33.2-12.7,47.8
			c-0.2,0.4-0.2,0.9,0.2,1.2l10.9,10.9c0.2,0.2,0.5,0.3,0.8,0.3c0.3,0,0.6-0.2,0.7-0.5c11.1-17.9,17-38.6,17-59.7
			c0-62.8-51.1-113.9-113.9-113.9c-4.3,0-8.7,0.2-13,0.7C176.1,97.2,134,139.5,128.3,192c-2.8,25.6,2.9,50.6,16.3,72.3
			C144.8,264.5,145,264.7,145.3,264.7z"/>
		<path d="M211.1,202.2c0,1,0.1,2,0.2,3.2c0,0.5,0.4,0.8,0.8,0.9c0.1,0,0.1,0,0.2,0c0.4,0,0.8-0.2,0.9-0.6
			c3.9-8.8,11.8-15.3,21.7-17.8c8.8-2.2,18.3-0.1,25.9,5.8c3.9,3,7,6.7,9.2,11c0.2,0.4,0.7,0.6,1.1,0.5c0.4-0.1,0.8-0.5,0.8-0.9
			c0.1-0.7,0.1-1.4,0.1-2.1c0-16.8-13.7-30.4-30.5-30.4C224.7,171.8,211.1,185.4,211.1,202.2z"/>
		<path d="M378.5,315.3c-0.1-8.9-4.8-17.1-12.5-22c-7.8-4.8-17.1-5.3-25.5-1.2c-1.8,0.9-3.3,0.6-4.6-1c-9.5-10.8-21.7-12.9-34.3-6
			c-1.7,1-3.3,0.8-4.8-0.5c-7.4-6.6-15.5-8.9-24.7-6.9c-1.1,0.3-2,0.1-2.7-0.4c-1-0.8-1-2-1-2.6c0-2,0-4-0.1-6l0-0.2
			c0-2.9-0.1-5.9-0.1-8.8c0-3.8,0-7.7,0.1-11.5l0-0.2c0.1-6.4,0.1-13,0.1-19.5c-0.1-8.1-4-15.6-10.7-20.8c-6.5-5-14.6-6.8-22.2-4.9
			c-12.6,3.2-20.8,13.5-20.9,26.3c-0.1,20.6-0.1,41.6-0.1,61.8v0.2c0,8.2,0,16.3,0,24.5v10.5c0,0,0,0.1,0,0.1
			c-1.4,0.3-3.5-0.9-6.1-3.4c-0.7-0.7-1.4-1.4-2-2c-1.4-1.4-2.9-2.9-4.3-4.3c-3.6-3.7-7.2-7.4-11.2-10.6c-5.3-4.2-11.6-6.4-18.3-6.4
			c-3,0-6,0.4-8.9,1.3c-10,3-18,10.7-21.3,20.6c-3.4,10.3-1.4,20.5,6.2,30.2c1.8,2.3,3.5,4.6,5.3,6.9l0.1,0.1
			c2.5,3.3,5.1,6.7,7.6,9.9c2.1,2.6,4,5.4,5.9,8.2c1.2,1.8,2.5,3.6,3.8,5.4c10,13.6,20.1,27.6,30,41.5c6.4,9,10.3,16.5,12.6,24.3
			c1.1,3.7,1.8,7.4,2.6,11l0.4,1.8c0.1,0.5,0.5,0.8,1,0.8h14.4c0.5,0,1-0.4,1-0.9c0-0.6,0-1.3-0.1-1.9c-2.5-15.1-6.7-26.6-13.1-36.3
			c-15.9-23.8-33.3-47-50.1-69.5l-7-9.3c-1.7-2.2-3.4-4.5-4.5-7.3c-1.8-4.5-1.3-9.5,1.4-13.5c2.7-4,7-6.5,11.8-6.6
			c4.7-0.1,8.9,1.7,12.6,5.6l9.8,10.1c5.4,5.6,10.8,11.2,16.3,16.7l1.2,1.3c1.7,1.8,3.5,3.7,5.4,5.4c2.2,2,4.6,2.8,7.3,2.2
			c4.9-1.1,6.9-4.1,6.9-10.4c0-24.2,0-48.4,0-72.6c0-0.3,0.7-25.7,0.7-43c0-5,3-10.3,9.7-10.3c9.4,0,10.1,8.2,10.1,10.7
			c0,15.3,0.2,40.8,0.2,41c0,26.8,0,53.6,0,80.4l0,1.6c0,1.9,0,3.9,0.1,5.9c0.4,4.8,3.8,8.1,8.5,8c4.6-0.1,8-3.7,8-8.5
			c0-5.7,0-11.5-0.1-17.2c0-5.1-0.1-10.2-0.1-15.2c0-7.3,0-15.9,0.2-24.8c0.1-4.1,2.6-7.2,7-8.7c3.9-1.3,7.6-0.3,10.5,2.8
			c2.5,2.7,2.8,6,2.8,9.1c0,9,0,18,0,26.9c0,2.9,0,5.8,0,8.8c0,4.4,0,9.3,0,14.1c0,3.4,1.5,5.8,4.5,7.3c3.2,1.6,6.1,1.4,8.9-0.7
			c2.2-1.6,3.1-4,3.1-7.8c0-14.7,0-30.4,0-46.3c0-3,1-5.8,2.9-7.8c1.9-2,4.4-3.2,7.2-3.2c5.9,0,9.9,4.4,9.9,10.9c0,4.1,0,8.2,0,12.2
			c0,12.1,0,24.5-0.1,36.9c0,4.5,0.2,7.8,2.9,10.8c2.2,2.4,3.7,3.2,5.8,3.1c4-0.2,7.2-2.9,8-7c0.4-2.1,0.4-4.3,0.4-6.5l0-0.9
			c0-13.5,0-27-0.1-40.5c0-2.5,0.1-4.9,2-7.1c2.8-3.3,7.4-4.6,11.2-3.2c2.5,0.9,6.7,3.6,6.6,10.7L362,460.6c0,0.6,0.4,1,1,1l14.6,0
			c0,0,0,0,0,0c0.3,0,0.5-0.1,0.7-0.3c0.2-0.2,0.3-0.4,0.3-0.7C378.6,459.4,378.7,340.3,378.5,315.3z"/>
	</g>
</g>
</svg>
