<svg width="56" height="56" viewBox="0 0 56 56" fill="none" xmlns="http://www.w3.org/2000/svg">
<path d="M0 28C0 12.536 12.536 0 28 0C43.464 0 56 12.536 56 28C56 43.464 43.464 56 28 56C12.536 56 0 43.464 0 28Z" fill="#0C1618"/>
<path d="M33 18.4299H23C20 18.4299 18 20.4299 18 23.4299V29.4299C18 32.4299 20 34.4299 23 34.4299V36.5599C23 37.3599 23.89 37.8399 24.55 37.3899L29 34.4299H33C36 34.4299 38 32.4299 38 29.4299V23.4299C38 20.4299 36 18.4299 33 18.4299ZM28 30.5999C27.58 30.5999 27.25 30.2599 27.25 29.8499C27.25 29.4399 27.58 29.0999 28 29.0999C28.42 29.0999 28.75 29.4399 28.75 29.8499C28.75 30.2599 28.42 30.5999 28 30.5999ZM29.26 26.4499C28.87 26.7099 28.75 26.8799 28.75 27.1599V27.3699C28.75 27.7799 28.41 28.1199 28 28.1199C27.59 28.1199 27.25 27.7799 27.25 27.3699V27.1599C27.25 25.9999 28.1 25.4299 28.42 25.2099C28.79 24.9599 28.91 24.7899 28.91 24.5299C28.91 24.0299 28.5 23.6199 28 23.6199C27.5 23.6199 27.09 24.0299 27.09 24.5299C27.09 24.9399 26.75 25.2799 26.34 25.2799C25.93 25.2799 25.59 24.9399 25.59 24.5299C25.59 23.1999 26.67 22.1199 28 22.1199C29.33 22.1199 30.41 23.1999 30.41 24.5299C30.41 25.6699 29.57 26.2399 29.26 26.4499Z" fill="white"/>
</svg>
