<svg width="40" height="40" viewBox="0 0 40 40" fill="none" xmlns="http://www.w3.org/2000/svg">
<path opacity="0.4" d="M28.3335 30.7167H21.6668L14.2501 35.65C13.1501 36.3834 11.6668 35.6 11.6668 34.2667V30.7167C6.66683 30.7167 3.3335 27.3833 3.3335 22.3833V12.3833C3.3335 7.38332 6.66683 4.04999 11.6668 4.04999H28.3335C33.3335 4.04999 36.6668 7.38332 36.6668 12.3833V22.3833C36.6668 27.3833 33.3335 30.7167 28.3335 30.7167Z" fill="#0C1618"/>
<path d="M20 20.1833C19.3167 20.1833 18.75 19.6166 18.75 18.9333V18.5834C18.75 16.65 20.1667 15.7 20.7 15.3333C21.3167 14.9167 21.5166 14.6333 21.5166 14.2C21.5166 13.3667 20.8334 12.6833 20 12.6833C19.1667 12.6833 18.4834 13.3667 18.4834 14.2C18.4834 14.8833 17.9167 15.45 17.2334 15.45C16.5501 15.45 15.9834 14.8833 15.9834 14.2C15.9834 11.9833 17.7834 10.1833 20 10.1833C22.2167 10.1833 24.0166 11.9833 24.0166 14.2C24.0166 16.1 22.6167 17.05 22.1 17.4C21.45 17.8333 21.25 18.1167 21.25 18.5834V18.9333C21.25 19.6333 20.6834 20.1833 20 20.1833Z" fill="#0C1618"/>
<path d="M20 24.3333C19.3 24.3333 18.75 23.7666 18.75 23.0833C18.75 22.4 19.3167 21.8333 20 21.8333C20.6833 21.8333 21.25 22.4 21.25 23.0833C21.25 23.7666 20.7 24.3333 20 24.3333Z" fill="#0C1618"/>
</svg>
