<svg width="18" height="19" viewBox="0 0 18 19" fill="none" xmlns="http://www.w3.org/2000/svg">
<path opacity="0.4" d="M16.5 7.21359V11.7136C16.5 14.3386 15 15.4636 12.75 15.4636H6.33751C6.60001 15.0211 6.75 14.5111 6.75 13.9636C6.75 12.3061 5.4075 10.9636 3.75 10.9636C2.85 10.9636 2.0475 11.3611 1.5 11.9836V7.21359C1.5 4.58859 3 3.46359 5.25 3.46359H12.75C15 3.46359 16.5 4.58859 16.5 7.21359Z" fill="#04773B"/>
<path d="M9 11.3386C10.0355 11.3386 10.875 10.4991 10.875 9.46359C10.875 8.42806 10.0355 7.58859 9 7.58859C7.96447 7.58859 7.125 8.42806 7.125 9.46359C7.125 10.4991 7.96447 11.3386 9 11.3386Z" fill="#04773B"/>
<path d="M13.875 11.5261C13.5675 11.5261 13.3125 11.2711 13.3125 10.9636V7.96359C13.3125 7.65609 13.5675 7.40109 13.875 7.40109C14.1825 7.40109 14.4375 7.65609 14.4375 7.96359V10.9636C14.4375 11.2711 14.1825 11.5261 13.875 11.5261Z" fill="#04773B"/>
<path d="M3.75 10.9636C2.0925 10.9636 0.75 12.3061 0.75 13.9636C0.75 14.5261 0.90749 15.0586 1.18499 15.5086C1.70249 16.3786 2.655 16.9636 3.75 16.9636C4.845 16.9636 5.79751 16.3786 6.31501 15.5086C6.59251 15.0586 6.75 14.5261 6.75 13.9636C6.75 12.3061 5.4075 10.9636 3.75 10.9636ZM5.2275 13.7161L3.63 15.1936C3.525 15.2911 3.38249 15.3436 3.24749 15.3436C3.10499 15.3436 2.96249 15.2911 2.84999 15.1786L2.1075 14.4361C1.89 14.2186 1.89 13.8586 2.1075 13.6411C2.325 13.4236 2.685 13.4236 2.9025 13.6411L3.2625 14.0011L4.46251 12.8911C4.68751 12.6811 5.04751 12.6961 5.25751 12.9211C5.46751 13.1461 5.4525 13.5061 5.2275 13.7161Z" fill="#04773B"/>
</svg>
