<svg width="17" height="33" viewBox="0 0 17 33" fill="none" xmlns="http://www.w3.org/2000/svg">
<path d="M12.4062 0.875C10.2578 0.875 8.5 2.63281 8.5 4.78125C8.5 6.92969 10.2578 8.6875 12.4062 8.6875C14.5547 8.6875 16.3125 6.92969 16.3125 4.78125C16.3125 2.63281 14.5547 0.875 12.4062 0.875ZM6.54688 10.6406C3.30469 10.6406 0.6875 13.2578 0.6875 16.5H4.59375C4.59375 15.4062 5.45312 14.5469 6.54688 14.5469C7.64062 14.5469 8.5 15.4062 8.5 16.5C8.5 17.5938 4.59375 22.9062 4.59375 26.2656C4.59375 29.625 7.21094 32.125 10.4531 32.125C13.6953 32.125 16.3125 29.5078 16.3125 26.2656H12.4062C12.4062 27.3594 11.5469 28.2188 10.4531 28.2188C9.35938 28.2188 8.5 27.3594 8.5 26.2656C8.5 24.8594 12.4062 19.0781 12.4062 16.5C12.4062 13.3359 9.78906 10.6406 6.54688 10.6406Z" fill="white"/>
</svg>
