<svg width="28" height="28" viewBox="0 0 28 28" fill="none" xmlns="http://www.w3.org/2000/svg">
<path d="M0 14C0 6.26801 6.26801 0 14 0C21.732 0 28 6.26801 28 14C28 21.732 21.732 28 14 28C6.26801 28 0 21.732 0 14ZM20.7071 10.7071C21.0976 10.3166 21.0976 9.68342 20.7071 9.29289C20.3166 8.90237 19.6834 8.90237 19.2929 9.29289L12.5 16.0858L9.20711 12.7929C8.81658 12.4024 8.18342 12.4024 7.79289 12.7929C7.40237 13.1834 7.40237 13.8166 7.79289 14.2071L11.7929 18.2071C12.1834 18.5976 12.8166 18.5976 13.2071 18.2071L20.7071 10.7071Z" fill="url(#paint0_linear_1184_81)"/>
<defs>
<linearGradient id="paint0_linear_1184_81" x1="14" y1="0" x2="14" y2="28" gradientUnits="userSpaceOnUse">
<stop stop-color="#f40746"/>
<stop offset="1" stop-color="#e8948f"/>
</linearGradient>
</defs>
</svg>