<svg width="20" height="19" viewBox="0 0 20 19" fill="none" xmlns="http://www.w3.org/2000/svg">
<path d="M8.02967 1.65893C8.88589 0.111104 11.1111 0.111084 11.9673 1.65888L19.7131 15.6603C20.5427 17.16 19.4581 18.9995 17.7443 18.9995H2.25323C0.53945 18.9995 -0.545175 17.16 0.284384 15.6604L8.02967 1.65893ZM10.9973 15.0009C10.9973 14.4494 10.5502 14.0022 9.99866 14.0022C9.44712 14.0022 9 14.4494 9 15.0009C9 15.5524 9.44712 15.9996 9.99866 15.9996C10.5502 15.9996 10.9973 15.5524 10.9973 15.0009ZM10.7381 7.14764C10.6882 6.7816 10.3742 6.4997 9.99446 6.5C9.58025 6.50033 9.24473 6.83639 9.24506 7.2506L9.24866 11.7522L9.25559 11.854C9.30555 12.22 9.61957 12.5019 9.99926 12.5016C10.4135 12.5013 10.749 12.1652 10.7487 11.751L10.7451 7.2494L10.7381 7.14764Z" fill="#E00034"/>
</svg>
