<svg width="24" height="24" viewBox="0 0 24 24" fill="none" xmlns="http://www.w3.org/2000/svg">
<path d="M11.7226 4.08397C11.8906 3.97201 12.1094 3.97201 12.2774 4.08397C14.2155 5.3761 16.3117 6.1823 18.5707 6.50503C18.817 6.54021 19 6.75117 19 7V11.5C19 15.3913 16.693 18.2307 12.1795 19.9667C12.064 20.0111 11.936 20.0111 11.8205 19.9667C7.30699 18.2307 5 15.3913 5 11.5V7C5 6.75117 5.18296 6.54021 5.42929 6.50503C7.68833 6.1823 9.78446 5.3761 11.7226 4.08397ZM12.75 15.75C12.75 15.3358 12.4142 15 12 15C11.5858 15 11.25 15.3358 11.25 15.75C11.25 16.1642 11.5858 16.5 12 16.5C12.4142 16.5 12.75 16.1642 12.75 15.75ZM10.75 10.25C10.75 9.55964 11.3096 9 12 9C12.6904 9 13.25 9.55964 13.25 10.25C13.25 10.7149 12.9805 11.012 12.5218 11.4698L12.4867 11.5048C12.0719 11.918 11.5 12.4878 11.5 13.4V13.5C11.5 13.7761 11.7239 14 12 14C12.2761 14 12.5 13.7761 12.5 13.5V13.4C12.5 12.9331 12.7701 12.6349 13.2282 12.1776L13.2647 12.1413C13.6789 11.7287 14.25 11.1598 14.25 10.25C14.25 9.00736 13.2426 8 12 8C10.7574 8 9.75 9.00736 9.75 10.25C9.75 10.5261 9.97386 10.75 10.25 10.75C10.5261 10.75 10.75 10.5261 10.75 10.25Z" fill="#F36D38"/>
</svg>
