<svg width="60" height="60" viewBox="0 0 60 60" fill="none" xmlns="http://www.w3.org/2000/svg">
<path d="M23.5808 0.436844C23.9146 0.550387 24.2406 0.685449 24.5569 0.841179L28.3621 2.71463C29.3948 3.22309 30.6052 3.22309 31.6379 2.71463L35.4431 0.841179C39.4851 -1.1489 44.3751 0.514554 46.3652 4.55662L46.5832 5.03814L46.7696 5.53277L48.1355 9.54817C48.5062 10.638 49.362 11.4938 50.4518 11.8645L54.4672 13.2304C58.7326 14.6814 61.0141 19.3154 59.5632 23.5808C59.4496 23.9146 59.3145 24.2406 59.1588 24.5569L57.2854 28.3621C56.7769 29.3948 56.7769 30.6052 57.2854 31.6379L59.1588 35.4431C61.1489 39.4851 59.4854 44.3751 55.4434 46.3652C55.1271 46.521 54.801 46.656 54.4672 46.7696L50.4518 48.1355C49.362 48.5062 48.5062 49.362 48.1355 50.4518L46.7696 54.4672C45.3186 58.7326 40.6846 61.0141 36.4192 59.5632C36.0854 59.4496 35.7594 59.3145 35.4431 59.1588L31.6379 57.2854C30.6052 56.7769 29.3948 56.7769 28.3621 57.2854L24.5569 59.1588C20.5149 61.1489 15.6249 59.4854 13.6348 55.4434C13.479 55.1271 13.344 54.801 13.2304 54.4672L11.8645 50.4518C11.4938 49.362 10.638 48.5062 9.54817 48.1355L5.53277 46.7696C1.2674 45.3186 -1.01412 40.6846 0.436844 36.4192C0.550387 36.0854 0.685449 35.7594 0.841179 35.4431L2.71463 31.6379C3.22309 30.6052 3.22309 29.3948 2.71463 28.3621L0.841179 24.5569C-1.1489 20.5149 0.514554 15.6249 4.55662 13.6348C4.87292 13.479 5.19899 13.344 5.53277 13.2304L9.54817 11.8645C10.638 11.4938 11.4938 10.638 11.8645 9.54817L13.2304 5.53277C14.6814 1.2674 19.3154 -1.01412 23.5808 0.436844ZM40.2926 21.0107L24.2166 37.0867L18.3601 30.0589C17.5735 29.115 16.1706 28.9874 15.2266 29.7741C14.2827 30.5607 14.1551 31.9636 14.9418 32.9075L22.3579 41.8069C23.1954 42.812 24.7152 42.8809 25.6403 41.9558L43.439 24.1571C44.3079 23.2882 44.3079 21.8795 43.439 21.0107C42.5702 20.1418 41.1615 20.1418 40.2926 21.0107Z" fill="#463880"/>
</svg>
