<svg width="24" height="24" viewBox="0 0 24 24" fill="none" xmlns="http://www.w3.org/2000/svg">
<path opacity="0.4" d="M21.75 6.72922C21.75 6.52922 21.67 6.33925 21.53 6.19925L17.81 2.47922C17.52 2.18922 17.04 2.18922 16.75 2.47922C16.46 2.76922 16.46 3.24922 16.75 3.53922L19.2 5.98923H3C2.59 5.98923 2.25 6.32923 2.25 6.73923C2.25 7.14923 2.59 7.48923 3 7.48923H19.19L16.75 9.92923C16.46 10.2192 16.46 10.6992 16.75 10.9892C16.9 11.1392 17.09 11.2093 17.28 11.2093C17.47 11.2093 17.66 11.1392 17.81 10.9892L21.52 7.27927C21.59 7.20927 21.65 7.11926 21.69 7.01926C21.69 7.00926 21.69 6.99923 21.7 6.98923C21.73 6.89923 21.75 6.81922 21.75 6.72922Z" fill="#04773B"/>
<path d="M21 16.5202H4.81L7.25 14.0802C7.54 13.7902 7.54 13.3102 7.25 13.0202C6.96 12.7302 6.48 12.7302 6.19 13.0202L2.47998 16.7302C2.40998 16.8002 2.35 16.8902 2.31 16.9902C2.31 17.0002 2.30999 17.0102 2.29999 17.0202C2.26999 17.1002 2.25 17.1902 2.25 17.2802C2.25 17.4802 2.32997 17.6702 2.46997 17.8102L6.19 21.5302C6.34 21.6802 6.52997 21.7502 6.71997 21.7502C6.90997 21.7502 7.1 21.6802 7.25 21.5302C7.54 21.2402 7.54 20.7602 7.25 20.4702L4.79999 18.0202H21C21.41 18.0202 21.75 17.6802 21.75 17.2702C21.75 16.8602 21.41 16.5202 21 16.5202Z" fill="#04773B"/>
</svg>
