<svg width="24" height="24" viewBox="0 0 24 24" fill="none" xmlns="http://www.w3.org/2000/svg">
<path opacity="0.4" d="M19.0899 12.59C18.9299 12.59 18.7699 12.54 18.6299 12.43C14.5999 9.31999 9.38993 9.31999 5.35993 12.43C5.02993 12.68 4.55993 12.62 4.30993 12.3C4.05993 11.97 4.11994 11.5 4.43994 11.25C9.02994 7.69999 14.9599 7.69999 19.5399 11.25C19.8699 11.5 19.9299 11.97 19.6699 12.3C19.5399 12.49 19.3199 12.59 19.0899 12.59Z" fill="#199A46"/>
<path d="M22 9.11001C21.84 9.11001 21.68 9.06 21.54 8.95C15.74 4.47 8.25004 4.47 2.46004 8.95C2.13004 9.2 1.66003 9.14001 1.41003 8.82001C1.16003 8.49001 1.22002 8.02001 1.54002 7.77001C7.89002 2.86001 16.1 2.86001 22.46 7.77001C22.79 8.02001 22.85 8.49001 22.59 8.82001C22.45 9.01001 22.22 9.11001 22 9.11001Z" fill="#199A46"/>
<path d="M17.21 16.24C17.05 16.24 16.8899 16.19 16.7499 16.08C13.8699 13.85 10.1399 13.85 7.24995 16.08C6.91995 16.33 6.44995 16.27 6.19995 15.95C5.94995 15.62 6.00995 15.15 6.32995 14.9C9.76995 12.24 14.22 12.24 17.66 14.9C17.99 15.15 18.0499 15.62 17.7899 15.95C17.6499 16.14 17.43 16.24 17.21 16.24Z" fill="#199A46"/>
<path opacity="0.4" d="M14.6001 19.9C14.4401 19.9 14.28 19.85 14.14 19.74C12.84 18.73 11.1501 18.73 9.85005 19.74C9.52005 19.99 9.05005 19.93 8.80005 19.61C8.55005 19.28 8.61004 18.81 8.93004 18.56C10.79 17.12 13.19 17.12 15.05 18.56C15.38 18.81 15.44 19.28 15.18 19.61C15.05 19.79 14.8301 19.9 14.6001 19.9Z" fill="#199A46"/>
</svg>
