<svg width="64" height="64" viewBox="0 0 64 64" fill="none" xmlns="http://www.w3.org/2000/svg">
<path d="M0 12C0 5.37258 5.37258 0 12 0H52C58.6274 0 64 5.37258 64 12V52C64 58.6274 58.6274 64 52 64H12C5.37258 64 0 58.6274 0 52V12Z" fill="#2B8049" fill-opacity="0.05"/>
<path d="M29 25.23C29 23.9873 30.0074 22.98 31.25 22.98H32.75C33.9926 22.98 35 23.9873 35 25.23V41C33.0251 41 31.0084 41 29 41V25.23ZM27.5 30H25.25C24.0074 30 23 31.0073 23 32.25V40.25C23 40.6642 23.3358 41 23.75 41H27.5V30ZM36.5 41H40.25C40.6642 41 41 40.6642 41 40.25V29.25C41 28.0073 39.9926 27 38.75 27H36.5V41Z" fill="#2B8049"/>
</svg>
