<svg width="48" height="42" viewBox="0 0 48 42" fill="none" xmlns="http://www.w3.org/2000/svg">
<path d="M0 21C0 9.67816 9.17816 0.5 20.5 0.5H27.5C38.8218 0.5 48 9.67816 48 21C48 32.3218 38.8218 41.5 27.5 41.5H20.5C9.17816 41.5 0 32.3218 0 21Z" fill="#E00034" fill-opacity="0.2"/>
<path d="M16.65 25.5L14.536 21.888H14.48H12.24V25.5H10.784V15.7H14.48C16.874 15.7 18.022 16.918 18.022 18.808C18.022 20.264 17.322 21.328 15.88 21.72L18.106 25.5H16.65ZM12.24 20.614H14.424C15.838 20.614 16.538 19.942 16.538 18.808C16.538 17.646 15.838 16.974 14.424 16.974H12.24V20.614ZM21.4149 25.64C20.0569 25.64 18.9789 25.038 18.9789 23.596C18.9789 22.196 20.0009 21.622 21.3029 21.468L23.1089 21.258C23.7809 21.174 24.0049 21.048 24.0049 20.824V20.628C24.0049 19.466 23.4029 19.158 22.3809 19.158C21.3309 19.158 20.7429 19.466 20.7429 20.39V20.558H19.3849V20.264C19.3849 18.808 20.4069 18.08 22.4089 18.08C24.4669 18.08 25.4189 18.85 25.4189 20.614V25.5H24.0889V24.324H24.0329C23.8929 24.604 23.2069 25.64 21.4149 25.64ZM20.3929 23.526C20.3929 24.212 20.8829 24.534 21.7649 24.534C23.3049 24.534 24.0049 23.582 24.0049 22.798V22C23.9069 22.154 23.7249 22.252 23.0109 22.336L21.6389 22.518C20.7289 22.63 20.3929 22.952 20.3929 23.526ZM28.1697 25.5L26.1397 18.22H27.4977L29.0237 24.086H29.0797L30.8717 18.22H32.1037L33.8957 24.086H33.9517L35.4777 18.22H36.8357L34.7917 25.5H33.1957L31.4877 20.096L29.7657 25.5H28.1697Z" fill="#E00034"/>
</svg>
